CommonSans-ExpandedThin.ufo
<glyph name="quotedbl" format="2">
  <advance width="290"/>
  <unicode hex="0022"/>
  <outline>
    <contour>
      <point x="82" y="450" type="line"/>
      <point x="98" y="450" type="line"/>
      <point x="101" y="580" type="line"/>
      <point x="101" y="670" type="line"/>
      <point x="79" y="670" type="line"/>
      <point x="79" y="580" type="line"/>
    </contour>
    <contour>
      <point x="192" y="450" type="line"/>
      <point x="208" y="450" type="line"/>
      <point x="211" y="580" type="line"/>
      <point x="211" y="670" type="line"/>
      <point x="189" y="670" type="line"/>
      <point x="189" y="580" type="line"/>
    </contour>
  </outline>
</glyph>
<glyph name="percent" format="2">
  <advance width="720"/>
  <unicode hex="0025"/>
  <outline>
    <contour>
      <point x="30" y="544" type="curve" smooth="yes"/>
      <point x="30" y="418"/>
      <point x="74" y="358"/>
      <point x="168" y="358" type="curve" smooth="yes"/>
      <point x="262" y="358"/>
      <point x="306" y="418"/>
      <point x="306" y="544" type="curve" smooth="yes"/>
      <point x="306" y="670"/>
      <point x="262" y="730"/>
      <point x="168" y="730" type="curve" smooth="yes"/>
      <point x="74" y="730"/>
      <point x="30" y="670"/>
    </contour>
    <contour>
      <point x="52" y="544" type="curve" smooth="yes"/>
      <point x="52" y="649"/>
      <point x="85" y="708"/>
      <point x="168" y="708" type="curve" smooth="yes"/>
      <point x="251" y="708"/>
      <point x="284" y="649"/>
      <point x="284" y="544" type="curve" smooth="yes"/>
      <point x="284" y="439"/>
      <point x="251" y="380"/>
      <point x="168" y="380" type="curve" smooth="yes"/>
      <point x="85" y="380"/>
      <point x="52" y="439"/>
    </contour>
    <contour>
      <point x="144" y="0" type="line"/>
      <point x="166" y="0" type="line"/>
      <point x="575" y="700" type="line"/>
      <point x="553" y="700" type="line"/>
    </contour>
    <contour>
      <point x="414" y="176" type="curve" smooth="yes"/>
      <point x="414" y="50"/>
      <point x="458" y="-10"/>
      <point x="552" y="-10" type="curve" smooth="yes"/>
      <point x="646" y="-10"/>
      <point x="690" y="50"/>
      <point x="690" y="176" type="curve" smooth="yes"/>
      <point x="690" y="302"/>
      <point x="646" y="362"/>
      <point x="552" y="362" type="curve" smooth="yes"/>
      <point x="458" y="362"/>
      <point x="414" y="302"/>
    </contour>
    <contour>
      <point x="436" y="176" type="curve" smooth="yes"/>
      <point x="436" y="281"/>
      <point x="469" y="340"/>
      <point x="552" y="340" type="curve" smooth="yes"/>
      <point x="635" y="340"/>
      <point x="668" y="281"/>
      <point x="668" y="176" type="curve" smooth="yes"/>
      <point x="668" y="71"/>
      <point x="635" y="12"/>
      <point x="552" y="12" type="curve" smooth="yes"/>
      <point x="469" y="12"/>
      <point x="436" y="71"/>
    </contour>
  </outline>
</glyph>
<glyph name="ampersand" format="2">
  <advance width="699"/>
  <unicode hex="0026"/>
  <outline>
    <contour>
      <point x="80" y="192" type="curve" smooth="yes"/>
      <point x="80" y="77"/>
      <point x="165" y="-8"/>
      <point x="276" y="-8" type="curve" smooth="yes"/>
      <point x="441" y="-8"/>
      <point x="551" y="140"/>
      <point x="560" y="330" type="curve"/>
      <point x="540" y="330" type="line"/>
      <point x="532" y="141"/>
      <point x="424" y="10"/>
      <point x="279" y="10" type="curve" smooth="yes"/>
      <point x="170" y="10"/>
      <point x="100" y="85"/>
      <point x="100" y="200" type="curve" smooth="yes"/>
      <point x="100" y="274"/>
      <point x="135" y="327"/>
      <point x="268" y="402" type="curve" smooth="yes"/>
      <point x="325" y="434" type="line" smooth="yes"/>
      <point x="376" y="463"/>
      <point x="442" y="506"/>
      <point x="442" y="570" type="curve" smooth="yes"/>
      <point x="442" y="645"/>
      <point x="387" y="688"/>
      <point x="303" y="688" type="curve" smooth="yes"/>
      <point x="216" y="688"/>
      <point x="159" y="636"/>
      <point x="159" y="566" type="curve" smooth="yes"/>
      <point x="159" y="540"/>
      <point x="166" y="512"/>
      <point x="224" y="443" type="curve" smooth="yes"/>
      <point x="600" y="0" type="line"/>
      <point x="632" y="0" type="line"/>
      <point x="237" y="456" type="line" smooth="yes"/>
      <point x="184" y="517"/>
      <point x="179" y="540"/>
      <point x="179" y="565" type="curve" smooth="yes"/>
      <point x="179" y="629"/>
      <point x="226" y="670"/>
      <point x="303" y="670" type="curve" smooth="yes"/>
      <point x="379" y="670"/>
      <point x="422" y="638"/>
      <point x="422" y="569" type="curve" smooth="yes"/>
      <point x="422" y="517"/>
      <point x="369" y="480"/>
      <point x="303" y="442" type="curve" smooth="yes"/>
      <point x="247" y="410" type="line" smooth="yes"/>
      <point x="119" y="337"/>
      <point x="80" y="284"/>
    </contour>
  </outline>
  <guideline angle="209.31" x="292" y="435"/>
  <guideline angle="29.31" x="283" y="405"/>
  <guideline angle="310.415" x="233" y="431"/>
  <guideline angle="130.979" x="632" y="0"/>
</glyph>
<glyph name="zero" format="2">
  <advance width="852"/>
  <unicode hex="0030"/>
  <outline>
    <contour>
      <point x="80" y="340" type="curve" smooth="yes"/>
      <point x="80" y="131"/>
      <point x="218" y="-8"/>
      <point x="426" y="-8" type="curve" smooth="yes"/>
      <point x="634" y="-8"/>
      <point x="772" y="131"/>
      <point x="772" y="340" type="curve" smooth="yes"/>
      <point x="772" y="549"/>
      <point x="634" y="688"/>
      <point x="426" y="688" type="curve" smooth="yes"/>
      <point x="218" y="688"/>
      <point x="80" y="549"/>
    </contour>
    <contour>
      <point x="102" y="340" type="curve" smooth="yes"/>
      <point x="102" y="537"/>
      <point x="232" y="668"/>
      <point x="426" y="668" type="curve" smooth="yes"/>
      <point x="620" y="668"/>
      <point x="750" y="537"/>
      <point x="750" y="340" type="curve" smooth="yes"/>
      <point x="750" y="143"/>
      <point x="620" y="12"/>
      <point x="426" y="12" type="curve" smooth="yes"/>
      <point x="232" y="12"/>
      <point x="102" y="143"/>
    </contour>
  </outline>
  <guideline angle="90" x="80" y="0"/>
  <guideline angle="90" x="772" y="0"/>
  <guideline angle="0" x="0" y="688"/>
  <guideline angle="0" x="0" y="-8"/>
  <guideline angle="0" x="0" y="668"/>
  <guideline angle="90" x="102" y="0"/>
  <guideline angle="90" x="750" y="0"/>
  <guideline angle="0" x="0" y="12"/>
  <guideline angle="90" x="426" y="0"/>
  <guideline angle="0" x="0" y="340"/>
</glyph>
<glyph name="one" format="2">
  <advance width="289"/>
  <unicode hex="0031"/>
  <outline>
    <contour>
      <point x="70" y="614" type="line"/>
      <point x="117" y="615"/>
      <point x="153" y="631"/>
      <point x="187" y="665" type="curve"/>
      <point x="187" y="645"/>
      <point x="187" y="600"/>
      <point x="187" y="580" type="curve" smooth="yes"/>
      <point x="187" y="0" type="line"/>
      <point x="209" y="0" type="line"/>
      <point x="209" y="700" type="line"/>
      <point x="190" y="700" type="line"/>
      <point x="155" y="657"/>
      <point x="115" y="635"/>
      <point x="70" y="634" type="curve"/>
    </contour>
  </outline>
</glyph>
<glyph name="two" format="2">
  <advance width="850"/>
  <unicode hex="0032"/>
  <outline>
    <contour>
      <point x="110" y="0" type="line"/>
      <point x="770" y="0" type="line"/>
      <point x="770" y="22" type="line"/>
      <point x="140" y="22" type="line"/>
      <point x="145" y="13" type="line"/>
      <point x="402" y="122"/>
      <point x="736" y="187"/>
      <point x="736" y="420" type="curve" smooth="yes"/>
      <point x="736" y="581"/>
      <point x="608" y="688"/>
      <point x="416" y="688" type="curve" smooth="yes"/>
      <point x="239" y="688"/>
      <point x="105" y="596"/>
      <point x="80" y="457" type="curve"/>
      <point x="102" y="457" type="line"/>
      <point x="128" y="584"/>
      <point x="253" y="668"/>
      <point x="416" y="668" type="curve" smooth="yes"/>
      <point x="595" y="668"/>
      <point x="714" y="569"/>
      <point x="714" y="420" type="curve" smooth="yes"/>
      <point x="714" y="208"/>
      <point x="387" y="138"/>
      <point x="110" y="21" type="curve"/>
    </contour>
  </outline>
  <guideline angle="90" x="80" y="0"/>
  <guideline angle="90" x="102" y="0"/>
  <guideline angle="0" x="0" y="688"/>
  <guideline angle="0" x="0" y="668"/>
  <guideline angle="90" x="736" y="0"/>
  <guideline angle="90" x="714" y="0"/>
  <guideline angle="258.601" x="127" y="581"/>
  <guideline angle="259.846" x="104" y="591"/>
</glyph>
<glyph name="three" format="2">
  <advance width="805"/>
  <unicode hex="0033"/>
  <outline>
    <contour>
      <point x="34" y="150" type="line"/>
      <point x="66" y="55"/>
      <point x="208" y="-8"/>
      <point x="389" y="-8" type="curve" smooth="yes"/>
      <point x="591" y="-8"/>
      <point x="725" y="68"/>
      <point x="725" y="181" type="curve" smooth="yes"/>
      <point x="725" y="280"/>
      <point x="617" y="353"/>
      <point x="454" y="364" type="curve"/>
      <point x="454" y="351" type="line"/>
      <point x="607" y="357"/>
      <point x="708" y="423"/>
      <point x="708" y="515" type="curve" smooth="yes"/>
      <point x="708" y="619"/>
      <point x="581" y="688"/>
      <point x="391" y="688" type="curve" smooth="yes"/>
      <point x="212" y="688"/>
      <point x="77" y="625"/>
      <point x="53" y="531" type="curve"/>
      <point x="75" y="531" type="line"/>
      <point x="98" y="613"/>
      <point x="224" y="668"/>
      <point x="391" y="668" type="curve" smooth="yes"/>
      <point x="568" y="668"/>
      <point x="686" y="605"/>
      <point x="686" y="512" type="curve" smooth="yes"/>
      <point x="686" y="425"/>
      <point x="575" y="367"/>
      <point x="411" y="367" type="curve" smooth="yes"/>
      <point x="304" y="367" type="line"/>
      <point x="304" y="347" type="line"/>
      <point x="416" y="347" type="line" smooth="yes"/>
      <point x="577" y="347"/>
      <point x="703" y="279"/>
      <point x="703" y="178" type="curve" smooth="yes"/>
      <point x="703" y="78"/>
      <point x="577" y="12"/>
      <point x="389" y="12" type="curve" smooth="yes"/>
      <point x="227" y="12"/>
      <point x="95" y="67"/>
      <point x="60" y="150" type="curve"/>
    </contour>
  </outline>
  <guideline angle="0" x="0" y="688"/>
  <guideline angle="0" x="0" y="668"/>
  <guideline angle="255.822" x="77" y="626"/>
  <guideline angle="254.805" x="97" y="612"/>
  <guideline angle="90" x="725" y="0"/>
  <guideline angle="90" x="703" y="0"/>
  <guideline angle="0" x="0" y="367"/>
  <guideline angle="182.161" x="613" y="357"/>
  <guideline angle="176.009" x="626" y="352"/>
  <guideline angle="0" x="0" y="347"/>
  <guideline angle="0" x="0" y="-8"/>
  <guideline angle="0" x="0" y="12"/>
  <guideline angle="292.865" x="60" y="150"/>
  <guideline angle="108.616" x="66" y="55"/>
</glyph>
<glyph name="four" format="2">
  <advance width="717"/>
  <unicode hex="0034"/>
  <outline>
    <contour>
      <point x="60" y="144" type="line"/>
      <point x="661" y="144" type="line"/>
      <point x="661" y="164" type="line"/>
      <point x="72" y="164" type="line"/>
      <point x="74" y="150" type="line"/>
      <point x="598" y="669" type="line"/>
      <point x="581" y="669" type="line"/>
      <point x="581" y="0" type="line"/>
      <point x="603" y="0" type="line"/>
      <point x="603" y="680" type="line"/>
      <point x="581" y="680" type="line"/>
      <point x="60" y="165" type="line"/>
    </contour>
  </outline>
</glyph>
<glyph name="five" format="2">
  <advance width="823"/>
  <unicode hex="0035"/>
  <outline>
    <contour>
      <point x="53" y="148" type="line"/>
      <point x="93" y="55"/>
      <point x="225" y="-8"/>
      <point x="383" y="-8" type="curve" smooth="yes"/>
      <point x="599" y="-8"/>
      <point x="743" y="94"/>
      <point x="743" y="246" type="curve" smooth="yes"/>
      <point x="743" y="394"/>
      <point x="594" y="493"/>
      <point x="372" y="493" type="curve" smooth="yes"/>
      <point x="284" y="493"/>
      <point x="181" y="472"/>
      <point x="98" y="431" type="curve"/>
      <point x="109" y="423" type="line"/>
      <point x="109" y="673" type="line"/>
      <point x="103" y="660" type="line"/>
      <point x="697" y="660" type="line"/>
      <point x="697" y="680" type="line"/>
      <point x="87" y="680" type="line"/>
      <point x="87" y="415" type="line"/>
      <point x="106" y="415" type="line"/>
      <point x="173" y="450"/>
      <point x="292" y="473"/>
      <point x="372" y="473" type="curve" smooth="yes"/>
      <point x="581" y="473"/>
      <point x="721" y="382"/>
      <point x="721" y="246" type="curve" smooth="yes"/>
      <point x="721" y="105"/>
      <point x="586" y="12"/>
      <point x="383" y="12" type="curve" smooth="yes"/>
      <point x="243" y="12"/>
      <point x="120" y="67"/>
      <point x="81" y="148" type="curve"/>
    </contour>
  </outline>
  <guideline angle="209.932" x="194" y="476"/>
  <guideline angle="0" x="0" y="493"/>
  <guideline angle="0" x="0" y="473"/>
  <guideline angle="207.582" x="193" y="450"/>
  <guideline angle="90" x="743" y="0"/>
  <guideline angle="90" x="721" y="0"/>
  <guideline angle="0" x="0" y="12"/>
  <guideline angle="0" x="0" y="-8"/>
  <guideline angle="293.039" x="53" y="148"/>
  <guideline angle="295.959" x="81" y="148"/>
</glyph>
<glyph name="six" format="2">
  <advance width="851"/>
  <unicode hex="0036"/>
  <outline>
    <contour>
      <point x="104" y="244" type="curve" smooth="yes"/>
      <point x="104" y="348"/>
      <point x="253" y="423"/>
      <point x="438" y="423" type="curve" smooth="yes"/>
      <point x="626" y="423"/>
      <point x="751" y="339"/>
      <point x="751" y="214" type="curve" smooth="yes"/>
      <point x="751" y="93"/>
      <point x="627" y="12"/>
      <point x="442" y="12" type="curve" smooth="yes"/>
      <point x="239" y="12"/>
      <point x="104" y="105"/>
    </contour>
    <contour>
      <point x="80" y="255" type="curve" smooth="yes"/>
      <point x="80" y="97"/>
      <point x="225" y="-8"/>
      <point x="442" y="-8" type="curve" smooth="yes"/>
      <point x="639" y="-8"/>
      <point x="771" y="80"/>
      <point x="771" y="213" type="curve" smooth="yes"/>
      <point x="771" y="351"/>
      <point x="638" y="443"/>
      <point x="438" y="443" type="curve" smooth="yes"/>
      <point x="282" y="443"/>
      <point x="167" y="399"/>
      <point x="108" y="317" type="curve"/>
      <point x="104" y="317" type="line"/>
      <point x="104" y="534"/>
      <point x="229" y="668"/>
      <point x="431" y="668" type="curve" smooth="yes"/>
      <point x="549" y="668"/>
      <point x="660" y="626"/>
      <point x="711" y="561" type="curve"/>
      <point x="737" y="561" type="line"/>
      <point x="692" y="637"/>
      <point x="570" y="688"/>
      <point x="431" y="688" type="curve" smooth="yes"/>
      <point x="198" y="688"/>
      <point x="80" y="542"/>
    </contour>
  </outline>
  <guideline angle="0" x="0" y="-8"/>
  <guideline angle="0" x="0" y="12"/>
  <guideline angle="90" x="751" y="0"/>
  <guideline angle="90" x="771" y="0"/>
  <guideline angle="0" x="0" y="443"/>
  <guideline angle="0" x="0" y="423"/>
  <guideline angle="90" x="80" y="0"/>
  <guideline angle="90" x="104" y="0"/>
  <guideline angle="0" x="0" y="688"/>
  <guideline angle="0" x="0" y="668"/>
</glyph>
<glyph name="seven" format="2">
  <advance width="706"/>
  <unicode hex="0037"/>
  <outline>
    <contour>
      <point x="50" y="670" type="line"/>
      <point x="656" y="670" type="line"/>
      <point x="656" y="690" type="line"/>
      <point x="50" y="690" type="line"/>
    </contour>
    <contour>
      <point x="194" y="0" type="curve"/>
      <point x="216" y="0" type="line"/>
      <point x="216" y="236"/>
      <point x="370" y="442"/>
      <point x="656" y="669" type="curve"/>
      <point x="656" y="680" type="line"/>
      <point x="636" y="680" type="line"/>
      <point x="341" y="436"/>
      <point x="194" y="241"/>
    </contour>
  </outline>
</glyph>
<glyph name="eight" format="2">
  <advance width="850"/>
  <unicode hex="0038"/>
  <outline>
    <contour>
      <point x="80" y="180" type="curve" smooth="yes"/>
      <point x="80" y="67"/>
      <point x="218" y="-8"/>
      <point x="425" y="-8" type="curve" smooth="yes"/>
      <point x="632" y="-8"/>
      <point x="770" y="68"/>
      <point x="770" y="181" type="curve" smooth="yes"/>
      <point x="770" y="265"/>
      <point x="684" y="329"/>
      <point x="529" y="358" type="curve"/>
      <point x="529" y="354" type="line"/>
      <point x="648" y="366"/>
      <point x="748" y="424"/>
      <point x="748" y="511" type="curve" smooth="yes"/>
      <point x="748" y="617"/>
      <point x="619" y="688"/>
      <point x="425" y="688" type="curve" smooth="yes"/>
      <point x="231" y="688"/>
      <point x="102" y="617"/>
      <point x="102" y="511" type="curve" smooth="yes"/>
      <point x="102" y="412"/>
      <point x="226" y="366"/>
      <point x="321" y="354" type="curve"/>
      <point x="321" y="358" type="line"/>
      <point x="182" y="342"/>
      <point x="80" y="267"/>
    </contour>
    <contour>
      <point x="102" y="181" type="curve" smooth="yes"/>
      <point x="102" y="274"/>
      <point x="238" y="346"/>
      <point x="425" y="346" type="curve" smooth="yes"/>
      <point x="598" y="346"/>
      <point x="748" y="274"/>
      <point x="748" y="181" type="curve" smooth="yes"/>
      <point x="748" y="80"/>
      <point x="619" y="12"/>
      <point x="425" y="12" type="curve" smooth="yes"/>
      <point x="231" y="12"/>
      <point x="102" y="80"/>
    </contour>
    <contour>
      <point x="124" y="511" type="curve" smooth="yes"/>
      <point x="124" y="605"/>
      <point x="244" y="668"/>
      <point x="425" y="668" type="curve" smooth="yes"/>
      <point x="606" y="668"/>
      <point x="726" y="605"/>
      <point x="726" y="511" type="curve" smooth="yes"/>
      <point x="726" y="424"/>
      <point x="609" y="366"/>
      <point x="425" y="366" type="curve" smooth="yes"/>
      <point x="244" y="366"/>
      <point x="124" y="424"/>
    </contour>
  </outline>
  <guideline angle="90" x="80" y="0"/>
  <guideline angle="90" x="102" y="0"/>
  <guideline angle="0" x="0" y="-8"/>
  <guideline angle="0" x="0" y="12"/>
  <guideline angle="90" x="748" y="0"/>
  <guideline angle="90" x="770" y="0"/>
  <guideline angle="90" x="726" y="0"/>
  <guideline angle="90" x="124" y="0"/>
  <guideline angle="0" x="0" y="688"/>
  <guideline angle="0" x="0" y="668"/>
  <guideline angle="0" x="0" y="366"/>
  <guideline angle="0" x="0" y="346"/>
</glyph>
<glyph name="nine" format="2">
  <advance width="851"/>
  <unicode hex="0039"/>
  <outline>
    <contour>
      <point x="102" y="459" type="curve" smooth="yes"/>
      <point x="102" y="584"/>
      <point x="232" y="668"/>
      <point x="426" y="668" type="curve" smooth="yes"/>
      <point x="619" y="668"/>
      <point x="749" y="562"/>
      <point x="749" y="406" type="curve" smooth="yes"/>
      <point x="749" y="324"/>
      <point x="585" y="267"/>
      <point x="408" y="267" type="curve" smooth="yes"/>
      <point x="248" y="267"/>
      <point x="102" y="354"/>
    </contour>
    <contour>
      <point x="114" y="128" type="line"/>
      <point x="159" y="46"/>
      <point x="281" y="-8"/>
      <point x="420" y="-8" type="curve" smooth="yes"/>
      <point x="631" y="-8"/>
      <point x="771" y="149"/>
      <point x="771" y="387" type="curve" smooth="yes"/>
      <point x="771" y="570"/>
      <point x="642" y="688"/>
      <point x="437" y="688" type="curve" smooth="yes"/>
      <point x="223" y="688"/>
      <point x="80" y="599"/>
      <point x="80" y="466" type="curve" smooth="yes"/>
      <point x="80" y="335"/>
      <point x="227" y="247"/>
      <point x="406" y="247" type="curve" smooth="yes"/>
      <point x="567" y="247"/>
      <point x="702" y="291"/>
      <point x="747" y="359" type="curve"/>
      <point x="751" y="359" type="line"/>
      <point x="737" y="151"/>
      <point x="606" y="12"/>
      <point x="423" y="12" type="curve" smooth="yes"/>
      <point x="300" y="12"/>
      <point x="187" y="58"/>
      <point x="140" y="128" type="curve"/>
    </contour>
  </outline>
  <guideline angle="0" x="0" y="688"/>
  <guideline angle="0" x="0" y="668"/>
  <guideline angle="90" x="80" y="0"/>
  <guideline angle="90" x="102" y="0"/>
  <guideline angle="90" x="771" y="0"/>
  <guideline angle="90" x="749" y="0"/>
  <guideline angle="266.149" x="751" y="359"/>
  <guideline angle="0" x="0" y="12"/>
</glyph>
<glyph name="colon" format="2">
  <advance width="180"/>
  <unicode hex="003A"/>
  <outline>
    <contour>
      <point x="80" y="0" type="line"/>
      <point x="100" y="0" type="line"/>
      <point x="100" y="80" type="line"/>
      <point x="80" y="80" type="line"/>
    </contour>
    <contour>
      <point x="80" y="370" type="line"/>
      <point x="100" y="370" type="line"/>
      <point x="100" y="450" type="line"/>
      <point x="80" y="450" type="line"/>
    </contour>
  </outline>
</glyph>
<glyph name="question" format="2">
  <advance width="582"/>
  <unicode hex="003F"/>
  <outline>
    <contour>
      <point x="40" y="480" type="curve"/>
      <point x="60" y="480" type="line"/>
      <point x="60" y="607.2"/>
      <point x="156.27" y="692"/>
      <point x="300.675" y="692" type="curve" smooth="yes"/>
      <point x="433.47" y="692"/>
      <point x="522" y="627.6"/>
      <point x="522" y="531" type="curve" smooth="yes"/>
      <point x="522" y="353"/>
      <point x="260" y="318"/>
      <point x="260" y="170" type="curve" smooth="yes"/>
      <point x="260" y="130" type="line"/>
      <point x="280" y="130" type="line"/>
      <point x="280" y="164.886" type="line" smooth="yes"/>
      <point x="280" y="309.886"/>
      <point x="542" y="336"/>
      <point x="542" y="533" type="curve" smooth="yes"/>
      <point x="542" y="639.2"/>
      <point x="445.407" y="710"/>
      <point x="300.517" y="710" type="curve" smooth="yes"/>
      <point x="144.207" y="710"/>
      <point x="40" y="618"/>
    </contour>
    <contour>
      <point x="260" y="0" type="line"/>
      <point x="280" y="0" type="line"/>
      <point x="280" y="80" type="line"/>
      <point x="260" y="80" type="line"/>
    </contour>
  </outline>
</glyph>
<glyph name="at" format="2">
  <advance width="922"/>
  <unicode hex="0040"/>
  <outline>
    <contour>
      <point x="263" y="164.41" type="curve" smooth="yes"/>
      <point x="263" y="326.76"/>
      <point x="351.21" y="435"/>
      <point x="483.54" y="435" type="curve" smooth="yes"/>
      <point x="554.86" y="435"/>
      <point x="603.99" y="407.25"/>
      <point x="610.88" y="364.56" type="curve"/>
      <point x="565.37" y="130.86" type="line" smooth="yes"/>
      <point x="553.79" y="71.45"/>
      <point x="488.7" y="31.85"/>
      <point x="402.62" y="31.85" type="curve" smooth="yes"/>
      <point x="318.83" y="31.85"/>
      <point x="263" y="84.87"/>
    </contour>
    <contour>
      <point x="60" y="230.812" type="curve" smooth="yes"/>
      <point x="60" y="31.1247"/>
      <point x="203.454" y="-102"/>
      <point x="418.635" y="-102" type="curve" smooth="yes"/>
      <point x="483.526" y="-102"/>
      <point x="557.521" y="-90"/>
      <point x="627" y="-60" type="curve"/>
      <point x="618.344" y="-42" type="line"/>
      <point x="545.653" y="-72"/>
      <point x="474.835" y="-82"/>
      <point x="408.573" y="-82" type="curve" smooth="yes"/>
      <point x="211.429" y="-82"/>
      <point x="80" y="43.5477"/>
      <point x="80" y="231.869" type="curve" smooth="yes"/>
      <point x="80" y="431.148"/>
      <point x="230.269" y="564"/>
      <point x="455.671" y="564" type="curve" smooth="yes"/>
      <point x="685.87" y="564"/>
      <point x="842" y="449.415"/>
      <point x="842" y="277.538" type="curve" smooth="yes"/>
      <point x="842" y="130.215"/>
      <point x="771.173" y="32"/>
      <point x="664.932" y="32" type="curve" smooth="yes"/>
      <point x="620.198" y="32"/>
      <point x="590.376" y="55.0637"/>
      <point x="590.376" y="89.6593" type="curve" smooth="yes"/>
      <point x="590.376" y="106.129"/>
      <point x="592.269" y="135.993"/>
      <point x="600" y="174.346" type="curve" smooth="yes"/>
      <point x="651.959" y="432.105" type="line"/>
      <point x="641.954" y="432.105" type="line"/>
      <point x="617.138" y="386.604" type="line"/>
      <point x="622.17" y="388" type="line"/>
      <point x="609.755" y="427"/>
      <point x="550.645" y="453"/>
      <point x="476.062" y="453" type="curve" smooth="yes"/>
      <point x="336.225" y="453"/>
      <point x="243" y="337.763"/>
      <point x="243" y="164.908" type="curve" smooth="yes"/>
      <point x="243" y="74.2757"/>
      <point x="307.186" y="13.8542"/>
      <point x="403.466" y="13.8542" type="curve" smooth="yes"/>
      <point x="491.571" y="13.8542"/>
      <point x="564.105" y="54.1112"/>
      <point x="584.799" y="114.497" type="curve"/>
      <point x="572.679" y="116.843" type="line"/>
      <point x="568.759" y="108.443"/>
      <point x="566.799" y="100.043"/>
      <point x="566.799" y="91.6425" type="curve" smooth="yes"/>
      <point x="566.799" y="45.057"/>
      <point x="606.362" y="14"/>
      <point x="665.707" y="14" type="curve" smooth="yes"/>
      <point x="783.483" y="14"/>
      <point x="862" y="119.925"/>
      <point x="862" y="278.812" type="curve" smooth="yes"/>
      <point x="862" y="461.925"/>
      <point x="699.503" y="584"/>
      <point x="455.758" y="584" type="curve" smooth="yes"/>
      <point x="218.303" y="584"/>
      <point x="60" y="442.725"/>
    </contour>
  </outline>
</glyph>
<glyph name="A" format="2">
  <advance width="568"/>
  <unicode hex="0041"/>
  <anchor x="281" y="740" name="top"/>
  <anchor x="280" y="662" name="t.ring"/>
  <anchor x="281" y="-40" name="bottom"/>
  <anchor x="556" y="0" name="b.ogonek"/>
  <outline>
    <contour>
      <point x="107" y="250" type="line"/>
      <point x="455" y="250" type="line"/>
      <point x="447" y="270" type="line"/>
      <point x="115" y="270" type="line"/>
    </contour>
    <contour>
      <point x="10" y="0" type="line"/>
      <point x="34" y="0" type="line"/>
      <point x="266" y="600" type="line" smooth="yes"/>
      <point x="272" y="615"/>
      <point x="280" y="633"/>
      <point x="283" y="648" type="curve"/>
      <point x="280" y="646" type="line"/>
      <point x="288" y="646" type="line"/>
      <point x="285" y="648" type="line"/>
      <point x="288" y="633"/>
      <point x="296" y="615"/>
      <point x="302" y="600" type="curve" smooth="yes"/>
      <point x="534" y="0" type="line"/>
      <point x="558" y="0" type="line"/>
      <point x="295" y="680" type="line"/>
      <point x="273" y="680" type="line"/>
    </contour>
  </outline>
  <guideline angle="90" x="280" y="0"/>
  <guideline angle="68.0716" x="6" y="0"/>
  <guideline angle="248.202" x="289" y="672"/>
  <guideline angle="111.798" x="541" y="0"/>
  <guideline angle="291.928" x="282" y="680"/>
  <guideline angle="111.947" x="568" y="0"/>
  <guideline angle="248.053" x="267" y="680"/>
</glyph>
<glyph name="B" format="2">
  <advance width="696"/>
  <unicode hex="0042"/>
  <anchor x="332" y="740" name="top"/>
  <anchor x="332" y="-50" name="bottom"/>
  <outline>
    <contour>
      <point x="100" y="0" type="line"/>
      <point x="122" y="0" type="line"/>
      <point x="122" y="680" type="line"/>
      <point x="100" y="680" type="line"/>
    </contour>
    <contour>
      <point x="115" y="0" type="line"/>
      <point x="404" y="0" type="line" smooth="yes"/>
      <point x="540" y="0"/>
      <point x="616" y="66"/>
      <point x="616" y="187" type="curve" smooth="yes"/>
      <point x="616" y="298"/>
      <point x="560" y="366"/>
      <point x="450" y="377" type="curve"/>
      <point x="487" y="355" type="line"/>
      <point x="487" y="388" type="line"/>
      <point x="450" y="363" type="line"/>
      <point x="553" y="382"/>
      <point x="602" y="436"/>
      <point x="602" y="527" type="curve" smooth="yes"/>
      <point x="602" y="615"/>
      <point x="530" y="680"/>
      <point x="410" y="680" type="curve" smooth="yes"/>
      <point x="115" y="680" type="line"/>
      <point x="115" y="660" type="line"/>
      <point x="410" y="660" type="line" smooth="yes"/>
      <point x="521" y="660"/>
      <point x="580" y="606"/>
      <point x="580" y="527" type="curve" smooth="yes"/>
      <point x="580" y="427"/>
      <point x="513" y="380"/>
      <point x="397" y="380" type="curve" smooth="yes"/>
      <point x="115" y="380" type="line"/>
      <point x="115" y="360" type="line"/>
      <point x="397" y="360" type="line" smooth="yes"/>
      <point x="535" y="360"/>
      <point x="594" y="290"/>
      <point x="594" y="187" type="curve" smooth="yes"/>
      <point x="594" y="75"/>
      <point x="531" y="20"/>
      <point x="404" y="20" type="curve" smooth="yes"/>
      <point x="115" y="20" type="line"/>
    </contour>
  </outline>
  <guideline angle="0" x="0" y="20"/>
  <guideline angle="0" x="0" y="660"/>
  <guideline angle="0" x="0" y="380"/>
  <guideline angle="0" x="0" y="360"/>
  <guideline angle="0" x="0" y="127"/>
  <guideline angle="0" x="0" y="536"/>
  <guideline angle="90" x="332" y="0"/>
</glyph>
<glyph name="C" format="2">
  <advance width="826"/>
  <unicode hex="0043"/>
  <anchor x="426" y="740" name="top"/>
  <anchor x="426" y="-60" name="bottom"/>
  <anchor x="411" y="0" name="b.cedilla"/>
  <outline>
    <contour>
      <point x="80" y="340" type="curve" smooth="yes"/>
      <point x="80" y="121"/>
      <point x="226" y="-8"/>
      <point x="425" y="-8" type="curve" smooth="yes"/>
      <point x="576" y="-8"/>
      <point x="694" y="67"/>
      <point x="727" y="184" type="curve"/>
      <point x="705" y="184" type="line"/>
      <point x="676" y="82"/>
      <point x="563" y="12"/>
      <point x="421" y="12" type="curve" smooth="yes"/>
      <point x="230" y="12"/>
      <point x="102" y="140"/>
      <point x="102" y="340" type="curve" smooth="yes"/>
      <point x="102" y="538"/>
      <point x="229" y="668"/>
      <point x="421" y="668" type="curve" smooth="yes"/>
      <point x="573" y="668"/>
      <point x="686" y="586"/>
      <point x="724" y="452" type="curve"/>
      <point x="746" y="452" type="line"/>
      <point x="706" y="604"/>
      <point x="581" y="688"/>
      <point x="422" y="688" type="curve" smooth="yes"/>
      <point x="226" y="688"/>
      <point x="80" y="559"/>
    </contour>
  </outline>
  <guideline angle="90" name="h_1" x="426" y="0"/>
</glyph>
<glyph name="D" format="2">
  <advance width="726"/>
  <unicode hex="0044"/>
  <anchor x="321" y="740" name="top"/>
  <anchor x="321" y="-40" name="bottom"/>
  <anchor x="303" y="0" name="b.cedilla"/>
  <outline>
    <contour>
      <point x="100" y="0" type="line"/>
      <point x="122" y="0" type="line"/>
      <point x="122" y="680" type="line"/>
      <point x="100" y="680" type="line"/>
    </contour>
    <contour>
      <point x="111" y="0" type="line"/>
      <point x="320" y="0" type="line" smooth="yes"/>
      <point x="548" y="0"/>
      <point x="646" y="146"/>
      <point x="646" y="340" type="curve" smooth="yes"/>
      <point x="646" y="534"/>
      <point x="548" y="680"/>
      <point x="320" y="680" type="curve" smooth="yes"/>
      <point x="111" y="680" type="line"/>
      <point x="111" y="660" type="line"/>
      <point x="320" y="660" type="line" smooth="yes"/>
      <point x="541" y="660"/>
      <point x="624" y="523"/>
      <point x="624" y="340" type="curve" smooth="yes"/>
      <point x="624" y="157"/>
      <point x="538" y="20"/>
      <point x="320" y="20" type="curve" smooth="yes"/>
      <point x="111" y="20" type="line"/>
    </contour>
  </outline>
  <guideline angle="90" name="h_1" x="321" y="0"/>
</glyph>
<glyph name="E" format="2">
  <advance width="586"/>
  <unicode hex="0045"/>
  <anchor x="292" y="740" name="top"/>
  <anchor x="292" y="-40" name="bottom"/>
  <anchor x="292" y="0" name="b.cedilla"/>
  <outline>
    <contour>
      <point x="112" y="0" type="line"/>
      <point x="522" y="0" type="line"/>
      <point x="522" y="20" type="line"/>
      <point x="112" y="20" type="line"/>
    </contour>
    <contour>
      <point x="112" y="340" type="line"/>
      <point x="472" y="340" type="line"/>
      <point x="472" y="360" type="line"/>
      <point x="112" y="360" type="line"/>
    </contour>
    <contour>
      <point x="112" y="660" type="line"/>
      <point x="522" y="660" type="line"/>
      <point x="522" y="680" type="line"/>
      <point x="112" y="680" type="line"/>
    </contour>
    <contour>
      <point x="100" y="0" type="line"/>
      <point x="122" y="0" type="line"/>
      <point x="122" y="680" type="line"/>
      <point x="100" y="680" type="line"/>
    </contour>
  </outline>
  <guideline angle="90" name="h_1" x="292" y="0"/>
</glyph>
<glyph name="F" format="2">
  <advance width="611"/>
  <unicode hex="0046"/>
  <anchor x="292" y="740" name="top"/>
  <anchor x="292" y="-40" name="bottom"/>
  <outline>
    <contour>
      <point x="100" y="0" type="line"/>
      <point x="122" y="0" type="line"/>
      <point x="122" y="680" type="line"/>
      <point x="100" y="680" type="line"/>
    </contour>
    <contour>
      <point x="111" y="660" type="line"/>
      <point x="547" y="660" type="line"/>
      <point x="547" y="680" type="line"/>
      <point x="111" y="680" type="line"/>
    </contour>
    <contour>
      <point x="111" y="340" type="line"/>
      <point x="497" y="340" type="line"/>
      <point x="497" y="360" type="line"/>
      <point x="111" y="360" type="line"/>
    </contour>
  </outline>
  <guideline angle="90" name="h_1" x="292" y="0"/>
</glyph>
<glyph name="G" format="2">
  <advance width="849"/>
  <unicode hex="0047"/>
  <anchor x="417" y="740" name="top"/>
  <anchor x="417" y="-40" name="bottom"/>
  <outline>
    <contour>
      <point x="80" y="340" type="curve" smooth="yes"/>
      <point x="80" y="121"/>
      <point x="226" y="-8"/>
      <point x="426" y="-8" type="curve" smooth="yes"/>
      <point x="554" y="-8"/>
      <point x="681" y="48"/>
      <point x="726" y="138" type="curve"/>
      <point x="738" y="0" type="line"/>
      <point x="746" y="0" type="line"/>
      <point x="746" y="300" type="line"/>
      <point x="477" y="300" type="line"/>
      <point x="477" y="280" type="line"/>
      <point x="726" y="280" type="line"/>
      <point x="726" y="175" type="line" smooth="yes"/>
      <point x="726" y="94"/>
      <point x="574" y="12"/>
      <point x="426" y="12" type="curve" smooth="yes"/>
      <point x="221" y="12"/>
      <point x="102" y="131"/>
      <point x="102" y="340" type="curve" smooth="yes"/>
      <point x="102" y="549"/>
      <point x="221" y="668"/>
      <point x="426" y="668" type="curve" smooth="yes"/>
      <point x="584" y="668"/>
      <point x="706" y="587"/>
      <point x="745" y="452" type="curve"/>
      <point x="763" y="452" type="line"/>
      <point x="723" y="604"/>
      <point x="581" y="688"/>
      <point x="426" y="688" type="curve" smooth="yes"/>
      <point x="226" y="688"/>
      <point x="80" y="559"/>
    </contour>
  </outline>
  <guideline angle="90" name="h_1" x="417" y="0"/>
</glyph>
<glyph name="H" format="2">
  <advance width="771"/>
  <unicode hex="0048"/>
  <anchor x="385" y="740" name="top"/>
  <anchor x="385" y="-40" name="bottom"/>
  <anchor x="654" y="0" name="b.cedilla"/>
  <outline>
    <contour>
      <point x="100" y="0" type="line"/>
      <point x="122" y="0" type="line"/>
      <point x="122" y="680" type="line"/>
      <point x="100" y="680" type="line"/>
    </contour>
    <contour>
      <point x="112" y="337" type="line"/>
      <point x="659" y="337" type="line"/>
      <point x="659" y="357" type="line"/>
      <point x="112" y="357" type="line"/>
    </contour>
    <contour>
      <point x="649" y="0" type="line"/>
      <point x="671" y="0" type="line"/>
      <point x="671" y="680" type="line"/>
      <point x="649" y="680" type="line"/>
    </contour>
  </outline>
  <guideline angle="90" name="h_1" x="385" y="0"/>
</glyph>
<glyph name="J" format="2">
  <advance width="270"/>
  <unicode hex="004A"/>
  <anchor x="183" y="740" name="top"/>
  <outline>
    <contour>
      <point x="50" y="0" type="line"/>
      <point x="74" y="0" type="line" smooth="yes"/>
      <point x="140" y="0"/>
      <point x="170" y="39"/>
      <point x="170" y="127" type="curve" smooth="yes"/>
      <point x="170" y="680" type="line"/>
      <point x="148" y="680" type="line"/>
      <point x="148" y="113" type="line" smooth="yes"/>
      <point x="148" y="55"/>
      <point x="121" y="20"/>
      <point x="76" y="20" type="curve" smooth="yes"/>
      <point x="50" y="20" type="line"/>
    </contour>
  </outline>
</glyph>
<glyph name="K" format="2">
  <advance width="568"/>
  <unicode hex="004B"/>
  <anchor x="311" y="-40" name="bottom"/>
  <anchor x="281" y="740" name="top"/>
  <outline>
    <contour>
      <point x="100" y="0" type="line"/>
      <point x="122" y="0" type="line"/>
      <point x="122" y="680" type="line"/>
      <point x="100" y="680" type="line"/>
    </contour>
    <contour>
      <point x="120" y="266" type="line"/>
      <point x="527" y="680" type="line"/>
      <point x="497" y="680" type="line"/>
      <point x="120" y="297" type="line"/>
    </contour>
    <contour>
      <point x="205" y="372" type="line"/>
      <point x="530" y="0" type="line"/>
      <point x="558" y="0" type="line"/>
      <point x="222" y="389" type="line"/>
    </contour>
  </outline>
  <guideline angle="233.098" x="524" y="680"/>
  <guideline angle="0" x="0" y="350"/>
  <guideline angle="45.4488" x="140" y="306"/>
  <guideline angle="310.601" x="256" y="350"/>
  <guideline angle="130.721" x="526" y="0"/>
  <guideline angle="90" name="h_1" x="281" y="0"/>
</glyph>
<glyph name="M" format="2">
  <advance width="878"/>
  <unicode hex="004D"/>
  <anchor x="440" y="740" name="top"/>
  <anchor x="440" y="-40" name="bottom"/>
  <outline>
    <contour>
      <point x="100" y="0" type="line"/>
      <point x="122" y="0" type="line"/>
      <point x="122" y="680" type="line"/>
      <point x="100" y="680" type="line"/>
    </contour>
    <contour>
      <point x="105" y="680" type="line"/>
      <point x="428" y="0" type="line"/>
      <point x="443" y="0" type="line"/>
      <point x="443" y="11"/>
      <point x="432" y="51"/>
      <point x="417" y="80" type="curve"/>
      <point x="127" y="680" type="line"/>
    </contour>
    <contour>
      <point x="436" y="0" type="curve"/>
      <point x="451" y="0" type="line"/>
      <point x="775" y="680" type="line"/>
      <point x="752" y="680" type="line"/>
      <point x="462" y="80" type="line"/>
      <point x="447" y="51"/>
      <point x="436" y="11"/>
    </contour>
    <contour>
      <point x="756" y="0" type="line"/>
      <point x="778" y="0" type="line"/>
      <point x="778" y="680" type="line"/>
      <point x="756" y="680" type="line"/>
    </contour>
  </outline>
  <guideline angle="90" x="440" y="0"/>
  <guideline angle="90" name="h_1" x="440" y="0"/>
  <guideline angle="0" x="0" y="335"/>
</glyph>
<glyph name="N" format="2">
  <advance width="735"/>
  <unicode hex="004E"/>
  <anchor x="357" y="740" name="top"/>
  <anchor x="357" y="-40" name="bottom"/>
  <outline>
    <contour>
      <point x="100" y="0" type="line"/>
      <point x="122" y="0" type="line"/>
      <point x="122" y="580" type="line" smooth="yes"/>
      <point x="122" y="601"/>
      <point x="120" y="630"/>
      <point x="115" y="660" type="curve"/>
      <point x="111" y="660" type="line"/>
      <point x="610" y="0" type="line"/>
      <point x="635" y="0" type="line"/>
      <point x="635" y="680" type="line"/>
      <point x="613" y="680" type="line"/>
      <point x="613" y="100" type="line" smooth="yes"/>
      <point x="613" y="79"/>
      <point x="615" y="50"/>
      <point x="620" y="20" type="curve"/>
      <point x="629" y="20" type="line"/>
      <point x="125" y="680" type="line"/>
      <point x="100" y="680" type="line"/>
    </contour>
  </outline>
  <guideline angle="90" x="357" y="0"/>
  <guideline angle="306.036" x="136" y="680"/>
  <guideline angle="306.036" x="103" y="680"/>
</glyph>
<glyph name="P" format="2">
  <advance width="696"/>
  <unicode hex="0050"/>
  <anchor x="325" y="-40" name="bottom"/>
  <anchor x="325" y="740" name="top"/>
  <outline>
    <contour>
      <point x="100" y="0" type="line"/>
      <point x="122" y="0" type="line"/>
      <point x="122" y="680" type="line"/>
      <point x="100" y="680" type="line"/>
    </contour>
    <contour>
      <point x="112" y="280" type="line"/>
      <point x="416" y="280" type="line" smooth="yes"/>
      <point x="536" y="280"/>
      <point x="616" y="363"/>
      <point x="616" y="487" type="curve" smooth="yes"/>
      <point x="616" y="603"/>
      <point x="536" y="680"/>
      <point x="416" y="680" type="curve" smooth="yes"/>
      <point x="112" y="680" type="line"/>
      <point x="112" y="660" type="line"/>
      <point x="413" y="660" type="line" smooth="yes"/>
      <point x="522" y="660"/>
      <point x="594" y="591"/>
      <point x="594" y="487" type="curve" smooth="yes"/>
      <point x="594" y="375"/>
      <point x="522" y="300"/>
      <point x="413" y="300" type="curve" smooth="yes"/>
      <point x="112" y="300" type="line"/>
    </contour>
  </outline>
  <guideline angle="90" name="h_1" x="325" y="0"/>
</glyph>
<glyph name="Q" format="2">
  <advance width="852"/>
  <unicode hex="0051"/>
  <outline>
    <contour>
      <point x="80" y="340" type="curve" smooth="yes"/>
      <point x="80" y="121"/>
      <point x="226" y="-8"/>
      <point x="426" y="-8" type="curve" smooth="yes"/>
      <point x="626" y="-8"/>
      <point x="772" y="121"/>
      <point x="772" y="340" type="curve" smooth="yes"/>
      <point x="772" y="559"/>
      <point x="626" y="688"/>
      <point x="426" y="688" type="curve" smooth="yes"/>
      <point x="226" y="688"/>
      <point x="80" y="559"/>
    </contour>
    <contour>
      <point x="102" y="340" type="curve" smooth="yes"/>
      <point x="102" y="549"/>
      <point x="221" y="668"/>
      <point x="426" y="668" type="curve" smooth="yes"/>
      <point x="631" y="668"/>
      <point x="750" y="549"/>
      <point x="750" y="340" type="curve" smooth="yes"/>
      <point x="750" y="131"/>
      <point x="631" y="12"/>
      <point x="426" y="12" type="curve" smooth="yes"/>
      <point x="221" y="12"/>
      <point x="102" y="131"/>
    </contour>
    <contour>
      <point x="550" y="13" type="line"/>
      <point x="650" y="-67" type="line"/>
      <point x="656" y="-61" type="line"/>
      <point x="559" y="17" type="line"/>
    </contour>
    <contour>
      <point x="495" y="57" type="line"/>
      <point x="541" y="20" type="line"/>
      <point x="550" y="24" type="line"/>
      <point x="501" y="63" type="line"/>
    </contour>
  </outline>
  <guideline angle="141.34" x="664" y="-59"/>
  <guideline angle="321.34" x="528" y="23"/>
  <guideline angle="90" x="427" y="0"/>
</glyph>
<glyph name="S" format="2">
  <advance width="763"/>
  <unicode hex="0053"/>
  <anchor x="387" y="740" name="top"/>
  <anchor x="387" y="-40" name="bottom"/>
  <anchor x="406" y="0" name="b.cedilla"/>
  <outline>
    <contour>
      <point x="80" y="193" type="line"/>
      <point x="80" y="69"/>
      <point x="222" y="-8"/>
      <point x="406" y="-8" type="curve" smooth="yes"/>
      <point x="580" y="-8"/>
      <point x="683" y="61"/>
      <point x="683" y="174" type="curve" smooth="yes"/>
      <point x="683" y="256"/>
      <point x="633" y="309"/>
      <point x="528" y="332" type="curve" smooth="yes"/>
      <point x="290" y="385" type="line" smooth="yes"/>
      <point x="193" y="407"/>
      <point x="153" y="461"/>
      <point x="153" y="529" type="curve" smooth="yes"/>
      <point x="153" y="614"/>
      <point x="225" y="668"/>
      <point x="368" y="668" type="curve" smooth="yes"/>
      <point x="527" y="668"/>
      <point x="651" y="608"/>
      <point x="663" y="501" type="curve"/>
      <point x="681" y="501" type="line"/>
      <point x="681" y="606"/>
      <point x="553" y="688"/>
      <point x="387" y="688" type="curve" smooth="yes"/>
      <point x="232" y="688"/>
      <point x="133" y="626"/>
      <point x="133" y="529" type="curve" smooth="yes"/>
      <point x="133" y="453"/>
      <point x="190" y="391"/>
      <point x="277" y="371" type="curve" smooth="yes"/>
      <point x="507" y="319" type="line" smooth="yes"/>
      <point x="626" y="293"/>
      <point x="663" y="247"/>
      <point x="663" y="177" type="curve" smooth="yes"/>
      <point x="663" y="78"/>
      <point x="572" y="12"/>
      <point x="402" y="12" type="curve" smooth="yes"/>
      <point x="254" y="12"/>
      <point x="115" y="68"/>
      <point x="98" y="193" type="curve"/>
    </contour>
  </outline>
  <guideline angle="90" name="h_1" x="387" y="0"/>
</glyph>
<glyph name="U" format="2">
  <advance width="732"/>
  <unicode hex="0055"/>
  <anchor x="366" y="740" name="top"/>
  <anchor x="366" y="-40" name="bottom"/>
  <anchor x="366" y="10" name="b.ogonek"/>
  <anchor x="366" y="740" name="t.ring"/>
  <outline>
    <contour>
      <point x="80" y="250" type="line" smooth="yes"/>
      <point x="80" y="88"/>
      <point x="187" y="-8"/>
      <point x="366" y="-8" type="curve" smooth="yes"/>
      <point x="545" y="-8"/>
      <point x="652" y="88"/>
      <point x="652" y="250" type="curve" smooth="yes"/>
      <point x="652" y="680" type="line"/>
      <point x="630" y="680" type="line"/>
      <point x="630" y="230" type="line" smooth="yes"/>
      <point x="630" y="100"/>
      <point x="524" y="12"/>
      <point x="366" y="12" type="curve" smooth="yes"/>
      <point x="208" y="12"/>
      <point x="102" y="100"/>
      <point x="102" y="230" type="curve" smooth="yes"/>
      <point x="102" y="680" type="line"/>
      <point x="80" y="680" type="line"/>
    </contour>
  </outline>
  <guideline angle="90" name="h_1" x="366" y="0"/>
</glyph>
<glyph name="V" format="2">
  <advance width="570"/>
  <unicode hex="0056"/>
  <anchor x="285" y="-40" name="bottom"/>
  <anchor x="285" y="740" name="top"/>
  <outline>
    <contour>
      <point x="11" y="680" type="line"/>
      <point x="274" y="0" type="line"/>
      <point x="296" y="0" type="line"/>
      <point x="559" y="680" type="line"/>
      <point x="535" y="680" type="line"/>
      <point x="303" y="80" type="line" smooth="yes"/>
      <point x="297" y="65"/>
      <point x="289" y="47"/>
      <point x="286" y="32" type="curve"/>
      <point x="289" y="34" type="line"/>
      <point x="281" y="34" type="line"/>
      <point x="284" y="32" type="line"/>
      <point x="281" y="47"/>
      <point x="273" y="65"/>
      <point x="267" y="80" type="curve" smooth="yes"/>
      <point x="35" y="680" type="line"/>
    </contour>
  </outline>
  <guideline angle="90" name="h_1" x="285" y="0"/>
  <guideline angle="0" x="0" y="335"/>
</glyph>
<glyph name="W" format="2">
  <advance width="1092"/>
  <unicode hex="0057"/>
  <anchor x="546" y="740" name="top"/>
  <anchor x="546" y="-40" name="bottom"/>
  <outline>
    <contour>
      <point x="10" y="680" type="line"/>
      <point x="273" y="0" type="line"/>
      <point x="294" y="0" type="line"/>
      <point x="294" y="5"/>
      <point x="278" y="50"/>
      <point x="266" y="80" type="curve" smooth="yes"/>
      <point x="34" y="680" type="line"/>
    </contour>
    <contour>
      <point x="274" y="0" type="curve"/>
      <point x="295" y="0" type="line"/>
      <point x="558" y="680" type="line"/>
      <point x="534" y="680" type="line"/>
      <point x="302" y="80" type="line" smooth="yes"/>
      <point x="290" y="50"/>
      <point x="274" y="5"/>
    </contour>
    <contour>
      <point x="534" y="680" type="line"/>
      <point x="797" y="0" type="line"/>
      <point x="818" y="0" type="line"/>
      <point x="818" y="5"/>
      <point x="802" y="50"/>
      <point x="790" y="80" type="curve" smooth="yes"/>
      <point x="558" y="680" type="line"/>
    </contour>
    <contour>
      <point x="798" y="0" type="curve"/>
      <point x="819" y="0" type="line"/>
      <point x="1082" y="680" type="line"/>
      <point x="1058" y="680" type="line"/>
      <point x="826" y="80" type="line" smooth="yes"/>
      <point x="814" y="50"/>
      <point x="798" y="5"/>
    </contour>
  </outline>
  <guideline angle="90" name="h_1" x="546" y="0"/>
</glyph>
<glyph name="X" format="2">
  <advance width="606"/>
  <unicode hex="0058"/>
  <anchor x="303" y="740" name="top"/>
  <anchor x="303" y="-40" name="bottom"/>
  <outline>
    <contour>
      <point x="50" y="680" type="line"/>
      <point x="293" y="348" type="line"/>
      <point x="304" y="336" type="line"/>
      <point x="549" y="0" type="line"/>
      <point x="576" y="0" type="line"/>
      <point x="317" y="356" type="line"/>
      <point x="305" y="369" type="line"/>
      <point x="77" y="680" type="line"/>
    </contour>
    <contour>
      <point x="30" y="0" type="line"/>
      <point x="57" y="0" type="line"/>
      <point x="311" y="340" type="line"/>
      <point x="298" y="359" type="line"/>
    </contour>
    <contour>
      <point x="299" y="365" type="line"/>
      <point x="313" y="347" type="line"/>
      <point x="556" y="680" type="line"/>
      <point x="529" y="680" type="line"/>
    </contour>
  </outline>
  <guideline angle="126.046" x="562" y="0"/>
  <guideline angle="53.8553" x="323" y="361"/>
  <guideline angle="233.842" x="529" y="680"/>
  <guideline angle="306.185" x="50" y="680"/>
  <guideline angle="126.238" x="302" y="373"/>
  <guideline angle="90" name="h_1" x="303" y="0"/>
</glyph>
<glyph name="Y" format="2">
  <advance width="716"/>
  <unicode hex="0059"/>
  <anchor x="358" y="740" name="top"/>
  <anchor x="356" y="-40" name="bottom"/>
  <outline>
    <contour>
      <point x="367" y="0" type="line"/>
      <point x="367" y="310" type="line"/>
      <point x="626" y="680" type="line"/>
      <point x="601" y="680" type="line"/>
      <point x="352" y="324" type="line"/>
      <point x="359" y="324" type="line"/>
      <point x="116" y="680" type="line"/>
      <point x="90" y="680" type="line"/>
      <point x="345" y="309" type="line"/>
      <point x="345" y="0" type="line"/>
    </contour>
  </outline>
  <guideline angle="90" x="356" y="0"/>
  <guideline angle="0" x="0" y="680"/>
  <guideline angle="235.052" x="601" y="680"/>
  <guideline angle="0" x="0" y="324"/>
</glyph>
<glyph name="Z" format="2">
  <advance width="611"/>
  <unicode hex="005A"/>
  <anchor x="270" y="740" name="top"/>
  <anchor x="270" y="-40" name="bottom"/>
  <outline>
    <contour>
      <point x="11" y="0" type="line"/>
      <point x="522" y="0" type="line"/>
      <point x="522" y="20" type="line"/>
      <point x="23" y="20" type="line"/>
      <point x="23" y="8" type="line"/>
      <point x="515" y="647" type="line"/>
      <point x="515" y="680" type="line"/>
      <point x="25" y="680" type="line"/>
      <point x="25" y="660" type="line"/>
      <point x="507" y="660" type="line"/>
      <point x="502" y="669" type="line"/>
      <point x="11" y="31" type="line"/>
    </contour>
  </outline>
  <guideline angle="52.4445" x="49" y="80"/>
  <guideline angle="52.4445" x="79" y="80"/>
  <guideline angle="90" name="h_1" x="270" y="0"/>
</glyph>
<glyph name="backslash" format="2">
  <advance width="558"/>
  <unicode hex="005C"/>
  <outline>
    <contour>
      <point x="57" y="700" type="line"/>
      <point x="464" y="0" type="line"/>
      <point x="484" y="0" type="line"/>
      <point x="77" y="700" type="line"/>
    </contour>
  </outline>
</glyph>
<glyph name="underscore" format="2">
  <advance width="545"/>
  <unicode hex="005F"/>
  <outline>
    <contour>
      <point x="20" y="-68" type="line"/>
      <point x="525" y="-68" type="line"/>
      <point x="525" y="-46" type="line"/>
      <point x="20" y="-46" type="line"/>
    </contour>
  </outline>
</glyph>
<glyph name="a" format="2">
  <advance width="603"/>
  <unicode hex="0061"/>
  <anchor x="297" y="540" name="top"/>
  <anchor x="297" y="-50" name="bottom"/>
  <anchor x="297" y="540" name="t.ring"/>
  <anchor x="513" y="-0" name="b.ogonek"/>
  <outline>
    <contour>
      <point x="91" y="330" type="curve"/>
      <point x="111" y="330" type="line"/>
      <point x="121" y="400"/>
      <point x="206" y="450"/>
      <point x="313" y="450" type="curve" smooth="yes"/>
      <point x="420" y="450"/>
      <point x="493" y="400"/>
      <point x="493" y="326" type="curve" smooth="yes"/>
      <point x="493" y="84" type="line"/>
      <point x="496" y="80" type="line"/>
      <point x="499" y="0" type="line"/>
      <point x="513" y="0" type="line"/>
      <point x="513" y="327" type="line" smooth="yes"/>
      <point x="513" y="413"/>
      <point x="435" y="468"/>
      <point x="315" y="468" type="curve" smooth="yes"/>
      <point x="197" y="468"/>
      <point x="102" y="410"/>
    </contour>
    <contour>
      <point x="60" y="123" type="curve" smooth="yes"/>
      <point x="60" y="39"/>
      <point x="123" y="-8"/>
      <point x="234" y="-8" type="curve" smooth="yes"/>
      <point x="319" y="-8"/>
      <point x="396" y="19"/>
      <point x="493" y="80" type="curve"/>
      <point x="498" y="80" type="line"/>
      <point x="498" y="102" type="line"/>
      <point x="397" y="33"/>
      <point x="322" y="10"/>
      <point x="229" y="10" type="curve" smooth="yes"/>
      <point x="138" y="10"/>
      <point x="80" y="53"/>
      <point x="80" y="121" type="curve" smooth="yes"/>
      <point x="80" y="205"/>
      <point x="159" y="266"/>
      <point x="274" y="272" type="curve" smooth="yes"/>
      <point x="496" y="283" type="line"/>
      <point x="496" y="299" type="line"/>
      <point x="275" y="288" type="line" smooth="yes"/>
      <point x="146" y="282"/>
      <point x="60" y="216"/>
    </contour>
  </outline>
  <guideline angle="90" name="h_1" x="297" y="0"/>
</glyph>
<glyph name="b" format="2">
  <advance width="640"/>
  <unicode hex="0062"/>
  <anchor x="334" y="740" name="top"/>
  <anchor x="334" y="-40" name="bottom"/>
  <outline>
    <contour>
      <point x="90" y="0" type="line"/>
      <point x="100" y="0" type="line"/>
      <point x="108" y="120" type="line"/>
      <point x="108" y="343" type="line"/>
      <point x="109" y="349"/>
      <point x="110" y="356"/>
      <point x="110" y="363" type="curve" smooth="yes"/>
      <point x="110" y="702" type="line"/>
      <point x="90" y="702" type="line"/>
    </contour>
    <contour>
      <point x="100" y="120" type="line"/>
      <point x="110" y="120" type="line"/>
      <point x="143" y="43"/>
      <point x="241" y="-8"/>
      <point x="334" y="-8" type="curve" smooth="yes"/>
      <point x="479" y="-8"/>
      <point x="580" y="89"/>
      <point x="580" y="235" type="curve" smooth="yes"/>
      <point x="580" y="375"/>
      <point x="477" y="468"/>
      <point x="334" y="468" type="curve" smooth="yes"/>
      <point x="242" y="468"/>
      <point x="155" y="427"/>
      <point x="110" y="343" type="curve"/>
      <point x="100" y="343" type="line"/>
    </contour>
    <contour>
      <point x="108" y="215" type="curve" smooth="yes"/>
      <point x="108" y="245" type="line" smooth="yes"/>
      <point x="108" y="367"/>
      <point x="196" y="450"/>
      <point x="334" y="450" type="curve" smooth="yes"/>
      <point x="475" y="450"/>
      <point x="560" y="364"/>
      <point x="560" y="235" type="curve" smooth="yes"/>
      <point x="560" y="99"/>
      <point x="476" y="10"/>
      <point x="334" y="10" type="curve" smooth="yes"/>
      <point x="196" y="10"/>
      <point x="108" y="93"/>
    </contour>
  </outline>
  <guideline angle="90" x="-755" y="0"/>
  <guideline angle="90" x="-777" y="0"/>
  <guideline angle="90" x="-752" y="0"/>
  <guideline angle="0" x="0" y="330"/>
  <guideline angle="90" x="-532" y="0"/>
  <guideline angle="0" x="0" y="230"/>
  <guideline angle="90" name="h_1" x="334" y="0"/>
</glyph>
<glyph name="c" format="2">
  <advance width="622"/>
  <unicode hex="0063"/>
  <anchor x="312" y="530" name="top"/>
  <anchor x="312" y="-40" name="bottom"/>
  <anchor x="304" y="0" name="b.cedilla"/>
  <outline>
    <contour>
      <point x="60" y="230" type="curve" smooth="yes"/>
      <point x="60" y="88"/>
      <point x="162" y="-8"/>
      <point x="312" y="-8" type="curve" smooth="yes"/>
      <point x="435" y="-8"/>
      <point x="526" y="50"/>
      <point x="562" y="152" type="curve"/>
      <point x="542" y="152" type="line"/>
      <point x="505" y="63"/>
      <point x="421" y="10"/>
      <point x="315" y="10" type="curve" smooth="yes"/>
      <point x="173" y="10"/>
      <point x="80" y="98"/>
      <point x="80" y="230" type="curve" smooth="yes"/>
      <point x="80" y="364"/>
      <point x="169" y="450"/>
      <point x="312" y="450" type="curve" smooth="yes"/>
      <point x="428" y="450"/>
      <point x="515" y="400"/>
      <point x="541" y="318" type="curve"/>
      <point x="561" y="318" type="line"/>
      <point x="529" y="416"/>
      <point x="443" y="468"/>
      <point x="312" y="468" type="curve" smooth="yes"/>
      <point x="160" y="468"/>
      <point x="60" y="373"/>
    </contour>
  </outline>
  <guideline angle="90" name="h_1" x="312" y="0"/>
</glyph>
<glyph name="d" format="2">
  <advance width="640"/>
  <unicode hex="0064"/>
  <anchor x="306" y="740" name="top"/>
  <anchor x="306" y="-50" name="bottom"/>
  <anchor x="300" y="0" name="b.cedilla"/>
  <anchor x="640" y="700" name="t.quoteright"/>
  <outline>
    <contour>
      <point x="60" y="235" type="curve" smooth="yes"/>
      <point x="60" y="375"/>
      <point x="163" y="468"/>
      <point x="306" y="468" type="curve" smooth="yes"/>
      <point x="398" y="468"/>
      <point x="485" y="427"/>
      <point x="530" y="343" type="curve"/>
      <point x="539" y="343" type="line"/>
      <point x="539" y="120" type="line"/>
      <point x="530" y="120" type="line"/>
      <point x="497" y="43"/>
      <point x="399" y="-8"/>
      <point x="306" y="-8" type="curve" smooth="yes"/>
      <point x="161" y="-8"/>
      <point x="60" y="89"/>
    </contour>
    <contour>
      <point x="80" y="235" type="curve" smooth="yes"/>
      <point x="80" y="99"/>
      <point x="164" y="10"/>
      <point x="306" y="10" type="curve" smooth="yes"/>
      <point x="444" y="10"/>
      <point x="532" y="93"/>
      <point x="532" y="215" type="curve" smooth="yes"/>
      <point x="532" y="245" type="line" smooth="yes"/>
      <point x="532" y="367"/>
      <point x="444" y="450"/>
      <point x="306" y="450" type="curve" smooth="yes"/>
      <point x="165" y="450"/>
      <point x="80" y="364"/>
    </contour>
    <contour>
      <point x="532" y="120" type="line"/>
      <point x="532" y="341" type="line"/>
      <point x="531" y="347"/>
      <point x="530" y="354"/>
      <point x="530" y="361" type="curve" smooth="yes"/>
      <point x="530" y="700" type="line"/>
      <point x="550" y="700" type="line"/>
      <point x="550" y="0" type="line"/>
      <point x="540" y="0" type="line"/>
    </contour>
  </outline>
  <guideline angle="90" name="h_1" x="306" y="0"/>
</glyph>
<glyph name="e" format="2">
  <advance width="622"/>
  <unicode hex="0065"/>
  <anchor x="312" y="530" name="top"/>
  <anchor x="312" y="-40" name="bottom"/>
  <anchor x="380" y="-0" name="b.ogonek"/>
  <anchor x="305" y="0" name="b.cedilla"/>
  <outline>
    <contour>
      <point x="60" y="240" type="curve" smooth="yes"/>
      <point x="60" y="87"/>
      <point x="156" y="-8"/>
      <point x="311" y="-8" type="curve" smooth="yes"/>
      <point x="427" y="-8"/>
      <point x="510" y="44"/>
      <point x="550" y="142" type="curve"/>
      <point x="530" y="142" type="line"/>
      <point x="492" y="59"/>
      <point x="420" y="10"/>
      <point x="312" y="10" type="curve" smooth="yes"/>
      <point x="166" y="10"/>
      <point x="80" y="96"/>
      <point x="80" y="242" type="curve" smooth="yes"/>
      <point x="80" y="371"/>
      <point x="178" y="450"/>
      <point x="312" y="450" type="curve" smooth="yes"/>
      <point x="447" y="450"/>
      <point x="542" y="362"/>
      <point x="542" y="252" type="curve"/>
      <point x="70" y="252" type="line"/>
      <point x="70" y="234" type="line"/>
      <point x="562" y="234" type="line"/>
      <point x="562" y="244" type="line" smooth="yes"/>
      <point x="562" y="370"/>
      <point x="460" y="468"/>
      <point x="312" y="468" type="curve" smooth="yes"/>
      <point x="168" y="468"/>
      <point x="60" y="379"/>
    </contour>
  </outline>
  <guideline angle="90" name="h_1" x="312" y="0"/>
</glyph>
<glyph name="f" format="2">
  <advance width="308"/>
  <unicode hex="0066"/>
  <anchor x="240" y="-40" name="bottom"/>
  <anchor x="165" y="740" name="top"/>
  <outline>
    <contour>
      <point x="128" y="0" type="line"/>
      <point x="148" y="0" type="line"/>
      <point x="148" y="564" type="line" smooth="yes"/>
      <point x="148" y="644"/>
      <point x="173" y="682"/>
      <point x="242" y="682" type="curve" smooth="yes"/>
      <point x="264" y="682" type="line"/>
      <point x="264" y="700" type="line"/>
      <point x="238" y="700" type="line" smooth="yes"/>
      <point x="174" y="700"/>
      <point x="128" y="652"/>
      <point x="128" y="570" type="curve" smooth="yes"/>
    </contour>
    <contour>
      <point x="43" y="442" type="line"/>
      <point x="244" y="442" type="line"/>
      <point x="244" y="460" type="line"/>
      <point x="43" y="460" type="line"/>
    </contour>
  </outline>
  <guideline angle="90" name="h_1" x="165" y="0"/>
</glyph>
<glyph name="g" format="2">
  <advance width="640"/>
  <unicode hex="0067"/>
  <anchor x="312" y="530" name="top"/>
  <outline>
    <contour>
      <point x="89" y="-76" type="line"/>
      <point x="102" y="-128"/>
      <point x="174" y="-200"/>
      <point x="295" y="-200" type="curve" smooth="yes"/>
      <point x="437" y="-200"/>
      <point x="550" y="-139"/>
      <point x="550" y="-7" type="curve" smooth="yes"/>
      <point x="550" y="0" type="line"/>
      <point x="530" y="0" type="line"/>
      <point x="530" y="-7" type="line" smooth="yes"/>
      <point x="530" y="-126"/>
      <point x="435" y="-182"/>
      <point x="295" y="-182" type="curve" smooth="yes"/>
      <point x="182" y="-182"/>
      <point x="120" y="-126"/>
      <point x="107" y="-76" type="curve"/>
    </contour>
    <contour>
      <point x="60" y="235" type="curve" smooth="yes"/>
      <point x="60" y="107"/>
      <point x="161" y="10"/>
      <point x="306" y="10" type="curve" smooth="yes"/>
      <point x="399" y="10"/>
      <point x="497" y="61"/>
      <point x="530" y="138" type="curve"/>
      <point x="539" y="138" type="line"/>
      <point x="539" y="343" type="line"/>
      <point x="530" y="343" type="line"/>
      <point x="485" y="427"/>
      <point x="398" y="468"/>
      <point x="306" y="468" type="curve" smooth="yes"/>
      <point x="163" y="468"/>
      <point x="60" y="375"/>
    </contour>
    <contour>
      <point x="80" y="235" type="curve" smooth="yes"/>
      <point x="80" y="364"/>
      <point x="165" y="450"/>
      <point x="306" y="450" type="curve" smooth="yes"/>
      <point x="444" y="450"/>
      <point x="532" y="367"/>
      <point x="532" y="245" type="curve" smooth="yes"/>
      <point x="532" y="215" type="line" smooth="yes"/>
      <point x="532" y="129"/>
      <point x="444" y="28"/>
      <point x="306" y="28" type="curve" smooth="yes"/>
      <point x="164" y="28"/>
      <point x="80" y="117"/>
    </contour>
    <contour>
      <point x="530" y="0" type="line"/>
      <point x="550" y="0" type="line"/>
      <point x="550" y="460" type="line"/>
      <point x="540" y="460" type="line"/>
      <point x="532" y="343" type="line"/>
      <point x="532" y="138" type="line"/>
      <point x="531" y="131"/>
      <point x="530" y="125"/>
      <point x="530" y="118" type="curve" smooth="yes"/>
    </contour>
  </outline>
  <guideline angle="90" name="h_1" x="312" y="0"/>
</glyph>
<glyph name="h" format="2">
  <advance width="618"/>
  <unicode hex="0068"/>
  <anchor x="334" y="-40" name="bottom"/>
  <anchor x="334" y="740" name="top"/>
  <anchor x="511" y="0" name="b.cedilla"/>
  <outline>
    <contour>
      <point x="90" y="0" type="line"/>
      <point x="110" y="0" type="line"/>
      <point x="110" y="700" type="line"/>
      <point x="90" y="700" type="line"/>
    </contour>
    <contour>
      <point x="98" y="306" type="line"/>
      <point x="110" y="306" type="line"/>
      <point x="110" y="383"/>
      <point x="216" y="450"/>
      <point x="326" y="450" type="curve" smooth="yes"/>
      <point x="428" y="450"/>
      <point x="508" y="394"/>
      <point x="508" y="300" type="curve" smooth="yes"/>
      <point x="508" y="0" type="line"/>
      <point x="528" y="0" type="line"/>
      <point x="528" y="300" type="line" smooth="yes"/>
      <point x="528" y="405"/>
      <point x="440" y="468"/>
      <point x="326" y="468" type="curve" smooth="yes"/>
      <point x="228" y="468"/>
      <point x="131" y="421"/>
      <point x="102" y="350" type="curve"/>
      <point x="114" y="350" type="line"/>
      <point x="114" y="371" type="line"/>
      <point x="98" y="371" type="line"/>
    </contour>
  </outline>
  <guideline angle="90" name="h_1" x="334" y="0"/>
</glyph>
<glyph name="k" format="2">
  <advance width="522"/>
  <unicode hex="006B"/>
  <anchor x="270" y="-40" name="bottom"/>
  <anchor x="266" y="740" name="top"/>
  <outline>
    <contour>
      <point x="90" y="0" type="line"/>
      <point x="110" y="0" type="line"/>
      <point x="110" y="700" type="line"/>
      <point x="90" y="700" type="line"/>
    </contour>
    <contour>
      <point x="106" y="197" type="line"/>
      <point x="470" y="460" type="line"/>
      <point x="436" y="460" type="line"/>
      <point x="95" y="213" type="line"/>
    </contour>
    <contour>
      <point x="174" y="256" type="line"/>
      <point x="462" y="0" type="line"/>
      <point x="492" y="0" type="line"/>
      <point x="196" y="263" type="line"/>
    </contour>
  </outline>
  <guideline angle="90" name="h_1" x="266" y="0"/>
</glyph>
<glyph name="m" format="2">
  <advance width="850"/>
  <unicode hex="006D"/>
  <anchor x="425" y="-40" name="bottom"/>
  <anchor x="425" y="530" name="top"/>
  <outline>
    <contour>
      <point x="424" y="284" type="line"/>
      <point x="431" y="284" type="line"/>
      <point x="439" y="381"/>
      <point x="503" y="450"/>
      <point x="586" y="450" type="curve" smooth="yes"/>
      <point x="674" y="450"/>
      <point x="740" y="399"/>
      <point x="740" y="331" type="curve" smooth="yes"/>
      <point x="740" y="0" type="line"/>
      <point x="760" y="0" type="line"/>
      <point x="760" y="337" type="line" smooth="yes"/>
      <point x="760" y="411"/>
      <point x="684" y="468"/>
      <point x="586" y="468" type="curve" smooth="yes"/>
      <point x="512" y="468"/>
      <point x="441" y="412"/>
      <point x="427" y="344" type="curve"/>
      <point x="442" y="344" type="line"/>
      <point x="442" y="365" type="line"/>
      <point x="424" y="365" type="line"/>
    </contour>
    <contour>
      <point x="101" y="276" type="line"/>
      <point x="106" y="276" type="line"/>
      <point x="106" y="376"/>
      <point x="172" y="450"/>
      <point x="260" y="450" type="curve" smooth="yes"/>
      <point x="354" y="450"/>
      <point x="415" y="398"/>
      <point x="415" y="320" type="curve" smooth="yes"/>
      <point x="415" y="0" type="line"/>
      <point x="435" y="0" type="line"/>
      <point x="435" y="320" type="line" smooth="yes"/>
      <point x="435" y="410"/>
      <point x="366" y="468"/>
      <point x="260" y="468" type="curve" smooth="yes"/>
      <point x="189" y="468"/>
      <point x="127" y="424"/>
      <point x="104" y="357" type="curve"/>
      <point x="109" y="357" type="line"/>
      <point x="109" y="365" type="line"/>
      <point x="101" y="365" type="line"/>
    </contour>
    <contour>
      <point x="90" y="0" type="line"/>
      <point x="110" y="0" type="line"/>
      <point x="110" y="372" type="line"/>
      <point x="107" y="372" type="line"/>
      <point x="104" y="460" type="line"/>
      <point x="90" y="460" type="line"/>
    </contour>
  </outline>
  <guideline angle="90" name="h_1" x="425" y="0"/>
</glyph>
<glyph name="n" format="2">
  <advance width="618"/>
  <unicode hex="006E"/>
  <anchor x="305" y="530" name="top"/>
  <anchor x="305" y="-40" name="bottom"/>
  <outline>
    <contour>
      <point x="90" y="0" type="line"/>
      <point x="110" y="0" type="line"/>
      <point x="110" y="365" type="line"/>
      <point x="107" y="365" type="line"/>
      <point x="104" y="460" type="line"/>
      <point x="90" y="460" type="line"/>
    </contour>
    <contour>
      <point x="98" y="306" type="line"/>
      <point x="110" y="306" type="line"/>
      <point x="110" y="383"/>
      <point x="216" y="450"/>
      <point x="326" y="450" type="curve" smooth="yes"/>
      <point x="428" y="450"/>
      <point x="508" y="394"/>
      <point x="508" y="300" type="curve" smooth="yes"/>
      <point x="508" y="0" type="line"/>
      <point x="528" y="0" type="line"/>
      <point x="528" y="300" type="line" smooth="yes"/>
      <point x="528" y="405"/>
      <point x="440" y="468"/>
      <point x="326" y="468" type="curve" smooth="yes"/>
      <point x="228" y="468"/>
      <point x="131" y="421"/>
      <point x="102" y="350" type="curve"/>
      <point x="114" y="350" type="line"/>
      <point x="114" y="357" type="line"/>
      <point x="98" y="357" type="line"/>
    </contour>
  </outline>
  <guideline angle="90" name="h_1" x="305" y="0"/>
</glyph>
<glyph name="o" format="2">
  <advance width="622"/>
  <unicode hex="006F"/>
  <anchor x="322" y="530" name="top"/>
  <anchor x="311" y="-40" name="bottom"/>
  <anchor x="375" y="0" name="b.ogonek"/>
  <outline>
    <contour>
      <point x="60" y="230" type="curve" smooth="yes"/>
      <point x="60" y="78"/>
      <point x="167" y="-8"/>
      <point x="311" y="-8" type="curve" smooth="yes"/>
      <point x="455" y="-8"/>
      <point x="562" y="77"/>
      <point x="562" y="230" type="curve" smooth="yes"/>
      <point x="562" y="382"/>
      <point x="455" y="468"/>
      <point x="311" y="468" type="curve" smooth="yes"/>
      <point x="167" y="468"/>
      <point x="60" y="383"/>
    </contour>
    <contour>
      <point x="80" y="230" type="curve" smooth="yes"/>
      <point x="80" y="365"/>
      <point x="170" y="450"/>
      <point x="311" y="450" type="curve" smooth="yes"/>
      <point x="454" y="450"/>
      <point x="542" y="363"/>
      <point x="542" y="230" type="curve" smooth="yes"/>
      <point x="542" y="96"/>
      <point x="452" y="10"/>
      <point x="311" y="10" type="curve" smooth="yes"/>
      <point x="168" y="10"/>
      <point x="80" y="97"/>
    </contour>
  </outline>
  <guideline angle="90" x="311" y="0"/>
  <guideline angle="0" x="0" y="230"/>
</glyph>
<glyph name="p" format="2">
  <advance width="640"/>
  <unicode hex="0070"/>
  <anchor x="281" y="-40" name="bottom"/>
  <anchor x="281" y="530" name="top"/>
  <outline>
    <contour>
      <point x="90" y="-200" type="line"/>
      <point x="110" y="-200" type="line"/>
      <point x="110" y="100" type="line"/>
      <point x="107" y="120" type="line"/>
      <point x="107" y="309" type="line"/>
      <point x="97" y="460" type="line"/>
      <point x="90" y="460" type="line"/>
    </contour>
    <contour>
      <point x="100" y="120" type="line"/>
      <point x="110" y="120" type="line"/>
      <point x="143" y="43"/>
      <point x="241" y="-8"/>
      <point x="334" y="-8" type="curve" smooth="yes"/>
      <point x="479" y="-8"/>
      <point x="580" y="89"/>
      <point x="580" y="235" type="curve" smooth="yes"/>
      <point x="580" y="375"/>
      <point x="477" y="468"/>
      <point x="334" y="468" type="curve" smooth="yes"/>
      <point x="242" y="468"/>
      <point x="155" y="427"/>
      <point x="110" y="343" type="curve"/>
      <point x="100" y="343" type="line"/>
    </contour>
    <contour>
      <point x="108" y="215" type="curve" smooth="yes"/>
      <point x="108" y="245" type="line" smooth="yes"/>
      <point x="108" y="367"/>
      <point x="196" y="450"/>
      <point x="334" y="450" type="curve" smooth="yes"/>
      <point x="475" y="450"/>
      <point x="560" y="364"/>
      <point x="560" y="235" type="curve" smooth="yes"/>
      <point x="560" y="99"/>
      <point x="476" y="10"/>
      <point x="334" y="10" type="curve" smooth="yes"/>
      <point x="196" y="10"/>
      <point x="108" y="93"/>
    </contour>
  </outline>
  <guideline angle="90" name="h_1" x="281" y="0"/>
</glyph>
<glyph name="q" format="2">
  <advance width="640"/>
  <unicode hex="0071"/>
  <outline>
    <contour>
      <point x="530" y="-200" type="line"/>
      <point x="550" y="-200" type="line"/>
      <point x="550" y="460" type="line"/>
      <point x="540" y="460" type="line"/>
      <point x="532" y="340" type="line"/>
      <point x="532" y="159" type="line"/>
      <point x="531" y="153"/>
      <point x="530" y="146"/>
      <point x="530" y="139" type="curve" smooth="yes"/>
    </contour>
    <contour>
      <point x="60" y="235" type="curve" smooth="yes"/>
      <point x="60" y="89"/>
      <point x="161" y="-8"/>
      <point x="306" y="-8" type="curve" smooth="yes"/>
      <point x="399" y="-8"/>
      <point x="497" y="43"/>
      <point x="530" y="120" type="curve"/>
      <point x="539" y="120" type="line"/>
      <point x="539" y="343" type="line"/>
      <point x="530" y="343" type="line"/>
      <point x="485" y="427"/>
      <point x="398" y="468"/>
      <point x="306" y="468" type="curve" smooth="yes"/>
      <point x="163" y="468"/>
      <point x="60" y="375"/>
    </contour>
    <contour>
      <point x="80" y="235" type="curve" smooth="yes"/>
      <point x="80" y="364"/>
      <point x="165" y="450"/>
      <point x="306" y="450" type="curve" smooth="yes"/>
      <point x="444" y="450"/>
      <point x="532" y="367"/>
      <point x="532" y="245" type="curve" smooth="yes"/>
      <point x="532" y="215" type="line" smooth="yes"/>
      <point x="532" y="93"/>
      <point x="444" y="10"/>
      <point x="306" y="10" type="curve" smooth="yes"/>
      <point x="164" y="10"/>
      <point x="80" y="99"/>
    </contour>
  </outline>
  <guideline angle="90" x="306" y="0"/>
  <guideline angle="0" x="0" y="231"/>
</glyph>
<glyph name="r" format="2">
  <advance width="416"/>
  <unicode hex="0072"/>
  <anchor x="215" y="-40" name="bottom"/>
  <anchor x="215" y="530" name="top"/>
  <outline>
    <contour>
      <point x="90" y="0" type="line"/>
      <point x="110" y="0" type="line"/>
      <point x="110" y="228" type="line" smooth="yes"/>
      <point x="110" y="351"/>
      <point x="190" y="452"/>
      <point x="286" y="452" type="curve" smooth="yes"/>
      <point x="314" y="452"/>
      <point x="341" y="446"/>
      <point x="360" y="436" type="curve"/>
      <point x="363" y="436" type="line"/>
      <point x="363" y="456" type="line"/>
      <point x="340" y="465"/>
      <point x="312" y="470"/>
      <point x="290" y="470" type="curve" smooth="yes"/>
      <point x="208" y="470"/>
      <point x="134" y="412"/>
      <point x="105" y="307" type="curve"/>
      <point x="110" y="307" type="line"/>
      <point x="105" y="460" type="line"/>
      <point x="90" y="460" type="line"/>
    </contour>
  </outline>
  <guideline angle="90" name="h_1" x="215" y="0"/>
</glyph>
<glyph name="s" format="2">
  <advance width="541"/>
  <unicode hex="0073"/>
  <anchor x="261" y="530" name="top"/>
  <anchor x="261" y="-40" name="bottom"/>
  <anchor x="278" y="0" name="b.cedilla"/>
  <outline>
    <contour>
      <point x="81" y="136" type="line"/>
      <point x="81" y="51"/>
      <point x="153" y="-8"/>
      <point x="273" y="-8" type="curve" smooth="yes"/>
      <point x="382" y="-8"/>
      <point x="448" y="35"/>
      <point x="448" y="110" type="curve" smooth="yes"/>
      <point x="448" y="291"/>
      <point x="101" y="186"/>
      <point x="101" y="343" type="curve" smooth="yes"/>
      <point x="101" y="410"/>
      <point x="151" y="450"/>
      <point x="261" y="450" type="curve" smooth="yes"/>
      <point x="354" y="450"/>
      <point x="416" y="404"/>
      <point x="416" y="336" type="curve"/>
      <point x="436" y="336" type="line"/>
      <point x="436" y="417"/>
      <point x="368" y="468"/>
      <point x="262" y="468" type="curve" smooth="yes"/>
      <point x="152" y="468"/>
      <point x="81" y="421"/>
      <point x="81" y="345" type="curve" smooth="yes"/>
      <point x="81" y="169"/>
      <point x="428" y="268"/>
      <point x="428" y="113" type="curve" smooth="yes"/>
      <point x="428" y="46"/>
      <point x="381" y="10"/>
      <point x="267" y="10" type="curve" smooth="yes"/>
      <point x="152" y="10"/>
      <point x="101" y="61"/>
      <point x="101" y="136" type="curve"/>
    </contour>
  </outline>
  <guideline angle="90" name="h_1" x="261" y="0"/>
</glyph>
<glyph name="t" format="2">
  <advance width="341"/>
  <unicode hex="0074"/>
  <anchor x="231" y="-37" name="bottom"/>
  <anchor x="136" y="660" name="top"/>
  <anchor x="255" y="700" name="t.quoteright"/>
  <outline>
    <contour>
      <point x="37" y="442" type="line"/>
      <point x="288" y="442" type="line"/>
      <point x="288" y="460" type="line"/>
      <point x="123" y="460" type="line"/>
      <point x="37" y="455" type="line"/>
    </contour>
    <contour>
      <point x="121" y="163" type="line" smooth="yes"/>
      <point x="121" y="58"/>
      <point x="185" y="-10"/>
      <point x="280" y="-10" type="curve" smooth="yes"/>
      <point x="314" y="-10" type="line"/>
      <point x="314" y="8" type="line"/>
      <point x="281" y="8" type="line" smooth="yes"/>
      <point x="197" y="8"/>
      <point x="141" y="70"/>
      <point x="141" y="162" type="curve" smooth="yes"/>
      <point x="141" y="609" type="line"/>
      <point x="130" y="609" type="line"/>
      <point x="123" y="459" type="line"/>
      <point x="121" y="456" type="line"/>
    </contour>
  </outline>
  <guideline angle="90" name="h_1" x="153" y="0"/>
</glyph>
<glyph name="u" format="2">
  <advance width="607"/>
  <unicode hex="0075"/>
  <anchor x="304" y="530" name="top"/>
  <anchor x="304" y="-40" name="bottom"/>
  <outline>
    <contour>
      <point x="90" y="145" type="line" smooth="yes"/>
      <point x="90" y="53"/>
      <point x="167" y="-8"/>
      <point x="281" y="-8" type="curve" smooth="yes"/>
      <point x="388" y="-8"/>
      <point x="467" y="49"/>
      <point x="508" y="123" type="curve"/>
      <point x="501" y="123" type="line"/>
      <point x="501" y="119" type="line"/>
      <point x="511" y="119" type="line"/>
      <point x="511" y="168" type="line"/>
      <point x="497" y="168" type="line"/>
      <point x="497" y="90"/>
      <point x="388" y="8"/>
      <point x="283" y="8" type="curve" smooth="yes"/>
      <point x="183" y="8"/>
      <point x="110" y="63"/>
      <point x="110" y="145" type="curve" smooth="yes"/>
      <point x="110" y="460" type="line"/>
      <point x="90" y="460" type="line"/>
    </contour>
    <contour>
      <point x="497" y="107" type="line"/>
      <point x="500" y="107" type="line"/>
      <point x="503" y="0" type="line"/>
      <point x="517" y="0" type="line"/>
      <point x="517" y="460" type="line"/>
      <point x="497" y="460" type="line"/>
    </contour>
  </outline>
  <guideline angle="90" name="h_1" x="304" y="0"/>
</glyph>
<glyph name="v" format="2">
  <advance width="580"/>
  <unicode hex="0076"/>
  <anchor x="290" y="530" name="top"/>
  <anchor x="290" y="-40" name="bottom"/>
  <outline>
    <contour>
      <point x="280" y="0" type="line"/>
      <point x="300" y="0" type="line"/>
      <point x="528" y="460" type="line"/>
      <point x="506" y="460" type="line"/>
      <point x="287" y="20" type="line"/>
      <point x="293" y="20" type="line"/>
      <point x="74" y="460" type="line"/>
      <point x="52" y="460" type="line"/>
    </contour>
  </outline>
  <guideline angle="90" name="h_1" x="290" y="0"/>
</glyph>
<glyph name="w" format="2">
  <advance width="800"/>
  <unicode hex="0077"/>
  <anchor x="400" y="-40" name="bottom"/>
  <anchor x="400" y="530" name="top"/>
  <outline>
    <contour>
      <point x="216" y="0" type="line"/>
      <point x="236" y="0" type="line"/>
      <point x="379" y="375" type="line" smooth="yes"/>
      <point x="387" y="396"/>
      <point x="395" y="420"/>
      <point x="400" y="440" type="curve"/>
      <point x="397" y="438" type="line"/>
      <point x="403" y="438" type="line"/>
      <point x="400" y="440" type="line"/>
      <point x="405" y="420"/>
      <point x="413" y="396"/>
      <point x="421" y="375" type="curve" smooth="yes"/>
      <point x="564" y="0" type="line"/>
      <point x="584" y="0" type="line"/>
      <point x="748" y="460" type="line"/>
      <point x="727" y="460" type="line"/>
      <point x="593" y="81" type="line" smooth="yes"/>
      <point x="586" y="61"/>
      <point x="579" y="39"/>
      <point x="574" y="20" type="curve"/>
      <point x="577" y="22" type="line"/>
      <point x="571" y="22" type="line"/>
      <point x="574" y="20" type="line"/>
      <point x="568" y="39"/>
      <point x="560" y="61"/>
      <point x="553" y="81" type="curve" smooth="yes"/>
      <point x="410" y="460" type="line"/>
      <point x="390" y="460" type="line"/>
      <point x="246" y="81" type="line" smooth="yes"/>
      <point x="238" y="61"/>
      <point x="231" y="39"/>
      <point x="226" y="20" type="curve"/>
      <point x="231" y="22" type="line"/>
      <point x="221" y="22" type="line"/>
      <point x="226" y="20" type="line"/>
      <point x="221" y="39"/>
      <point x="214" y="60"/>
      <point x="207" y="81" type="curve" smooth="yes"/>
      <point x="73" y="460" type="line"/>
      <point x="52" y="460" type="line"/>
    </contour>
  </outline>
  <guideline angle="90" name="h_1" x="400" y="0"/>
  <guideline angle="90" x="226" y="0"/>
  <guideline angle="90" x="574" y="0"/>
  <guideline angle="90" x="52" y="0"/>
  <guideline angle="90" x="748" y="0"/>
  <guideline angle="90" x="216" y="0"/>
  <guideline angle="90" x="236" y="0"/>
  <guideline angle="0" x="0" y="81"/>
  <guideline angle="0" x="0" y="20"/>
  <guideline angle="0" x="0" y="39"/>
  <guideline angle="0" x="0" y="22"/>
  <guideline angle="0" x="0" y="440"/>
  <guideline angle="0" x="0" y="438"/>
  <guideline angle="0" x="0" y="420"/>
</glyph>
<glyph name="x" format="2">
  <advance width="444"/>
  <unicode hex="0078"/>
  <anchor x="223" y="-40" name="bottom"/>
  <anchor x="223" y="530" name="top"/>
  <outline>
    <contour>
      <point x="30" y="0" type="line"/>
      <point x="55" y="0" type="line"/>
      <point x="230" y="226" type="line"/>
      <point x="232" y="231" type="line"/>
      <point x="414" y="463" type="line"/>
      <point x="388" y="463" type="line"/>
      <point x="219" y="246" type="line"/>
      <point x="215" y="237" type="line"/>
    </contour>
    <contour>
      <point x="37" y="460" type="line"/>
      <point x="216" y="228" type="line"/>
      <point x="219" y="222" type="line"/>
      <point x="385" y="0" type="line"/>
      <point x="410" y="0" type="line"/>
      <point x="229" y="242" type="line"/>
      <point x="227" y="246" type="line"/>
      <point x="62" y="460" type="line"/>
    </contour>
  </outline>
  <guideline angle="0" x="0" y="248"/>
  <guideline angle="0" x="0" y="228"/>
  <guideline angle="90" name="h_1" x="223" y="0"/>
</glyph>
<glyph name="y" format="2">
  <advance width="576"/>
  <unicode hex="0079"/>
  <anchor x="288" y="530" name="top"/>
  <anchor x="490" y="-40" name="bottom"/>
  <outline>
    <contour>
      <point x="75" y="-192" type="line"/>
      <point x="101" y="-198"/>
      <point x="130" y="-201"/>
      <point x="154" y="-201" type="curve" smooth="yes"/>
      <point x="218" y="-201"/>
      <point x="263" y="-163"/>
      <point x="297" y="-82" type="curve" smooth="yes"/>
      <point x="524" y="460" type="line"/>
      <point x="502" y="460" type="line"/>
      <point x="271" y="-92" type="line" smooth="yes"/>
      <point x="246" y="-152"/>
      <point x="203" y="-183"/>
      <point x="147" y="-183" type="curve" smooth="yes"/>
      <point x="121" y="-183"/>
      <point x="90" y="-181"/>
      <point x="75" y="-176" type="curve"/>
    </contour>
    <contour>
      <point x="52" y="460" type="line"/>
      <point x="285" y="-77" type="line"/>
      <point x="296" y="-51" type="line"/>
      <point x="74" y="460" type="line"/>
    </contour>
  </outline>
  <guideline angle="90" x="288" y="0"/>
</glyph>
<glyph name="z" format="2">
  <advance width="539"/>
  <unicode hex="007A"/>
  <anchor x="268" y="530" name="top"/>
  <anchor x="268" y="-40" name="bottom"/>
  <outline>
    <contour>
      <point x="74" y="0" type="line"/>
      <point x="464" y="0" type="line"/>
      <point x="464" y="18" type="line"/>
      <point x="87" y="18" type="line"/>
      <point x="88" y="6" type="line"/>
      <point x="464" y="440" type="line"/>
      <point x="464" y="460" type="line"/>
      <point x="74" y="460" type="line"/>
      <point x="74" y="442" type="line"/>
      <point x="453" y="442" type="line"/>
      <point x="450" y="455" type="line"/>
      <point x="74" y="21" type="line"/>
    </contour>
  </outline>
  <guideline angle="90" name="h_1" x="268" y="0"/>
</glyph>
<glyph name="braceleft" format="2">
  <advance width="324"/>
  <unicode hex="007B"/>
  <outline>
    <contour>
      <point x="40" y="339" type="line"/>
      <point x="94" y="325"/>
      <point x="140" y="286"/>
      <point x="140" y="230" type="curve" smooth="yes"/>
      <point x="140" y="79" type="line" smooth="yes"/>
      <point x="140" y="-35"/>
      <point x="194" y="-80"/>
      <point x="284" y="-80" type="curve"/>
      <point x="284" y="-62" type="line"/>
      <point x="200" y="-62"/>
      <point x="160" y="-18"/>
      <point x="160" y="74" type="curve" smooth="yes"/>
      <point x="160" y="234" type="line" smooth="yes"/>
      <point x="160" y="284"/>
      <point x="118" y="330"/>
      <point x="74" y="348" type="curve"/>
      <point x="118" y="370"/>
      <point x="160" y="410"/>
      <point x="160" y="460" type="curve" smooth="yes"/>
      <point x="160" y="626" type="line" smooth="yes"/>
      <point x="160" y="718"/>
      <point x="200" y="762"/>
      <point x="284" y="762" type="curve"/>
      <point x="284" y="780" type="line"/>
      <point x="194" y="780"/>
      <point x="140" y="735"/>
      <point x="140" y="621" type="curve" smooth="yes"/>
      <point x="140" y="468" type="line" smooth="yes"/>
      <point x="140" y="411"/>
      <point x="94" y="373"/>
      <point x="40" y="357" type="curve"/>
    </contour>
  </outline>
</glyph>
<glyph name="bar" format="2">
  <advance width="220"/>
  <unicode hex="007C"/>
  <outline>
    <contour>
      <point x="100" y="-80" type="line"/>
      <point x="120" y="-80" type="line"/>
      <point x="120" y="780" type="line"/>
      <point x="100" y="780" type="line"/>
    </contour>
  </outline>
</glyph>
<glyph name="braceright" format="2">
  <advance width="324"/>
  <unicode hex="007D"/>
  <outline>
    <contour>
      <point x="40" y="-80" type="line"/>
      <point x="130" y="-80"/>
      <point x="184" y="-35"/>
      <point x="184" y="79" type="curve" smooth="yes"/>
      <point x="184" y="230" type="line" smooth="yes"/>
      <point x="184" y="286"/>
      <point x="230" y="325"/>
      <point x="284" y="339" type="curve"/>
      <point x="284" y="357" type="line"/>
      <point x="230" y="373"/>
      <point x="184" y="411"/>
      <point x="184" y="468" type="curve" smooth="yes"/>
      <point x="184" y="621" type="line" smooth="yes"/>
      <point x="184" y="735"/>
      <point x="130" y="780"/>
      <point x="40" y="780" type="curve"/>
      <point x="40" y="762" type="line"/>
      <point x="124" y="762"/>
      <point x="164" y="718"/>
      <point x="164" y="626" type="curve" smooth="yes"/>
      <point x="164" y="460" type="line" smooth="yes"/>
      <point x="164" y="410"/>
      <point x="206" y="370"/>
      <point x="250" y="348" type="curve"/>
      <point x="206" y="330"/>
      <point x="164" y="284"/>
      <point x="164" y="234" type="curve" smooth="yes"/>
      <point x="164" y="74" type="line" smooth="yes"/>
      <point x="164" y="-18"/>
      <point x="124" y="-62"/>
      <point x="40" y="-62" type="curve"/>
    </contour>
  </outline>
</glyph>
<glyph name="cent" format="2">
  <advance width="495"/>
  <unicode hex="00A2"/>
  <outline>
    <contour>
      <point x="35" y="230" type="curve" smooth="yes"/>
      <point x="35" y="85"/>
      <point x="114" y="-8"/>
      <point x="240" y="-8" type="curve"/>
      <point x="240" y="10" type="line"/>
      <point x="126" y="10"/>
      <point x="55" y="97"/>
      <point x="55" y="230" type="curve" smooth="yes"/>
      <point x="55" y="362"/>
      <point x="127" y="450"/>
      <point x="240" y="450" type="curve"/>
      <point x="240" y="468" type="line"/>
      <point x="114" y="468"/>
      <point x="35" y="376"/>
    </contour>
    <contour>
      <point x="112" y="-163" type="line"/>
      <point x="134" y="-170" type="line"/>
      <point x="366" y="631" type="line"/>
      <point x="346" y="637" type="line"/>
    </contour>
    <contour>
      <point x="240" y="-10" type="line"/>
      <point x="368" y="-10"/>
      <point x="421" y="79"/>
      <point x="441" y="150" type="curve"/>
      <point x="421" y="150" type="line"/>
      <point x="391" y="57"/>
      <point x="328" y="8"/>
      <point x="240" y="8" type="curve"/>
    </contour>
    <contour>
      <point x="240" y="452" type="line"/>
      <point x="333" y="452"/>
      <point x="398" y="404"/>
      <point x="420" y="320" type="curve"/>
      <point x="440" y="320" type="line"/>
      <point x="418" y="405"/>
      <point x="359" y="470"/>
      <point x="240" y="470" type="curve"/>
    </contour>
  </outline>
  <guideline angle="163.413" x="393" y="-247"/>
  <guideline angle="163.413" x="393" y="623"/>
</glyph>
<glyph name="sterling" format="2">
  <advance width="495"/>
  <unicode hex="00A3"/>
  <outline>
    <contour>
      <point x="13" y="0" type="line"/>
      <point x="427" y="0" type="line"/>
      <point x="427" y="20" type="line"/>
      <point x="59" y="20" type="line"/>
      <point x="57" y="22" type="line"/>
      <point x="125" y="82"/>
      <point x="166" y="164"/>
      <point x="166" y="239" type="curve" smooth="yes"/>
      <point x="166" y="262"/>
      <point x="162" y="282"/>
      <point x="154" y="304" type="curve" smooth="yes"/>
      <point x="143" y="336" type="line" smooth="yes"/>
      <point x="128" y="380"/>
      <point x="108" y="430"/>
      <point x="108" y="477" type="curve" smooth="yes"/>
      <point x="108" y="575"/>
      <point x="161" y="628"/>
      <point x="258" y="628" type="curve" smooth="yes"/>
      <point x="344" y="628"/>
      <point x="397" y="572"/>
      <point x="406" y="472" type="curve"/>
      <point x="428" y="472" type="line"/>
      <point x="420" y="577"/>
      <point x="366" y="648"/>
      <point x="256" y="648" type="curve" smooth="yes"/>
      <point x="137" y="648"/>
      <point x="86" y="578"/>
      <point x="86" y="477" type="curve" smooth="yes"/>
      <point x="86" y="447"/>
      <point x="92" y="408"/>
      <point x="119" y="334" type="curve" smooth="yes"/>
      <point x="129" y="307" type="line" smooth="yes"/>
      <point x="137" y="284"/>
      <point x="144" y="259"/>
      <point x="144" y="233" type="curve" smooth="yes"/>
      <point x="144" y="144"/>
      <point x="75" y="51"/>
      <point x="13" y="10" type="curve"/>
    </contour>
    <contour>
      <point x="140" y="310" type="line"/>
      <point x="311" y="310" type="line"/>
      <point x="311" y="330" type="line"/>
      <point x="140" y="330" type="line"/>
    </contour>
    <contour>
      <point x="21" y="310" type="line"/>
      <point x="135" y="310" type="line"/>
      <point x="135" y="330" type="line"/>
      <point x="21" y="330" type="line"/>
    </contour>
  </outline>
  <guideline angle="0" x="0" y="472"/>
</glyph>
<glyph name="currency" format="2">
  <advance width="495"/>
  <unicode hex="00A4"/>
  <outline>
    <contour>
      <point x="77" y="315" type="curve" smooth="yes"/>
      <point x="77" y="220"/>
      <point x="152" y="146"/>
      <point x="247" y="146" type="curve" smooth="yes"/>
      <point x="342" y="146"/>
      <point x="417" y="221"/>
      <point x="417" y="315" type="curve" smooth="yes"/>
      <point x="417" y="409"/>
      <point x="340" y="486"/>
      <point x="247" y="486" type="curve" smooth="yes"/>
      <point x="153" y="486"/>
      <point x="77" y="410"/>
    </contour>
    <contour>
      <point x="97" y="316" type="curve" smooth="yes"/>
      <point x="97" y="400"/>
      <point x="163" y="466"/>
      <point x="247" y="466" type="curve" smooth="yes"/>
      <point x="331" y="466"/>
      <point x="397" y="400"/>
      <point x="397" y="316" type="curve" smooth="yes"/>
      <point x="397" y="232"/>
      <point x="331" y="166"/>
      <point x="247" y="166" type="curve" smooth="yes"/>
      <point x="163" y="166"/>
      <point x="97" y="232"/>
    </contour>
    <contour>
      <point x="51" y="500" type="line"/>
      <point x="130" y="420" type="line"/>
      <point x="144" y="434" type="line"/>
      <point x="66" y="515" type="line"/>
    </contour>
    <contour>
      <point x="351" y="434" type="line"/>
      <point x="365" y="420" type="line"/>
      <point x="443" y="497" type="line"/>
      <point x="428" y="512" type="line"/>
    </contour>
    <contour>
      <point x="52" y="136" type="line"/>
      <point x="66" y="122" type="line"/>
      <point x="143" y="198" type="line"/>
      <point x="128" y="213" type="line"/>
    </contour>
    <contour>
      <point x="350" y="197" type="line"/>
      <point x="426" y="120" type="line"/>
      <point x="441" y="135" type="line"/>
      <point x="364" y="211" type="line"/>
    </contour>
  </outline>
  <guideline angle="225" x="153" y="208"/>
  <guideline angle="45" x="34" y="118"/>
  <guideline angle="135" x="85" y="256"/>
  <guideline angle="315" x="102" y="222"/>
  <guideline angle="315" x="410" y="375"/>
  <guideline angle="135" x="389" y="407"/>
  <guideline angle="314.594" x="351" y="225"/>
  <guideline angle="134.594" x="442" y="103"/>
  <guideline angle="225" x="460" y="307"/>
  <guideline angle="45" x="339" y="174"/>
  <guideline angle="45" x="34" y="324"/>
  <guideline angle="225" x="158" y="460"/>
  <guideline angle="90" x="247" y="0"/>
  <guideline angle="0" x="0" y="316"/>
  <guideline angle="45" x="34" y="483"/>
  <guideline angle="315" x="410" y="530"/>
  <guideline angle="225" x="460" y="154"/>
  <guideline angle="135" x="85" y="103"/>
</glyph>
<glyph name="copyright" format="2">
  <advance width="837"/>
  <unicode hex="00A9"/>
  <outline>
    <contour>
      <point x="274.065" y="329.131" type="curve" smooth="yes"/>
      <point x="274.065" y="220.144"/>
      <point x="334.633" y="147.486"/>
      <point x="413.708" y="147.486" type="curve" smooth="yes"/>
      <point x="469.033" y="147.486"/>
      <point x="524.174" y="189.093"/>
      <point x="551.779" y="251.505" type="curve"/>
      <point x="530.258" y="251.505" type="line"/>
      <point x="505.038" y="201.187"/>
      <point x="459.974" y="167.641"/>
      <point x="417.597" y="167.641" type="curve" smooth="yes"/>
      <point x="346.662" y="167.641"/>
      <point x="293.668" y="232.658"/>
      <point x="293.668" y="330.183" type="curve" smooth="yes"/>
      <point x="293.668" y="427.708"/>
      <point x="342.85" y="492.725"/>
      <point x="416.623" y="492.725" type="curve" smooth="yes"/>
      <point x="471.655" y="492.725"/>
      <point x="517.109" y="455.854"/>
      <point x="530.258" y="400.546" type="curve"/>
      <point x="551.581" y="400.546" type="line"/>
      <point x="536.677" y="467.615"/>
      <point x="484.975" y="512.328"/>
      <point x="418.805" y="512.328" type="curve" smooth="yes"/>
      <point x="333.324" y="512.328"/>
      <point x="274.065" y="439.049"/>
    </contour>
    <contour>
      <point x="80" y="341.551" type="curve" smooth="yes"/>
      <point x="80" y="138.171"/>
      <point x="216.622" y="-0.00358582"/>
      <point x="418.449" y="-0.00358582" type="curve" smooth="yes"/>
      <point x="620.277" y="-0.00358582"/>
      <point x="756.899" y="136.618"/>
      <point x="756.899" y="338.446" type="curve" smooth="yes"/>
      <point x="756.899" y="541.826"/>
      <point x="620.277" y="680"/>
      <point x="418.449" y="680" type="curve" smooth="yes"/>
      <point x="216.622" y="680"/>
      <point x="80" y="543.378"/>
    </contour>
    <contour>
      <point x="102.155" y="341.622" type="curve" smooth="yes"/>
      <point x="102.155" y="531.581"/>
      <point x="229.641" y="659.845"/>
      <point x="418.449" y="659.845" type="curve" smooth="yes"/>
      <point x="608.871" y="659.845"/>
      <point x="734.743" y="531.581"/>
      <point x="734.743" y="338.375" type="curve" smooth="yes"/>
      <point x="734.743" y="148.415"/>
      <point x="607.257" y="20.1519"/>
      <point x="418.449" y="20.1519" type="curve" smooth="yes"/>
      <point x="229.641" y="20.1519"/>
      <point x="102.155" y="150.039"/>
    </contour>
  </outline>
</glyph>
<glyph name="ordfeminine" format="2">
  <advance width="452"/>
  <unicode hex="00AA"/>
  <outline>
    <contour>
      <point x="71" y="650" type="curve"/>
      <point x="93" y="650" type="line"/>
      <point x="99.9553" y="696"/>
      <point x="145.86" y="722"/>
      <point x="219.587" y="722" type="curve" smooth="yes"/>
      <point x="301.659" y="722"/>
      <point x="342" y="695"/>
      <point x="342" y="639" type="curve" smooth="yes"/>
      <point x="342" y="475" type="line"/>
      <point x="348" y="424" type="line"/>
      <point x="362" y="424" type="line"/>
      <point x="362" y="635" type="line" smooth="yes"/>
      <point x="362" y="706"/>
      <point x="315.914" y="740"/>
      <point x="221.109" y="740" type="curve" smooth="yes"/>
      <point x="134.204" y="740"/>
      <point x="80.2172" y="707"/>
    </contour>
    <contour>
      <point x="60" y="508.657" type="curve" smooth="yes"/>
      <point x="60" y="450.4"/>
      <point x="112.8" y="416"/>
      <point x="192" y="416" type="curve" smooth="yes"/>
      <point x="257.32" y="416"/>
      <point x="324" y="446"/>
      <point x="355" y="484" type="curve"/>
      <point x="347" y="497" type="line"/>
      <point x="314" y="459"/>
      <point x="248.366" y="434"/>
      <point x="191.293" y="434" type="curve" smooth="yes"/>
      <point x="124.517" y="434"/>
      <point x="80" y="460.8"/>
      <point x="80" y="508.657" type="curve" smooth="yes"/>
      <point x="80" y="572.168"/>
      <point x="155.013" y="603"/>
      <point x="351" y="603" type="curve"/>
      <point x="351" y="621" type="line"/>
      <point x="143.013" y="621"/>
      <point x="60" y="583.368"/>
    </contour>
  </outline>
</glyph>
<glyph name="guillemotleft" format="2">
  <advance width="495"/>
  <unicode hex="00AB"/>
  <outline>
    <contour>
      <point x="111" y="230" type="line"/>
      <point x="249" y="31" type="line"/>
      <point x="273" y="31" type="line"/>
      <point x="160" y="230" type="line"/>
      <point x="273" y="428" type="line"/>
      <point x="249" y="428" type="line"/>
    </contour>
    <contour>
      <point x="221" y="230" type="line"/>
      <point x="359" y="31" type="line"/>
      <point x="383" y="31" type="line"/>
      <point x="270" y="230" type="line"/>
      <point x="383" y="428" type="line"/>
      <point x="359" y="428" type="line"/>
    </contour>
  </outline>
</glyph>
<glyph name="registered" format="2">
  <advance width="529"/>
  <unicode hex="00AE"/>
  <outline>
    <contour>
      <point x="80" y="505.186" type="curve" smooth="yes"/>
      <point x="80" y="400.446"/>
      <point x="153.786" y="330.373"/>
      <point x="264.076" y="330.373" type="curve" smooth="yes"/>
      <point x="374.677" y="330.373"/>
      <point x="448.152" y="400.151"/>
      <point x="448.152" y="505.186" type="curve" smooth="yes"/>
      <point x="448.152" y="609.927"/>
      <point x="374.366" y="680"/>
      <point x="264.076" y="680" type="curve" smooth="yes"/>
      <point x="153.475" y="680"/>
      <point x="80" y="610.222"/>
    </contour>
    <contour>
      <point x="100.277" y="505.186" type="curve" smooth="yes"/>
      <point x="100.277" y="599.251"/>
      <point x="165.647" y="661.723"/>
      <point x="264.076" y="661.723" type="curve" smooth="yes"/>
      <point x="362.206" y="661.723"/>
      <point x="427.875" y="598.965"/>
      <point x="427.875" y="505.186" type="curve" smooth="yes"/>
      <point x="427.875" y="411.122"/>
      <point x="362.505" y="348.65"/>
      <point x="264.076" y="348.65" type="curve" smooth="yes"/>
      <point x="165.946" y="348.65"/>
      <point x="100.277" y="411.408"/>
    </contour>
    <contour>
      <point x="208.911" y="490.484" type="line"/>
      <point x="278.648" y="490.484" type="line" smooth="yes"/>
      <point x="316.689" y="490.484"/>
      <point x="342.05" y="513.955"/>
      <point x="342.05" y="547.878" type="curve" smooth="yes"/>
      <point x="342.05" y="582.11"/>
      <point x="316.381" y="604.076"/>
      <point x="277.878" y="604.076" type="curve" smooth="yes"/>
      <point x="208.911" y="604.076" type="line"/>
      <point x="208.911" y="586.324" type="line"/>
      <point x="276.13" y="586.324" type="line" smooth="yes"/>
      <point x="305.03" y="586.324"/>
      <point x="324.297" y="570.037"/>
      <point x="324.297" y="546.669" type="curve" smooth="yes"/>
      <point x="324.297" y="523.185"/>
      <point x="305.03" y="508.236"/>
      <point x="276.13" y="508.236" type="curve" smooth="yes"/>
      <point x="208.911" y="508.236" type="line"/>
    </contour>
    <contour>
      <point x="196.904" y="403.446" type="line"/>
      <point x="216.656" y="403.446" type="line"/>
      <point x="216.656" y="604.078" type="line"/>
      <point x="196.904" y="604.076" type="line"/>
    </contour>
    <contour>
      <point x="268.256" y="500.605" type="line"/>
      <point x="319.134" y="403.446" type="line"/>
      <point x="342.787" y="403.446" type="line"/>
      <point x="289.539" y="500.605" type="line"/>
    </contour>
  </outline>
</glyph>
<glyph name="macron" format="2">
  <advance width="370"/>
  <unicode hex="00AF"/>
  <outline>
    <contour>
      <point x="50" y="572" type="line"/>
      <point x="320" y="572" type="line"/>
      <point x="320" y="590" type="line"/>
      <point x="50" y="590" type="line"/>
    </contour>
  </outline>
</glyph>
<glyph name="ordmasculine" format="2">
  <advance width="325"/>
  <unicode hex="00BA"/>
  <outline>
    <contour>
      <point x="43" y="482" type="curve" smooth="yes"/>
      <point x="43" y="381"/>
      <point x="86" y="324"/>
      <point x="162" y="324" type="curve" smooth="yes"/>
      <point x="238" y="324"/>
      <point x="283" y="384"/>
      <point x="283" y="485" type="curve" smooth="yes"/>
      <point x="283" y="587"/>
      <point x="237" y="648"/>
      <point x="162" y="648" type="curve" smooth="yes"/>
      <point x="86" y="648"/>
      <point x="43" y="587"/>
    </contour>
    <contour>
      <point x="63" y="484" type="curve" smooth="yes"/>
      <point x="63" y="572"/>
      <point x="103" y="630"/>
      <point x="162" y="630" type="curve" smooth="yes"/>
      <point x="224" y="630"/>
      <point x="263" y="573"/>
      <point x="263" y="487" type="curve" smooth="yes"/>
      <point x="263" y="397"/>
      <point x="226" y="342"/>
      <point x="162" y="342" type="curve" smooth="yes"/>
      <point x="101" y="342"/>
      <point x="63" y="396"/>
    </contour>
  </outline>
</glyph>
<glyph name="onehalf" format="2">
  <advance width="742"/>
  <unicode hex="00BD"/>
  <outline>
    <contour>
      <point x="55" y="571" type="line"/>
      <point x="103" y="588"/>
      <point x="154" y="626"/>
      <point x="191" y="669" type="curve"/>
      <point x="174" y="669" type="line"/>
      <point x="174" y="354" type="line"/>
      <point x="194" y="354" type="line"/>
      <point x="194" y="680" type="line"/>
      <point x="177" y="680" type="line"/>
      <point x="149" y="644"/>
      <point x="87" y="602"/>
      <point x="55" y="589" type="curve"/>
    </contour>
    <contour>
      <point x="130" y="0" type="line"/>
      <point x="154" y="0" type="line"/>
      <point x="639" y="680" type="line"/>
      <point x="615" y="680" type="line"/>
    </contour>
    <contour>
      <point x="480" y="0" type="line"/>
      <point x="707" y="0" type="line"/>
      <point x="707" y="18" type="line"/>
      <point x="493" y="18" type="line"/>
      <point x="506" y="11" type="line"/>
      <point x="624" y="116" type="line" smooth="yes"/>
      <point x="685" y="171"/>
      <point x="696" y="199"/>
      <point x="696" y="236" type="curve" smooth="yes"/>
      <point x="696" y="293"/>
      <point x="651" y="334"/>
      <point x="589" y="334" type="curve" smooth="yes"/>
      <point x="527" y="334"/>
      <point x="474" y="293"/>
      <point x="474" y="224" type="curve"/>
      <point x="494" y="224" type="line"/>
      <point x="494" y="273"/>
      <point x="528" y="316"/>
      <point x="587" y="316" type="curve" smooth="yes"/>
      <point x="636" y="316"/>
      <point x="676" y="282"/>
      <point x="676" y="240" type="curve" smooth="yes"/>
      <point x="676" y="205"/>
      <point x="671" y="182"/>
      <point x="589" y="109" type="curve" smooth="yes"/>
      <point x="480" y="12" type="line"/>
    </contour>
  </outline>
  <guideline angle="219.542" x="628" y="141"/>
</glyph>
<glyph name="threequarters" format="2">
  <advance width="742"/>
  <unicode hex="00BE"/>
  <outline>
    <contour>
      <point x="45" y="446" type="line"/>
      <point x="54" y="390"/>
      <point x="97" y="346"/>
      <point x="169" y="346" type="curve" smooth="yes"/>
      <point x="246" y="346"/>
      <point x="293" y="384"/>
      <point x="293" y="447" type="curve" smooth="yes"/>
      <point x="293" y="499"/>
      <point x="260" y="530"/>
      <point x="204" y="535" type="curve"/>
      <point x="199" y="527" type="line"/>
      <point x="244" y="535"/>
      <point x="274" y="566"/>
      <point x="274" y="606" type="curve" smooth="yes"/>
      <point x="274" y="657"/>
      <point x="235" y="688"/>
      <point x="172" y="688" type="curve" smooth="yes"/>
      <point x="114" y="688"/>
      <point x="75" y="658"/>
      <point x="50" y="596" type="curve"/>
      <point x="70" y="596" type="line"/>
      <point x="91" y="646"/>
      <point x="124" y="670"/>
      <point x="172" y="670" type="curve" smooth="yes"/>
      <point x="223" y="670"/>
      <point x="254" y="644"/>
      <point x="254" y="600" type="curve" smooth="yes"/>
      <point x="254" y="559"/>
      <point x="210" y="533"/>
      <point x="129" y="533" type="curve"/>
      <point x="129" y="515" type="line"/>
      <point x="147" y="518"/>
      <point x="163" y="519"/>
      <point x="185" y="519" type="curve" smooth="yes"/>
      <point x="237" y="519"/>
      <point x="273" y="491"/>
      <point x="273" y="451" type="curve" smooth="yes"/>
      <point x="273" y="392"/>
      <point x="240" y="364"/>
      <point x="168" y="364" type="curve" smooth="yes"/>
      <point x="115" y="364"/>
      <point x="80" y="392"/>
      <point x="65" y="446" type="curve"/>
    </contour>
    <contour>
      <point x="150" y="0" type="line"/>
      <point x="174" y="0" type="line"/>
      <point x="659" y="680" type="line"/>
      <point x="635" y="680" type="line"/>
    </contour>
    <contour>
      <point x="428" y="81" type="line"/>
      <point x="662" y="81" type="line"/>
      <point x="662" y="99" type="line"/>
      <point x="434" y="99" type="line"/>
      <point x="440" y="87" type="line"/>
      <point x="608" y="313" type="line"/>
      <point x="596" y="321" type="line"/>
      <point x="596" y="0" type="line"/>
      <point x="616" y="0" type="line"/>
      <point x="616" y="326" type="line"/>
      <point x="594" y="326" type="line"/>
      <point x="428" y="103" type="line"/>
    </contour>
  </outline>
</glyph>
<glyph name="questiondown" format="2">
  <advance width="502"/>
  <unicode hex="00BF"/>
  <outline>
    <contour>
      <point x="462" y="-20" type="curve"/>
      <point x="442" y="-20" type="line"/>
      <point x="436" y="-147"/>
      <point x="351" y="-232"/>
      <point x="243" y="-232" type="curve" smooth="yes"/>
      <point x="121" y="-232"/>
      <point x="60" y="-171"/>
      <point x="60" y="-71" type="curve" smooth="yes"/>
      <point x="60" y="107"/>
      <point x="282" y="142"/>
      <point x="282" y="290" type="curve" smooth="yes"/>
      <point x="282" y="330" type="line"/>
      <point x="262" y="330" type="line"/>
      <point x="262" y="290" type="line" smooth="yes"/>
      <point x="262" y="145"/>
      <point x="40" y="124"/>
      <point x="40" y="-73" type="curve" smooth="yes"/>
      <point x="40" y="-183"/>
      <point x="108" y="-250"/>
      <point x="243" y="-250" type="curve" smooth="yes"/>
      <point x="364" y="-250"/>
      <point x="462" y="-160"/>
    </contour>
    <contour>
      <point x="282" y="460" type="line"/>
      <point x="262" y="460" type="line"/>
      <point x="262" y="380" type="line"/>
      <point x="282" y="380" type="line"/>
    </contour>
  </outline>
</glyph>
<glyph name="AE" format="2">
  <advance width="872"/>
  <unicode hex="00C6"/>
  <anchor x="480" y="740" name="top"/>
  <outline>
    <contour>
      <point x="10" y="0" type="line"/>
      <point x="34" y="0" type="line"/>
      <point x="391" y="670" type="line"/>
      <point x="376" y="660" type="line"/>
      <point x="406" y="660" type="line"/>
      <point x="406" y="0" type="line"/>
      <point x="808" y="0" type="line"/>
      <point x="808" y="20" type="line"/>
      <point x="428" y="20" type="line"/>
      <point x="428" y="347" type="line"/>
      <point x="768" y="347" type="line"/>
      <point x="768" y="367" type="line"/>
      <point x="428" y="367" type="line"/>
      <point x="428" y="660" type="line"/>
      <point x="808" y="660" type="line"/>
      <point x="808" y="680" type="line"/>
      <point x="371" y="680" type="line"/>
    </contour>
    <contour>
      <point x="155" y="250" type="line"/>
      <point x="417" y="250" type="line"/>
      <point x="417" y="270" type="line"/>
      <point x="161" y="270" type="line"/>
    </contour>
  </outline>
</glyph>
<glyph name="Eth" format="2">
  <advance width="660"/>
  <unicode hex="00D0"/>
  <outline>
    <contour>
      <point x="10" y="351" type="line"/>
      <point x="290" y="351" type="line"/>
      <point x="290" y="369" type="line"/>
      <point x="10" y="369" type="line"/>
    </contour>
    <contour>
      <point x="100" y="0" type="line"/>
      <point x="122" y="0" type="line"/>
      <point x="122" y="680" type="line"/>
      <point x="100" y="680" type="line"/>
    </contour>
    <contour>
      <point x="110" y="0" type="line"/>
      <point x="288" y="0" type="line" smooth="yes"/>
      <point x="478" y="0"/>
      <point x="550" y="146"/>
      <point x="550" y="340" type="curve" smooth="yes"/>
      <point x="550" y="534"/>
      <point x="478" y="680"/>
      <point x="288" y="680" type="curve" smooth="yes"/>
      <point x="110" y="680" type="line"/>
      <point x="110" y="660" type="line"/>
      <point x="288" y="660" type="line" smooth="yes"/>
      <point x="457" y="660"/>
      <point x="529" y="523"/>
      <point x="529" y="340" type="curve" smooth="yes"/>
      <point x="529" y="157"/>
      <point x="455" y="20"/>
      <point x="288" y="20" type="curve" smooth="yes"/>
      <point x="110" y="20" type="line"/>
    </contour>
  </outline>
</glyph>
<glyph name="Oslash" format="2">
  <advance width="849"/>
  <unicode hex="00D8"/>
  <outline>
    <component base="O"/>
    <contour>
      <point x="150" y="-10" type="line"/>
      <point x="174" y="-10" type="line"/>
      <point x="690" y="690" type="line"/>
      <point x="666" y="690" type="line"/>
    </contour>
  </outline>
</glyph>
<glyph name="Thorn" format="2">
  <advance width="542"/>
  <unicode hex="00DE"/>
  <outline>
    <contour>
      <point x="100" y="20" type="line"/>
      <point x="122" y="20" type="line"/>
      <point x="122" y="680" type="line"/>
      <point x="100" y="680" type="line"/>
    </contour>
    <contour>
      <point x="112" y="147" type="line"/>
      <point x="217" y="147" type="line" smooth="yes"/>
      <point x="392" y="147"/>
      <point x="462" y="243"/>
      <point x="462" y="348" type="curve" smooth="yes"/>
      <point x="462" y="447"/>
      <point x="385" y="550"/>
      <point x="214" y="550" type="curve" smooth="yes"/>
      <point x="112" y="550" type="line"/>
      <point x="112" y="528" type="line"/>
      <point x="216" y="528" type="line" smooth="yes"/>
      <point x="374" y="528"/>
      <point x="440" y="435"/>
      <point x="440" y="347" type="curve" smooth="yes"/>
      <point x="440" y="255"/>
      <point x="381" y="169"/>
      <point x="221" y="169" type="curve" smooth="yes"/>
      <point x="112" y="169" type="line"/>
    </contour>
  </outline>
</glyph>
<glyph name="germandbls" format="2">
  <advance width="662"/>
  <unicode hex="00DF"/>
  <outline>
    <contour>
      <point x="90" y="0" type="line"/>
      <point x="110" y="0" type="line"/>
      <point x="110" y="480" type="line" smooth="yes"/>
      <point x="110" y="604"/>
      <point x="185" y="668"/>
      <point x="323" y="668" type="curve" smooth="yes"/>
      <point x="464" y="668"/>
      <point x="554" y="610"/>
      <point x="554" y="520" type="curve" smooth="yes"/>
      <point x="554" y="438"/>
      <point x="476" y="372"/>
      <point x="380" y="372" type="curve" smooth="yes"/>
      <point x="349" y="372" type="line"/>
      <point x="349" y="352" type="line"/>
      <point x="393" y="352" type="line" smooth="yes"/>
      <point x="510" y="352"/>
      <point x="582" y="293"/>
      <point x="582" y="195" type="curve" smooth="yes"/>
      <point x="582" y="84"/>
      <point x="488" y="10"/>
      <point x="340" y="10" type="curve" smooth="yes"/>
      <point x="287" y="10"/>
      <point x="220" y="20"/>
      <point x="171" y="34" type="curve"/>
      <point x="171" y="12" type="line"/>
      <point x="220" y="0"/>
      <point x="289" y="-8"/>
      <point x="343" y="-8" type="curve" smooth="yes"/>
      <point x="500" y="-8"/>
      <point x="602" y="75"/>
      <point x="602" y="199" type="curve" smooth="yes"/>
      <point x="602" y="296"/>
      <point x="538" y="354"/>
      <point x="418" y="366" type="curve"/>
      <point x="423" y="360" type="line"/>
      <point x="517" y="381"/>
      <point x="574" y="443"/>
      <point x="574" y="523" type="curve" smooth="yes"/>
      <point x="574" y="620"/>
      <point x="475" y="686"/>
      <point x="326" y="686" type="curve" smooth="yes"/>
      <point x="176" y="686"/>
      <point x="90" y="616"/>
      <point x="90" y="492" type="curve" smooth="yes"/>
    </contour>
  </outline>
</glyph>
<glyph name="ae" format="2">
  <advance width="757"/>
  <unicode hex="00E6"/>
  <outline>
    <contour>
      <point x="384" y="285" type="line"/>
      <point x="384" y="390"/>
      <point x="456" y="450"/>
      <point x="524" y="450" type="curve" smooth="yes"/>
      <point x="621" y="450"/>
      <point x="662" y="362"/>
      <point x="662" y="285" type="curve"/>
    </contour>
    <contour>
      <point x="110" y="129" type="curve" smooth="yes"/>
      <point x="110" y="201"/>
      <point x="148" y="235"/>
      <point x="267" y="252" type="curve" smooth="yes"/>
      <point x="365" y="266" type="line"/>
      <point x="365" y="199" type="line"/>
      <point x="339" y="120"/>
      <point x="282" y="55"/>
      <point x="200" y="55" type="curve" smooth="yes"/>
      <point x="174" y="55"/>
      <point x="110" y="69"/>
    </contour>
    <contour>
      <point x="90" y="128" type="curve" smooth="yes"/>
      <point x="90" y="84"/>
      <point x="133" y="40"/>
      <point x="205" y="40" type="curve" smooth="yes"/>
      <point x="292" y="40"/>
      <point x="341" y="97"/>
      <point x="374" y="176" type="curve"/>
      <point x="387" y="99"/>
      <point x="448" y="50"/>
      <point x="532" y="50" type="curve" smooth="yes"/>
      <point x="584" y="50"/>
      <point x="644" y="77"/>
      <point x="674" y="114" type="curve"/>
      <point x="646" y="114" type="line"/>
      <point x="623" y="88"/>
      <point x="576" y="70"/>
      <point x="532" y="70" type="curve" smooth="yes"/>
      <point x="433" y="70"/>
      <point x="384" y="135"/>
      <point x="384" y="269" type="curve"/>
      <point x="682" y="269" type="line"/>
      <point x="682" y="289" type="line" smooth="yes"/>
      <point x="682" y="374"/>
      <point x="630" y="468"/>
      <point x="525" y="468" type="curve" smooth="yes"/>
      <point x="458" y="468"/>
      <point x="401" y="427"/>
      <point x="381" y="367" type="curve"/>
      <point x="368" y="418"/>
      <point x="337" y="468"/>
      <point x="247" y="468" type="curve" smooth="yes"/>
      <point x="167" y="468"/>
      <point x="123" y="407"/>
      <point x="115" y="330" type="curve"/>
      <point x="133" y="330" type="line"/>
      <point x="138" y="391"/>
      <point x="182" y="450"/>
      <point x="246" y="450" type="curve" smooth="yes"/>
      <point x="319" y="450"/>
      <point x="365" y="390"/>
      <point x="365" y="333" type="curve" smooth="yes"/>
      <point x="365" y="284" type="line"/>
      <point x="264" y="270" type="line" smooth="yes"/>
      <point x="144" y="253"/>
      <point x="90" y="215"/>
    </contour>
  </outline>
</glyph>
<glyph name="eth" format="2">
  <advance width="628"/>
  <unicode hex="00F0"/>
  <outline>
    <contour>
      <point x="154" y="673" type="line"/>
      <point x="393" y="577"/>
      <point x="542" y="403"/>
      <point x="542" y="217" type="curve"/>
      <point x="562" y="217" type="line"/>
      <point x="562" y="412"/>
      <point x="410" y="592"/>
      <point x="165" y="690" type="curve"/>
    </contour>
    <contour>
      <point x="213" y="540" type="line"/>
      <point x="449" y="636" type="line"/>
      <point x="438" y="650" type="line"/>
      <point x="202" y="554" type="line"/>
    </contour>
    <contour>
      <point x="60" y="215" type="curve" smooth="yes"/>
      <point x="60" y="66"/>
      <point x="167" y="-8"/>
      <point x="311" y="-8" type="curve" smooth="yes"/>
      <point x="455" y="-8"/>
      <point x="562" y="65"/>
      <point x="562" y="215" type="curve" smooth="yes"/>
      <point x="562" y="364"/>
      <point x="455" y="438"/>
      <point x="311" y="438" type="curve" smooth="yes"/>
      <point x="167" y="438"/>
      <point x="60" y="365"/>
    </contour>
    <contour>
      <point x="80" y="215" type="curve" smooth="yes"/>
      <point x="80" y="347"/>
      <point x="170" y="420"/>
      <point x="311" y="420" type="curve" smooth="yes"/>
      <point x="454" y="420"/>
      <point x="542" y="345"/>
      <point x="542" y="215" type="curve" smooth="yes"/>
      <point x="542" y="84"/>
      <point x="452" y="10"/>
      <point x="311" y="10" type="curve" smooth="yes"/>
      <point x="168" y="10"/>
      <point x="80" y="85"/>
    </contour>
  </outline>
</glyph>
<glyph name="divide" format="2">
  <advance width="502"/>
  <unicode hex="00F7"/>
  <outline>
    <contour>
      <point x="40" y="234" type="line"/>
      <point x="462" y="234" type="line"/>
      <point x="462" y="252" type="line"/>
      <point x="40" y="252" type="line"/>
    </contour>
    <contour>
      <point x="241" y="67" type="line"/>
      <point x="261" y="67" type="line"/>
      <point x="261" y="147" type="line"/>
      <point x="241" y="147" type="line"/>
    </contour>
    <contour>
      <point x="241" y="337" type="line"/>
      <point x="261" y="337" type="line"/>
      <point x="261" y="417" type="line"/>
      <point x="241" y="417" type="line"/>
    </contour>
  </outline>
  <guideline angle="90" x="251" y="0"/>
</glyph>
<glyph name="oslash" format="2">
  <advance width="622"/>
  <unicode hex="00F8"/>
  <outline>
    <component base="o"/>
    <contour>
      <point x="78" y="0" type="line"/>
      <point x="100" y="0" type="line"/>
      <point x="541" y="460" type="line"/>
      <point x="519" y="460" type="line"/>
    </contour>
  </outline>
</glyph>
<glyph name="dcroat" format="2">
  <advance width="640"/>
  <unicode hex="0111"/>
  <outline>
    <component base="d"/>
    <contour>
      <point x="264" y="561" type="line"/>
      <point x="640" y="561" type="line"/>
      <point x="640" y="579" type="line"/>
      <point x="264" y="579" type="line"/>
    </contour>
  </outline>
</glyph>
<glyph name="Hbar" format="2">
  <advance width="771"/>
  <unicode hex="0126"/>
  <anchor x="385" y="-40" name="bottom"/>
  <anchor x="654" y="0" name="b.cedilla"/>
  <outline>
    <component base="H"/>
    <contour>
      <point x="55" y="580" type="line"/>
      <point x="715" y="580" type="line"/>
      <point x="715" y="598" type="line"/>
      <point x="55" y="598" type="line"/>
    </contour>
  </outline>
</glyph>
<glyph name="dotlessi" format="2">
  <advance width="220"/>
  <unicode hex="0131"/>
  <anchor x="110" y="540" name="top"/>
  <anchor x="110" y="-40" name="bottom"/>
  <outline>
    <contour>
      <point x="100" y="0" type="line"/>
      <point x="120" y="0" type="line"/>
      <point x="120" y="460" type="line"/>
      <point x="100" y="460" type="line"/>
    </contour>
  </outline>
  <guideline angle="0" x="0" y="540"/>
  <guideline angle="90" x="110" y="0"/>
</glyph>
<glyph name="kgreenlandic" format="2">
  <advance width="522"/>
  <unicode hex="0138"/>
  <outline>
    <contour>
      <point x="90" y="0" type="line"/>
      <point x="110" y="0" type="line"/>
      <point x="110" y="460" type="line"/>
      <point x="90" y="450" type="line"/>
    </contour>
    <contour>
      <point x="106" y="197" type="line"/>
      <point x="470" y="460" type="line"/>
      <point x="436" y="460" type="line"/>
      <point x="95" y="213" type="line"/>
    </contour>
    <contour>
      <point x="174" y="256" type="line"/>
      <point x="462" y="0" type="line"/>
      <point x="492" y="0" type="line"/>
      <point x="196" y="263" type="line"/>
    </contour>
  </outline>
</glyph>
<glyph name="Eng" format="2">
  <advance width="705"/>
  <unicode hex="014A"/>
  <anchor x="342" y="740" name="top"/>
  <anchor x="342" y="-60" name="bottom"/>
  <outline>
    <component base="N"/>
    <contour>
      <point x="515" y="-200" type="line"/>
      <point x="539" y="-200" type="line" smooth="yes"/>
      <point x="605" y="-200"/>
      <point x="635" y="-161"/>
      <point x="635" y="-73" type="curve" smooth="yes"/>
      <point x="635" y="20" type="line"/>
      <point x="613" y="20" type="line"/>
      <point x="613" y="-87" type="line" smooth="yes"/>
      <point x="613" y="-145"/>
      <point x="586" y="-180"/>
      <point x="541" y="-180" type="curve" smooth="yes"/>
      <point x="515" y="-180" type="line"/>
    </contour>
  </outline>
  <guideline angle="90" x="342" y="0"/>
  <guideline angle="306.036" x="121" y="680"/>
  <guideline angle="306.036" x="88" y="680"/>
</glyph>
<glyph name="oe" format="2">
  <advance width="898"/>
  <unicode hex="0153"/>
  <outline>
    <contour>
      <point x="60" y="230" type="curve" smooth="yes"/>
      <point x="60" y="85"/>
      <point x="139" y="-8"/>
      <point x="265" y="-8" type="curve"/>
      <point x="265" y="10" type="line"/>
      <point x="151" y="10"/>
      <point x="80" y="97"/>
      <point x="80" y="230" type="curve" smooth="yes"/>
      <point x="80" y="362"/>
      <point x="152" y="450"/>
      <point x="265" y="450" type="curve"/>
      <point x="265" y="468" type="line"/>
      <point x="139" y="468"/>
      <point x="60" y="376"/>
    </contour>
    <contour>
      <point x="470" y="230" type="curve" smooth="yes"/>
      <point x="470" y="375"/>
      <point x="391" y="468"/>
      <point x="265" y="468" type="curve"/>
      <point x="265" y="450" type="line"/>
      <point x="379" y="450"/>
      <point x="450" y="363"/>
      <point x="450" y="230" type="curve" smooth="yes"/>
      <point x="450" y="98"/>
      <point x="378" y="10"/>
      <point x="265" y="10" type="curve"/>
      <point x="265" y="-8" type="line"/>
      <point x="391" y="-8"/>
      <point x="470" y="84"/>
    </contour>
    <contour>
      <point x="455" y="234" type="line"/>
      <point x="838" y="234" type="line"/>
      <point x="838" y="244" type="line" smooth="yes"/>
      <point x="838" y="380"/>
      <point x="762" y="468"/>
      <point x="648" y="468" type="curve" smooth="yes"/>
      <point x="526" y="468"/>
      <point x="447" y="380"/>
      <point x="447" y="240" type="curve" smooth="yes"/>
      <point x="447" y="78"/>
      <point x="523" y="-8"/>
      <point x="657" y="-8" type="curve" smooth="yes"/>
      <point x="750" y="-8"/>
      <point x="828" y="60"/>
      <point x="828" y="142" type="curve"/>
      <point x="808" y="142" type="line"/>
      <point x="808" y="69"/>
      <point x="740" y="10"/>
      <point x="657" y="10" type="curve" smooth="yes"/>
      <point x="513" y="10"/>
      <point x="469" y="114"/>
      <point x="469" y="242" type="curve" smooth="yes"/>
      <point x="469" y="353"/>
      <point x="527" y="450"/>
      <point x="648" y="450" type="curve" smooth="yes"/>
      <point x="799" y="450"/>
      <point x="818" y="300"/>
      <point x="818" y="252" type="curve"/>
      <point x="455" y="252" type="line"/>
    </contour>
  </outline>
</glyph>
<glyph name="Tbar" format="2">
  <advance width="568"/>
  <unicode hex="0166"/>
  <outline>
    <component base="T"/>
    <contour>
      <point x="50" y="340" type="line"/>
      <point x="518" y="340" type="line"/>
      <point x="518" y="360" type="line"/>
      <point x="50" y="360" type="line"/>
    </contour>
  </outline>
  <guideline angle="90" x="10" y="0"/>
  <guideline angle="90" x="558" y="0"/>
  <guideline angle="90" x="235" y="0"/>
  <guideline angle="90" x="335" y="0"/>
</glyph>
<glyph name="tbar" format="2">
  <advance width="304"/>
  <unicode hex="0167"/>
  <outline>
    <contour>
      <point x="37" y="266" type="line"/>
      <point x="257" y="266" type="line"/>
      <point x="257" y="284" type="line"/>
      <point x="37" y="284" type="line"/>
    </contour>
    <contour>
      <point x="37" y="437" type="line"/>
      <point x="256" y="437" type="line"/>
      <point x="256" y="459" type="line"/>
      <point x="115" y="459" type="line"/>
      <point x="37" y="453" type="line"/>
    </contour>
    <contour>
      <point x="112" y="179" type="line" smooth="yes"/>
      <point x="112" y="49"/>
      <point x="144" y="-10"/>
      <point x="254" y="-10" type="curve" smooth="yes"/>
      <point x="277" y="-10" type="line"/>
      <point x="277" y="12" type="line"/>
      <point x="254" y="12" type="line" smooth="yes"/>
      <point x="159" y="12"/>
      <point x="134" y="60"/>
      <point x="134" y="179" type="curve" smooth="yes"/>
      <point x="134" y="609" type="line"/>
      <point x="118" y="609" type="line"/>
      <point x="114" y="458" type="line"/>
      <point x="112" y="458" type="line"/>
    </contour>
  </outline>
</glyph>
<glyph name="longs" format="2">
  <advance width="268"/>
  <unicode hex="017F"/>
  <anchor x="148" y="740" name="top"/>
  <outline>
    <contour>
      <point x="128" y="0" type="line"/>
      <point x="148" y="0" type="line"/>
      <point x="148" y="596" type="line" smooth="yes"/>
      <point x="148" y="647"/>
      <point x="183" y="682"/>
      <point x="236" y="682" type="curve" smooth="yes"/>
      <point x="264" y="682" type="line"/>
      <point x="264" y="700" type="line"/>
      <point x="238" y="700" type="line" smooth="yes"/>
      <point x="172" y="700"/>
      <point x="128" y="658"/>
      <point x="128" y="594" type="curve" smooth="yes"/>
    </contour>
    <contour>
      <point x="43" y="442" type="line"/>
      <point x="143" y="442" type="line"/>
      <point x="143" y="460" type="line"/>
      <point x="43" y="460" type="line"/>
    </contour>
  </outline>
</glyph>
<glyph name="Schwa" format="2">
  <advance width="852"/>
  <unicode hex="018F"/>
  <outline>
    <contour>
      <point x="80" y="340" type="line"/>
      <point x="80" y="121"/>
      <point x="226" y="-8"/>
      <point x="426" y="-8" type="curve" smooth="yes"/>
      <point x="626" y="-8"/>
      <point x="772" y="121"/>
      <point x="772" y="340" type="curve" smooth="yes"/>
      <point x="772" y="559"/>
      <point x="626" y="688"/>
      <point x="426" y="688" type="curve" smooth="yes"/>
      <point x="274" y="688"/>
      <point x="153" y="614"/>
      <point x="104" y="482" type="curve"/>
      <point x="125" y="482" type="line"/>
      <point x="169" y="602"/>
      <point x="274" y="668"/>
      <point x="426" y="668" type="curve" smooth="yes"/>
      <point x="631" y="668"/>
      <point x="750" y="549"/>
      <point x="750" y="340" type="curve" smooth="yes"/>
      <point x="750" y="139"/>
      <point x="623" y="12"/>
      <point x="426" y="12" type="curve" smooth="yes"/>
      <point x="229" y="12"/>
      <point x="102" y="139"/>
      <point x="102" y="340" type="curve"/>
    </contour>
    <contour>
      <point x="91" y="320" type="line"/>
      <point x="761" y="320" type="line"/>
      <point x="761" y="340" type="line"/>
      <point x="91" y="340" type="line"/>
    </contour>
  </outline>
</glyph>
<glyph name="Obar" format="2">
  <advance width="852"/>
  <unicode hex="019F"/>
  <anchor x="426" y="740" name="top"/>
  <outline>
    <component base="O"/>
    <contour>
      <point x="91" y="347" type="line"/>
      <point x="761" y="347" type="line"/>
      <point x="761" y="367" type="line"/>
      <point x="91" y="367" type="line"/>
    </contour>
  </outline>
</glyph>
<glyph name="uni0237" format="2">
  <advance width="210"/>
  <unicode hex="0237"/>
  <anchor x="110" y="540" name="top"/>
  <outline>
    <contour>
      <point x="-10" y="-200" type="line"/>
      <point x="23" y="-200" type="line" smooth="yes"/>
      <point x="81" y="-200"/>
      <point x="120" y="-160"/>
      <point x="120" y="-101" type="curve" smooth="yes"/>
      <point x="120" y="460" type="line"/>
      <point x="100" y="460" type="line"/>
      <point x="100" y="-98" type="line" smooth="yes"/>
      <point x="100" y="-149"/>
      <point x="68" y="-182"/>
      <point x="20" y="-182" type="curve" smooth="yes"/>
      <point x="-10" y="-182" type="line"/>
    </contour>
  </outline>
</glyph>
<glyph name="obarred" format="2">
  <advance width="622"/>
  <unicode hex="0275"/>
  <anchor x="322" y="530" name="top"/>
  <anchor x="311" y="-40" name="bottom"/>
  <outline>
    <component base="o"/>
    <contour>
      <point x="70" y="234" type="line"/>
      <point x="552" y="234" type="line"/>
      <point x="552" y="252" type="line"/>
      <point x="70" y="252" type="line"/>
    </contour>
  </outline>
</glyph>
<glyph name="circumflex" format="2">
  <advance width="430"/>
  <unicode hex="02C6"/>
  <outline>
    <contour>
      <point x="60" y="540" type="line"/>
      <point x="78" y="540" type="line"/>
      <point x="222" y="687" type="line"/>
      <point x="208" y="687" type="line"/>
      <point x="352" y="540" type="line"/>
      <point x="370" y="540" type="line"/>
      <point x="226" y="700" type="line"/>
      <point x="205" y="700" type="line"/>
    </contour>
  </outline>
  <guideline angle="90" x="215" y="0"/>
  <guideline angle="0" x="0" y="540"/>
</glyph>
<glyph name="caron" format="2">
  <advance width="340"/>
  <unicode hex="02C7"/>
  <anchor x="170" y="530" name="_top"/>
  <outline>
    <contour>
      <point x="150" y="530" type="line"/>
      <point x="190" y="530" type="line"/>
      <point x="310" y="690" type="line"/>
      <point x="290" y="690" type="line"/>
      <point x="160" y="543" type="line"/>
      <point x="180" y="543" type="line"/>
      <point x="50" y="690" type="line"/>
      <point x="30" y="690" type="line"/>
    </contour>
  </outline>
  <guideline angle="0" x="0" y="530"/>
</glyph>
<glyph name="breve" format="2">
  <advance width="410"/>
  <unicode hex="02D8"/>
  <anchor x="205" y="530" name="_top"/>
  <outline>
    <contour>
      <point x="80" y="670" type="line"/>
      <point x="80" y="582"/>
      <point x="126" y="530"/>
      <point x="205" y="530" type="curve" smooth="yes"/>
      <point x="288" y="530"/>
      <point x="330" y="577"/>
      <point x="330" y="670" type="curve"/>
      <point x="310" y="670" type="line"/>
      <point x="310" y="590"/>
      <point x="275" y="548"/>
      <point x="205" y="548" type="curve" smooth="yes"/>
      <point x="138" y="548"/>
      <point x="100" y="594"/>
      <point x="100" y="670" type="curve"/>
    </contour>
  </outline>
  <guideline angle="0" x="0" y="530"/>
</glyph>
<glyph name="dotaccent" format="2">
  <advance width="180"/>
  <unicode hex="02D9"/>
  <outline>
    <contour>
      <point x="75" y="540" type="line"/>
      <point x="105" y="540" type="line"/>
      <point x="105" y="570" type="line"/>
      <point x="75" y="570" type="line"/>
    </contour>
  </outline>
</glyph>
<glyph name="ring" format="2">
  <advance width="222"/>
  <unicode hex="02DA"/>
  <outline>
    <contour>
      <point x="33" y="608" type="curve" smooth="yes"/>
      <point x="33" y="565"/>
      <point x="68" y="530"/>
      <point x="111" y="530" type="curve" smooth="yes"/>
      <point x="154" y="530"/>
      <point x="189" y="565"/>
      <point x="189" y="608" type="curve" smooth="yes"/>
      <point x="189" y="651"/>
      <point x="154" y="686"/>
      <point x="111" y="686" type="curve" smooth="yes"/>
      <point x="68" y="686"/>
      <point x="33" y="651"/>
    </contour>
    <contour>
      <point x="53" y="608" type="curve" smooth="yes"/>
      <point x="53" y="642"/>
      <point x="78" y="668"/>
      <point x="111" y="668" type="curve" smooth="yes"/>
      <point x="145" y="668"/>
      <point x="170" y="642"/>
      <point x="170" y="608" type="curve" smooth="yes"/>
      <point x="170" y="575"/>
      <point x="145" y="549"/>
      <point x="111" y="549" type="curve" smooth="yes"/>
      <point x="78" y="549"/>
      <point x="53" y="575"/>
    </contour>
  </outline>
  <guideline angle="0" x="0" y="530"/>
</glyph>
<glyph name="ogonek" format="2">
  <advance width="326"/>
  <unicode hex="02DB"/>
  <outline>
    <contour>
      <point x="100" y="-138" type="curve" smooth="yes"/>
      <point x="100" y="-181"/>
      <point x="127" y="-210"/>
      <point x="168" y="-210" type="curve" smooth="yes"/>
      <point x="190" y="-210"/>
      <point x="211" y="-202"/>
      <point x="226" y="-189" type="curve"/>
      <point x="216" y="-172" type="line"/>
      <point x="205" y="-183"/>
      <point x="188" y="-190"/>
      <point x="171" y="-190" type="curve" smooth="yes"/>
      <point x="140" y="-190"/>
      <point x="120" y="-166"/>
      <point x="120" y="-129" type="curve" smooth="yes"/>
      <point x="120" y="-93"/>
      <point x="137" y="-59"/>
      <point x="186" y="0" type="curve"/>
      <point x="172" y="0" type="line"/>
      <point x="119" y="-63"/>
      <point x="100" y="-101"/>
    </contour>
  </outline>
</glyph>
<glyph name="hungarumlaut" format="2">
  <advance width="350"/>
  <unicode hex="02DD"/>
  <anchor x="173" y="530" name="_top"/>
  <outline>
    <contour>
      <point x="119" y="530" type="line"/>
      <point x="134" y="530" type="line"/>
      <point x="217" y="690" type="line"/>
      <point x="196" y="690" type="line"/>
    </contour>
    <contour>
      <point x="199" y="530" type="line"/>
      <point x="214" y="530" type="line"/>
      <point x="297" y="690" type="line"/>
      <point x="276" y="690" type="line"/>
    </contour>
  </outline>
  <guideline angle="0" x="0" y="530"/>
</glyph>
<glyph name="caroncomb" format="2">
  <unicode hex="030C"/>
  <anchor x="-220" y="530" name="_top"/>
  <outline>
    <contour>
      <point x="-240" y="530" type="line"/>
      <point x="-200" y="530" type="line"/>
      <point x="-80" y="690" type="line"/>
      <point x="-100" y="690" type="line"/>
      <point x="-230" y="543" type="line"/>
      <point x="-210" y="543" type="line"/>
      <point x="-340" y="690" type="line"/>
      <point x="-360" y="690" type="line"/>
    </contour>
  </outline>
  <guideline angle="90" x="-220" y="0"/>
  <guideline angle="0" x="0" y="530"/>
</glyph>
<glyph name="uni0313" format="2">
  <unicode hex="0313"/>
  <outline>
    <contour>
      <point x="-163" y="520" type="line"/>
      <point x="-153" y="520" type="line"/>
      <point x="-130" y="620" type="line"/>
      <point x="-130" y="700" type="line"/>
      <point x="-150" y="700" type="line"/>
      <point x="-150" y="620" type="line"/>
      <point x="-144" y="620" type="line"/>
    </contour>
  </outline>
</glyph>
<glyph name="uni0326" format="2">
  <unicode hex="0326"/>
  <anchor x="-90" y="-40" name="_bottom"/>
  <outline>
    <contour>
      <point x="-76" y="-40" type="line"/>
      <point x="-98" y="-40" type="line"/>
      <point x="-98" y="-120" type="line"/>
      <point x="-89" y="-120" type="line"/>
      <point x="-116" y="-250" type="line"/>
      <point x="-106" y="-250" type="line"/>
      <point x="-76" y="-116" type="line"/>
    </contour>
  </outline>
</glyph>
<glyph name="mu" format="2">
  <advance width="618"/>
  <unicode hex="03BC"/>
  <outline>
    <contour>
      <point x="90" y="-200" type="line"/>
      <point x="110" y="-200" type="line"/>
      <point x="110" y="-50" type="line" smooth="yes"/>
      <point x="110" y="16"/>
      <point x="108" y="92"/>
      <point x="100" y="158" type="curve"/>
      <point x="97" y="156" type="line"/>
      <point x="118" y="57"/>
      <point x="176" y="-8"/>
      <point x="304" y="-8" type="curve" smooth="yes"/>
      <point x="440" y="-8"/>
      <point x="488" y="72"/>
      <point x="505" y="114" type="curve"/>
      <point x="508" y="114" type="line"/>
      <point x="508" y="0" type="line"/>
      <point x="528" y="0" type="line"/>
      <point x="528" y="460" type="line"/>
      <point x="508" y="460" type="line"/>
      <point x="508" y="214" type="line" smooth="yes"/>
      <point x="508" y="72"/>
      <point x="413" y="10"/>
      <point x="300" y="10" type="curve" smooth="yes"/>
      <point x="185" y="10"/>
      <point x="110" y="76"/>
      <point x="110" y="215" type="curve" smooth="yes"/>
      <point x="110" y="460" type="line"/>
      <point x="90" y="460" type="line"/>
    </contour>
  </outline>
</glyph>
<glyph name="uni0402" format="2">
  <advance width="803"/>
  <unicode hex="0402"/>
  <outline>
    <component base="uni040B"/>
    <contour>
      <point x="519" y="-90" type="line"/>
      <point x="519" y="-166"/>
      <point x="564" y="-200"/>
      <point x="618" y="-200" type="curve" smooth="yes"/>
      <point x="689" y="-200"/>
      <point x="713" y="-167"/>
      <point x="713" y="-66" type="curve" smooth="yes"/>
      <point x="713" y="50" type="line"/>
      <point x="693" y="50" type="line"/>
      <point x="693" y="-84" type="line" smooth="yes"/>
      <point x="693" y="-148"/>
      <point x="673" y="-182"/>
      <point x="623" y="-182" type="curve" smooth="yes"/>
      <point x="574" y="-182"/>
      <point x="539" y="-157"/>
      <point x="539" y="-90" type="curve"/>
    </contour>
  </outline>
</glyph>
<glyph name="uni040B" format="2">
  <advance width="803"/>
  <unicode hex="040B"/>
  <outline>
    <component base="T"/>
    <contour>
      <point x="283" y="306" type="line"/>
      <point x="295" y="306" type="line"/>
      <point x="295" y="383"/>
      <point x="401" y="450"/>
      <point x="511" y="450" type="curve" smooth="yes"/>
      <point x="613" y="450"/>
      <point x="693" y="394"/>
      <point x="693" y="300" type="curve" smooth="yes"/>
      <point x="693" y="0" type="line"/>
      <point x="713" y="0" type="line"/>
      <point x="713" y="300" type="line" smooth="yes"/>
      <point x="713" y="405"/>
      <point x="625" y="468"/>
      <point x="511" y="468" type="curve" smooth="yes"/>
      <point x="413" y="468"/>
      <point x="316" y="421"/>
      <point x="287" y="350" type="curve"/>
      <point x="299" y="350" type="line"/>
      <point x="299" y="371" type="line"/>
      <point x="283" y="371" type="line"/>
    </contour>
  </outline>
</glyph>
<glyph name="uni040F" format="2">
  <advance width="774"/>
  <unicode hex="040F"/>
  <outline>
    <contour>
      <point x="100" y="0" type="line"/>
      <point x="674" y="0" type="line"/>
      <point x="674" y="680" type="line"/>
      <point x="652" y="680" type="line"/>
      <point x="652" y="20" type="line"/>
      <point x="122" y="20" type="line"/>
      <point x="122" y="680" type="line"/>
      <point x="100" y="680" type="line"/>
    </contour>
    <contour>
      <point x="376" y="-140" type="line"/>
      <point x="398" y="-140" type="line"/>
      <point x="398" y="15" type="line"/>
      <point x="376" y="15" type="line"/>
    </contour>
  </outline>
  <guideline angle="90" x="387" y="0"/>
</glyph>
<glyph name="uni0411" format="2">
  <advance width="698"/>
  <unicode hex="0411"/>
  <outline>
    <contour>
      <point x="114" y="0" type="line"/>
      <point x="317" y="0" type="line" smooth="yes"/>
      <point x="479" y="0"/>
      <point x="602" y="70"/>
      <point x="602" y="205" type="curve" smooth="yes"/>
      <point x="602" y="338"/>
      <point x="484" y="372"/>
      <point x="317" y="372" type="curve" smooth="yes"/>
      <point x="114" y="372" type="line"/>
      <point x="114" y="352" type="line"/>
      <point x="317" y="352" type="line" smooth="yes"/>
      <point x="529" y="352"/>
      <point x="580" y="281"/>
      <point x="580" y="205" type="curve" smooth="yes"/>
      <point x="580" y="128"/>
      <point x="535" y="20"/>
      <point x="317" y="20" type="curve" smooth="yes"/>
      <point x="114" y="20" type="line"/>
    </contour>
    <contour>
      <point x="119" y="660" type="line"/>
      <point x="547" y="660" type="line"/>
      <point x="547" y="680" type="line"/>
      <point x="119" y="680" type="line"/>
    </contour>
    <contour>
      <point x="104" y="0" type="line"/>
      <point x="126" y="0" type="line"/>
      <point x="126" y="680" type="line"/>
      <point x="104" y="680" type="line"/>
    </contour>
  </outline>
  <guideline angle="90" x="100" y="0"/>
</glyph>
<glyph name="uni0413" format="2">
  <advance width="560"/>
  <unicode hex="0413"/>
  <outline>
    <contour>
      <point x="100" y="0" type="line"/>
      <point x="122" y="0" type="line"/>
      <point x="122" y="680" type="line"/>
      <point x="100" y="680" type="line"/>
    </contour>
    <contour>
      <point x="111" y="660" type="line"/>
      <point x="521" y="660" type="line"/>
      <point x="521" y="680" type="line"/>
      <point x="111" y="680" type="line"/>
    </contour>
  </outline>
</glyph>
<glyph name="uni0414" format="2">
  <advance width="848"/>
  <unicode hex="0414"/>
  <outline>
    <contour>
      <point x="30" y="-150" type="line"/>
      <point x="52" y="-150" type="line"/>
      <point x="52" y="0" type="line"/>
      <point x="790" y="0" type="line"/>
      <point x="790" y="-150" type="line"/>
      <point x="812" y="-150" type="line"/>
      <point x="812" y="20" type="line"/>
      <point x="30" y="20" type="line"/>
    </contour>
    <contour>
      <point x="77" y="0" type="line"/>
      <point x="150" y="0"/>
      <point x="200" y="37"/>
      <point x="205" y="107" type="curve" smooth="yes"/>
      <point x="244" y="680" type="line"/>
      <point x="223" y="680" type="line"/>
      <point x="184" y="99" type="line" smooth="yes"/>
      <point x="181" y="53"/>
      <point x="130" y="20"/>
      <point x="67" y="20" type="curve"/>
    </contour>
    <contour>
      <point x="237" y="660" type="line"/>
      <point x="674" y="660" type="line"/>
      <point x="674" y="680" type="line"/>
      <point x="237" y="680" type="line"/>
    </contour>
    <contour>
      <point x="669" y="0" type="line"/>
      <point x="691" y="0" type="line"/>
      <point x="691" y="680" type="line"/>
      <point x="669" y="680" type="line"/>
    </contour>
  </outline>
</glyph>
<glyph name="uni0416" format="2">
  <advance width="935"/>
  <unicode hex="0416"/>
  <outline>
    <contour>
      <point x="10" y="0" type="line"/>
      <point x="39" y="0" type="line"/>
      <point x="358" y="376" type="line"/>
      <point x="465" y="267" type="line"/>
      <point x="465" y="298" type="line"/>
      <point x="90" y="680" type="line"/>
      <point x="60" y="680" type="line"/>
      <point x="343" y="390" type="line"/>
    </contour>
    <contour>
      <point x="457" y="0" type="line"/>
      <point x="479" y="0" type="line"/>
      <point x="479" y="680" type="line"/>
      <point x="457" y="680" type="line"/>
    </contour>
    <contour>
      <point x="469" y="267" type="line"/>
      <point x="576" y="374" type="line"/>
      <point x="896" y="0" type="line"/>
      <point x="925" y="0" type="line"/>
      <point x="591" y="389" type="line"/>
      <point x="875" y="680" type="line"/>
      <point x="845" y="680" type="line"/>
      <point x="469" y="298" type="line"/>
    </contour>
  </outline>
  <guideline angle="225.452" x="864" y="680"/>
  <guideline angle="45" x="487" y="285"/>
  <guideline angle="134.472" x="447" y="297"/>
  <guideline angle="314.706" x="350" y="383"/>
  <guideline angle="90" x="467" y="0"/>
</glyph>
<glyph name="uni0417" format="2">
  <advance width="698"/>
  <unicode hex="0417"/>
  <outline>
    <contour>
      <point x="105" y="185" type="line"/>
      <point x="105" y="81"/>
      <point x="219" y="0"/>
      <point x="367" y="0" type="curve" smooth="yes"/>
      <point x="525" y="0"/>
      <point x="649" y="68"/>
      <point x="649" y="196" type="curve" smooth="yes"/>
      <point x="649" y="294"/>
      <point x="564" y="364"/>
      <point x="432" y="369" type="curve"/>
      <point x="432" y="364" type="line"/>
      <point x="519" y="381"/>
      <point x="587" y="439"/>
      <point x="587" y="512" type="curve" smooth="yes"/>
      <point x="587" y="626"/>
      <point x="497" y="690"/>
      <point x="336" y="690" type="curve" smooth="yes"/>
      <point x="207" y="690"/>
      <point x="105" y="622"/>
      <point x="105" y="510" type="curve"/>
      <point x="122" y="510" type="line"/>
      <point x="122" y="606"/>
      <point x="247" y="670"/>
      <point x="336" y="670" type="curve" smooth="yes"/>
      <point x="486" y="670"/>
      <point x="565" y="616"/>
      <point x="565" y="512" type="curve" smooth="yes"/>
      <point x="565" y="429"/>
      <point x="485" y="377"/>
      <point x="364" y="377" type="curve" smooth="yes"/>
      <point x="262" y="377" type="line"/>
      <point x="262" y="357" type="line"/>
      <point x="364" y="357" type="line" smooth="yes"/>
      <point x="540" y="357"/>
      <point x="627" y="287"/>
      <point x="627" y="192" type="curve" smooth="yes"/>
      <point x="627" y="82"/>
      <point x="521" y="20"/>
      <point x="367" y="20" type="curve" smooth="yes"/>
      <point x="230" y="20"/>
      <point x="123" y="93"/>
      <point x="123" y="185" type="curve"/>
    </contour>
  </outline>
</glyph>
<glyph name="uni0418" format="2">
  <advance width="813"/>
  <unicode hex="0418"/>
  <outline>
    <contour>
      <point x="80" y="0" type="line"/>
      <point x="98" y="0" type="line"/>
      <point x="661" y="591" type="line" smooth="yes"/>
      <point x="691" y="622"/>
      <point x="705" y="638"/>
      <point x="716" y="653" type="curve"/>
      <point x="718" y="653" type="line"/>
      <point x="714" y="623"/>
      <point x="711" y="584"/>
      <point x="711" y="557" type="curve" smooth="yes"/>
      <point x="711" y="0" type="line"/>
      <point x="733" y="0" type="line"/>
      <point x="733" y="680" type="line"/>
      <point x="715" y="680" type="line"/>
      <point x="149" y="84" type="line" smooth="yes"/>
      <point x="124" y="58"/>
      <point x="107" y="37"/>
      <point x="100" y="27" type="curve"/>
      <point x="98" y="27" type="line"/>
      <point x="100" y="42"/>
      <point x="102" y="67"/>
      <point x="102" y="118" type="curve" smooth="yes"/>
      <point x="102" y="680" type="line"/>
      <point x="80" y="680" type="line"/>
    </contour>
  </outline>
</glyph>
<glyph name="uni041A" format="2">
  <advance width="568"/>
  <unicode hex="041A"/>
  <anchor x="311" y="-40" name="bottom"/>
  <anchor x="281" y="740" name="top"/>
  <outline>
    <contour>
      <point x="100" y="0" type="line"/>
      <point x="122" y="0" type="line"/>
      <point x="122" y="680" type="line"/>
      <point x="100" y="680" type="line"/>
    </contour>
    <contour>
      <point x="122" y="348" type="line"/>
      <point x="214" y="348" type="line"/>
      <point x="527" y="680" type="line"/>
      <point x="497" y="680" type="line"/>
      <point x="192" y="357" type="line"/>
      <point x="218" y="368" type="line"/>
      <point x="122" y="368" type="line"/>
    </contour>
    <contour>
      <point x="200" y="354" type="line"/>
      <point x="528" y="0" type="line"/>
      <point x="558" y="0" type="line"/>
      <point x="215" y="371" type="line"/>
    </contour>
  </outline>
  <guideline angle="0" x="0" y="368"/>
  <guideline angle="0" x="0" y="337"/>
</glyph>
<glyph name="uni041B" format="2">
  <advance width="733"/>
  <unicode hex="041B"/>
  <outline>
    <contour>
      <point x="33" y="-6" type="line"/>
      <point x="36" y="-6" type="line" smooth="yes"/>
      <point x="104" y="-6"/>
      <point x="153" y="40"/>
      <point x="156" y="107" type="curve" smooth="yes"/>
      <point x="179" y="680" type="line"/>
      <point x="157" y="680" type="line"/>
      <point x="134" y="99" type="line" smooth="yes"/>
      <point x="132" y="56"/>
      <point x="84" y="14"/>
      <point x="38" y="14" type="curve" smooth="yes"/>
      <point x="33" y="14" type="line"/>
    </contour>
    <contour>
      <point x="175" y="660" type="line"/>
      <point x="611" y="660" type="line"/>
      <point x="611" y="680" type="line"/>
      <point x="175" y="680" type="line"/>
    </contour>
    <contour>
      <point x="608" y="0" type="line"/>
      <point x="630" y="0" type="line"/>
      <point x="630" y="680" type="line"/>
      <point x="608" y="680" type="line"/>
    </contour>
  </outline>
  <guideline angle="87.097" x="121.5" y="187"/>
  <guideline angle="267.165" x="174" y="680"/>
</glyph>
<glyph name="uni0423" format="2">
  <advance width="571"/>
  <unicode hex="0423"/>
  <outline>
    <contour>
      <point x="10" y="680" type="line"/>
      <point x="292" y="138" type="line"/>
      <point x="305" y="161" type="line"/>
      <point x="35" y="680" type="line"/>
    </contour>
    <contour>
      <point x="120" y="-6" type="line"/>
      <point x="124" y="-6" type="line" smooth="yes"/>
      <point x="198" y="-6"/>
      <point x="259" y="44"/>
      <point x="287" y="104" type="curve" smooth="yes"/>
      <point x="561" y="680" type="line"/>
      <point x="539" y="680" type="line"/>
      <point x="273" y="124" type="line" smooth="yes"/>
      <point x="247" y="70"/>
      <point x="209" y="14"/>
      <point x="123" y="14" type="curve" smooth="yes"/>
      <point x="120" y="14" type="line"/>
    </contour>
  </outline>
</glyph>
<glyph name="uni0424" format="2">
  <advance width="863"/>
  <unicode hex="0424"/>
  <outline>
    <contour>
      <point x="80" y="349" type="curve" smooth="yes"/>
      <point x="80" y="213"/>
      <point x="198" y="95"/>
      <point x="368" y="95" type="curve" smooth="yes"/>
      <point x="384" y="95"/>
      <point x="402" y="95"/>
      <point x="426" y="97" type="curve"/>
      <point x="426" y="119" type="line"/>
      <point x="406" y="117"/>
      <point x="390" y="116"/>
      <point x="366" y="116" type="curve" smooth="yes"/>
      <point x="200" y="116"/>
      <point x="102" y="213"/>
      <point x="102" y="350" type="curve" smooth="yes"/>
      <point x="102" y="494"/>
      <point x="197" y="581"/>
      <point x="361" y="581" type="curve" smooth="yes"/>
      <point x="385" y="581"/>
      <point x="408" y="580"/>
      <point x="426" y="578" type="curve"/>
      <point x="426" y="600" type="line"/>
      <point x="405" y="601"/>
      <point x="382" y="602"/>
      <point x="365" y="602" type="curve" smooth="yes"/>
      <point x="197" y="602"/>
      <point x="80" y="496"/>
    </contour>
    <contour>
      <point x="421" y="20" type="line"/>
      <point x="443" y="20" type="line"/>
      <point x="443" y="680" type="line"/>
      <point x="421" y="680" type="line"/>
    </contour>
    <contour>
      <point x="437" y="97" type="line"/>
      <point x="454" y="96"/>
      <point x="481" y="95"/>
      <point x="498" y="95" type="curve" smooth="yes"/>
      <point x="666" y="95"/>
      <point x="783" y="201"/>
      <point x="783" y="348" type="curve" smooth="yes"/>
      <point x="783" y="484"/>
      <point x="665" y="602"/>
      <point x="495" y="602" type="curve" smooth="yes"/>
      <point x="479" y="602"/>
      <point x="461" y="601"/>
      <point x="437" y="600" type="curve"/>
      <point x="438" y="578" type="line"/>
      <point x="461" y="581"/>
      <point x="473" y="581"/>
      <point x="497" y="581" type="curve" smooth="yes"/>
      <point x="663" y="581"/>
      <point x="761" y="484"/>
      <point x="761" y="347" type="curve" smooth="yes"/>
      <point x="761" y="203"/>
      <point x="666" y="116"/>
      <point x="502" y="116" type="curve" smooth="yes"/>
      <point x="478" y="116"/>
      <point x="467" y="117"/>
      <point x="437" y="119" type="curve"/>
    </contour>
  </outline>
</glyph>
<glyph name="uni0426" format="2">
  <advance width="743"/>
  <unicode hex="0426"/>
  <outline>
    <contour>
      <point x="100" y="0" type="line"/>
      <point x="122" y="0" type="line"/>
      <point x="122" y="680" type="line"/>
      <point x="100" y="680" type="line"/>
    </contour>
    <contour>
      <point x="604" y="0" type="line"/>
      <point x="626" y="0" type="line"/>
      <point x="626" y="680" type="line"/>
      <point x="604" y="680" type="line"/>
    </contour>
    <contour>
      <point x="100" y="0" type="line"/>
      <point x="616" y="0" type="line"/>
      <point x="616" y="20" type="line"/>
      <point x="100" y="20" type="line"/>
    </contour>
    <contour>
      <point x="616" y="0" type="line"/>
      <point x="638" y="0" type="line"/>
      <point x="638" y="-140" type="line"/>
      <point x="660" y="-140" type="line"/>
      <point x="660" y="20" type="line"/>
      <point x="616" y="20" type="line"/>
    </contour>
  </outline>
</glyph>
<glyph name="uni0427" format="2">
  <advance width="616"/>
  <unicode hex="0427"/>
  <outline>
    <contour>
      <point x="50" y="500" type="line" smooth="yes"/>
      <point x="50" y="391"/>
      <point x="113" y="317"/>
      <point x="208" y="317" type="curve" smooth="yes"/>
      <point x="505" y="317" type="line"/>
      <point x="505" y="337" type="line"/>
      <point x="216" y="337" type="line" smooth="yes"/>
      <point x="133" y="337"/>
      <point x="72" y="397"/>
      <point x="72" y="500" type="curve" smooth="yes"/>
      <point x="72" y="680" type="line"/>
      <point x="50" y="680" type="line"/>
    </contour>
    <contour>
      <point x="494" y="0" type="line"/>
      <point x="516" y="0" type="line"/>
      <point x="516" y="680" type="line"/>
      <point x="494" y="680" type="line"/>
    </contour>
  </outline>
</glyph>
<glyph name="uni0428" format="2">
  <advance width="1186"/>
  <unicode hex="0428"/>
  <outline>
    <contour>
      <point x="110" y="0" type="line"/>
      <point x="1074" y="0" type="line"/>
      <point x="1074" y="20" type="line"/>
      <point x="110" y="20" type="line"/>
    </contour>
    <contour>
      <point x="100" y="0" type="line"/>
      <point x="122" y="0" type="line"/>
      <point x="122" y="680" type="line"/>
      <point x="100" y="680" type="line"/>
    </contour>
    <contour>
      <point x="582" y="0" type="line"/>
      <point x="604" y="0" type="line"/>
      <point x="604" y="680" type="line"/>
      <point x="582" y="680" type="line"/>
    </contour>
    <contour>
      <point x="1064" y="0" type="line"/>
      <point x="1086" y="0" type="line"/>
      <point x="1086" y="680" type="line"/>
      <point x="1064" y="680" type="line"/>
    </contour>
  </outline>
</glyph>
<glyph name="uni0429" format="2">
  <advance width="1047"/>
  <unicode hex="0429"/>
  <outline>
    <contour>
      <point x="110" y="0" type="line"/>
      <point x="920" y="0" type="line"/>
      <point x="920" y="20" type="line"/>
      <point x="110" y="20" type="line"/>
    </contour>
    <contour>
      <point x="920" y="0" type="line"/>
      <point x="942" y="0" type="line"/>
      <point x="942" y="-140" type="line"/>
      <point x="964" y="-140" type="line"/>
      <point x="964" y="20" type="line"/>
      <point x="920" y="20" type="line"/>
    </contour>
    <contour>
      <point x="100" y="0" type="line"/>
      <point x="122" y="0" type="line"/>
      <point x="122" y="680" type="line"/>
      <point x="100" y="680" type="line"/>
    </contour>
    <contour>
      <point x="500" y="0" type="line"/>
      <point x="522" y="0" type="line"/>
      <point x="522" y="680" type="line"/>
      <point x="500" y="680" type="line"/>
    </contour>
    <contour>
      <point x="910" y="0" type="line"/>
      <point x="932" y="0" type="line"/>
      <point x="932" y="680" type="line"/>
      <point x="910" y="680" type="line"/>
    </contour>
  </outline>
</glyph>
<glyph name="uni042A" format="2">
  <advance width="872"/>
  <unicode hex="042A"/>
  <outline>
    <contour>
      <point x="292" y="0" type="line"/>
      <point x="505" y="0" type="line" smooth="yes"/>
      <point x="666" y="0"/>
      <point x="792" y="70"/>
      <point x="792" y="205" type="curve" smooth="yes"/>
      <point x="792" y="355"/>
      <point x="582" y="372"/>
      <point x="505" y="372" type="curve" smooth="yes"/>
      <point x="301" y="372" type="line"/>
      <point x="301" y="352" type="line"/>
      <point x="505" y="352" type="line" smooth="yes"/>
      <point x="716" y="352"/>
      <point x="770" y="281"/>
      <point x="770" y="205" type="curve" smooth="yes"/>
      <point x="770" y="128"/>
      <point x="722" y="20"/>
      <point x="505" y="20" type="curve" smooth="yes"/>
      <point x="292" y="20" type="line"/>
    </contour>
    <contour>
      <point x="62" y="660" type="line"/>
      <point x="292" y="660" type="line"/>
      <point x="292" y="680" type="line"/>
      <point x="62" y="680" type="line"/>
    </contour>
    <contour>
      <point x="281" y="0" type="line"/>
      <point x="303" y="0" type="line"/>
      <point x="303" y="680" type="line"/>
      <point x="281" y="680" type="line"/>
    </contour>
  </outline>
</glyph>
<glyph name="uni042B" format="2">
  <advance width="920"/>
  <unicode hex="042B"/>
  <outline>
    <contour>
      <point x="105" y="0" type="line"/>
      <point x="317" y="0" type="line" smooth="yes"/>
      <point x="479" y="0"/>
      <point x="604" y="70"/>
      <point x="604" y="205" type="curve" smooth="yes"/>
      <point x="604" y="355"/>
      <point x="395" y="372"/>
      <point x="317" y="372" type="curve" smooth="yes"/>
      <point x="114" y="372" type="line"/>
      <point x="114" y="352" type="line"/>
      <point x="317" y="352" type="line" smooth="yes"/>
      <point x="529" y="352"/>
      <point x="582" y="281"/>
      <point x="582" y="205" type="curve" smooth="yes"/>
      <point x="582" y="128"/>
      <point x="535" y="20"/>
      <point x="317" y="20" type="curve" smooth="yes"/>
      <point x="105" y="20" type="line"/>
    </contour>
    <contour>
      <point x="100" y="0" type="line"/>
      <point x="122" y="0" type="line"/>
      <point x="122" y="680" type="line"/>
      <point x="100" y="680" type="line"/>
    </contour>
    <contour>
      <point x="798" y="0" type="line"/>
      <point x="820" y="0" type="line"/>
      <point x="820" y="680" type="line"/>
      <point x="798" y="680" type="line"/>
    </contour>
  </outline>
</glyph>
<glyph name="uni042C" format="2">
  <advance width="686"/>
  <unicode hex="042C"/>
  <outline>
    <contour>
      <point x="112" y="0" type="line"/>
      <point x="385" y="0" type="line" smooth="yes"/>
      <point x="517" y="0"/>
      <point x="606" y="80"/>
      <point x="606" y="193" type="curve" smooth="yes"/>
      <point x="606" y="305"/>
      <point x="517" y="372"/>
      <point x="385" y="372" type="curve" smooth="yes"/>
      <point x="112" y="372" type="line"/>
      <point x="112" y="352" type="line"/>
      <point x="385" y="352" type="line" smooth="yes"/>
      <point x="505" y="352"/>
      <point x="584" y="294"/>
      <point x="584" y="193" type="curve" smooth="yes"/>
      <point x="584" y="92"/>
      <point x="505" y="20"/>
      <point x="385" y="20" type="curve" smooth="yes"/>
      <point x="112" y="20" type="line"/>
    </contour>
    <contour>
      <point x="100" y="0" type="line"/>
      <point x="122" y="0" type="line"/>
      <point x="122" y="680" type="line"/>
      <point x="100" y="680" type="line"/>
    </contour>
  </outline>
</glyph>
<glyph name="uni042D" format="2">
  <advance width="826"/>
  <unicode hex="042D"/>
  <anchor x="407" y="740" name="top"/>
  <outline>
    <contour>
      <point x="80" y="185" type="line"/>
      <point x="134" y="46"/>
      <point x="242" y="-8"/>
      <point x="400" y="-8" type="curve" smooth="yes"/>
      <point x="608" y="-8"/>
      <point x="746" y="134"/>
      <point x="746" y="346" type="curve" smooth="yes"/>
      <point x="746" y="551"/>
      <point x="609" y="688"/>
      <point x="403" y="688" type="curve" smooth="yes"/>
      <point x="240" y="688"/>
      <point x="135" y="611"/>
      <point x="80" y="452" type="curve"/>
      <point x="102" y="452" type="line"/>
      <point x="151" y="592"/>
      <point x="257" y="668"/>
      <point x="403" y="668" type="curve" smooth="yes"/>
      <point x="599" y="668"/>
      <point x="724" y="542"/>
      <point x="724" y="346" type="curve" smooth="yes"/>
      <point x="724" y="143"/>
      <point x="597" y="12"/>
      <point x="400" y="12" type="curve" smooth="yes"/>
      <point x="259" y="12"/>
      <point x="151" y="65"/>
      <point x="102" y="185" type="curve"/>
    </contour>
    <contour>
      <point x="335" y="347" type="line"/>
      <point x="730" y="347" type="line"/>
      <point x="730" y="367" type="line"/>
      <point x="335" y="367" type="line"/>
    </contour>
  </outline>
</glyph>
<glyph name="uni042E" format="2">
  <advance width="982"/>
  <unicode hex="042E"/>
  <outline>
    <contour>
      <point x="112" y="340" type="line"/>
      <point x="268" y="340" type="line"/>
      <point x="268" y="360" type="line"/>
      <point x="112" y="360" type="line"/>
    </contour>
    <contour>
      <point x="260" y="342" type="curve" smooth="yes"/>
      <point x="260" y="180"/>
      <point x="335" y="-8"/>
      <point x="569" y="-8" type="curve" smooth="yes"/>
      <point x="771" y="-8"/>
      <point x="902" y="127"/>
      <point x="902" y="340" type="curve" smooth="yes"/>
      <point x="902" y="553"/>
      <point x="771" y="688"/>
      <point x="569" y="688" type="curve" smooth="yes"/>
      <point x="337" y="688"/>
      <point x="260" y="502"/>
    </contour>
    <contour>
      <point x="282" y="340" type="curve" smooth="yes"/>
      <point x="282" y="534"/>
      <point x="360" y="668"/>
      <point x="569" y="668" type="curve" smooth="yes"/>
      <point x="776" y="668"/>
      <point x="880" y="544"/>
      <point x="880" y="340" type="curve" smooth="yes"/>
      <point x="880" y="136"/>
      <point x="776" y="12"/>
      <point x="569" y="12" type="curve" smooth="yes"/>
      <point x="360" y="12"/>
      <point x="282" y="146"/>
    </contour>
    <contour>
      <point x="100" y="0" type="line"/>
      <point x="120" y="0" type="line"/>
      <point x="120" y="680" type="line"/>
      <point x="100" y="680" type="line"/>
    </contour>
  </outline>
</glyph>
<glyph name="uni042F" format="2">
  <advance width="698"/>
  <unicode hex="042F"/>
  <outline>
    <contour>
      <point x="50" y="475" type="curve" smooth="yes"/>
      <point x="50" y="363"/>
      <point x="175" y="280"/>
      <point x="331" y="280" type="curve" smooth="yes"/>
      <point x="580" y="280" type="line"/>
      <point x="580" y="300" type="line"/>
      <point x="330" y="300" type="line" smooth="yes"/>
      <point x="177" y="300"/>
      <point x="72" y="374"/>
      <point x="72" y="473" type="curve" smooth="yes"/>
      <point x="72" y="588"/>
      <point x="166" y="660"/>
      <point x="330" y="660" type="curve" smooth="yes"/>
      <point x="580" y="660" type="line"/>
      <point x="580" y="680" type="line"/>
      <point x="326" y="680" type="line" smooth="yes"/>
      <point x="162" y="680"/>
      <point x="50" y="602"/>
    </contour>
    <contour>
      <point x="70" y="0" type="line"/>
      <point x="96" y="0" type="line"/>
      <point x="343" y="292" type="line"/>
      <point x="317" y="292" type="line"/>
    </contour>
    <contour>
      <point x="576" y="0" type="line"/>
      <point x="598" y="0" type="line"/>
      <point x="598" y="680" type="line"/>
      <point x="576" y="680" type="line"/>
    </contour>
  </outline>
</glyph>
<glyph name="uni0431" format="2">
  <advance width="650"/>
  <unicode hex="0431"/>
  <outline>
    <contour>
      <point x="78" y="219" type="curve" smooth="yes"/>
      <point x="78" y="358"/>
      <point x="165" y="452"/>
      <point x="317" y="452" type="curve" smooth="yes"/>
      <point x="484" y="452"/>
      <point x="570" y="376"/>
      <point x="570" y="239" type="curve" smooth="yes"/>
      <point x="570" y="102"/>
      <point x="470" y="10"/>
      <point x="312" y="10" type="curve" smooth="yes"/>
      <point x="164" y="10"/>
      <point x="78" y="94"/>
    </contour>
    <contour>
      <point x="60" y="258" type="line" smooth="yes"/>
      <point x="60" y="85"/>
      <point x="154" y="-8"/>
      <point x="324" y="-8" type="curve" smooth="yes"/>
      <point x="483" y="-8"/>
      <point x="590" y="110"/>
      <point x="590" y="240" type="curve" smooth="yes"/>
      <point x="590" y="374"/>
      <point x="490" y="470"/>
      <point x="335" y="470" type="curve" smooth="yes"/>
      <point x="193" y="470"/>
      <point x="102" y="406"/>
      <point x="66" y="250" type="curve"/>
      <point x="72" y="250" type="line"/>
      <point x="76" y="284"/>
      <point x="78" y="407"/>
      <point x="78" y="421" type="curve" smooth="yes"/>
      <point x="78" y="516"/>
      <point x="120" y="580"/>
      <point x="350" y="633" type="curve" smooth="yes"/>
      <point x="405" y="645"/>
      <point x="468" y="662"/>
      <point x="507" y="679" type="curve"/>
      <point x="507" y="700" type="line"/>
      <point x="501" y="700" type="line"/>
      <point x="457" y="680"/>
      <point x="405" y="665"/>
      <point x="349" y="651" type="curve" smooth="yes"/>
      <point x="127" y="598"/>
      <point x="60" y="548"/>
      <point x="60" y="399" type="curve" smooth="yes"/>
    </contour>
  </outline>
</glyph>
<glyph name="uni0432" format="2">
  <advance width="582"/>
  <unicode hex="0432"/>
  <outline>
    <contour>
      <point x="90" y="0" type="line"/>
      <point x="110" y="0" type="line"/>
      <point x="110" y="460" type="line"/>
      <point x="90" y="460" type="line"/>
    </contour>
    <contour>
      <point x="102" y="0" type="line"/>
      <point x="331" y="0" type="line" smooth="yes"/>
      <point x="459" y="0"/>
      <point x="522" y="59"/>
      <point x="522" y="130" type="curve" smooth="yes"/>
      <point x="522" y="197"/>
      <point x="451" y="248"/>
      <point x="346" y="248" type="curve" smooth="yes"/>
      <point x="102" y="248" type="line"/>
      <point x="102" y="228" type="line"/>
      <point x="329" y="228" type="line" smooth="yes"/>
      <point x="487" y="228"/>
      <point x="502" y="162"/>
      <point x="502" y="129" type="curve" smooth="yes"/>
      <point x="502" y="84"/>
      <point x="477" y="20"/>
      <point x="317" y="20" type="curve" smooth="yes"/>
      <point x="102" y="20" type="line"/>
    </contour>
    <contour>
      <point x="102" y="440" type="line"/>
      <point x="324" y="440" type="line" smooth="yes"/>
      <point x="436" y="440"/>
      <point x="477" y="414"/>
      <point x="477" y="344" type="curve" smooth="yes"/>
      <point x="477" y="291"/>
      <point x="412" y="248"/>
      <point x="327" y="248" type="curve"/>
      <point x="335" y="248" type="line"/>
      <point x="335" y="237" type="line"/>
      <point x="379" y="237" type="line"/>
      <point x="445" y="250"/>
      <point x="497" y="297"/>
      <point x="497" y="344" type="curve" smooth="yes"/>
      <point x="497" y="428"/>
      <point x="430" y="460"/>
      <point x="324" y="460" type="curve" smooth="yes"/>
      <point x="102" y="460" type="line"/>
    </contour>
  </outline>
</glyph>
<glyph name="uni0436" format="2">
  <advance width="844"/>
  <unicode hex="0436"/>
  <outline>
    <contour>
      <point x="412" y="0" type="line"/>
      <point x="432" y="0" type="line"/>
      <point x="432" y="460" type="line"/>
      <point x="412" y="460" type="line"/>
    </contour>
    <contour>
      <point x="432" y="252" type="line"/>
      <point x="526" y="252" type="line"/>
      <point x="792" y="460" type="line"/>
      <point x="759" y="460" type="line"/>
      <point x="509" y="264" type="line"/>
      <point x="536" y="270" type="line"/>
      <point x="432" y="270" type="line"/>
    </contour>
    <contour>
      <point x="511" y="256" type="line"/>
      <point x="784" y="0" type="line"/>
      <point x="814" y="0" type="line"/>
      <point x="533" y="263" type="line"/>
    </contour>
    <contour>
      <point x="318" y="252" type="line"/>
      <point x="412" y="252" type="line"/>
      <point x="412" y="270" type="line"/>
      <point x="308" y="270" type="line"/>
      <point x="335" y="264" type="line"/>
      <point x="85" y="460" type="line"/>
      <point x="52" y="460" type="line"/>
    </contour>
    <contour>
      <point x="30" y="0" type="line"/>
      <point x="60" y="0" type="line"/>
      <point x="333" y="256" type="line"/>
      <point x="311" y="263" type="line"/>
    </contour>
  </outline>
  <guideline angle="0" x="0" y="257"/>
  <guideline angle="0" x="0" y="269"/>
</glyph>
<glyph name="uni0437" format="2">
  <advance width="558"/>
  <unicode hex="0437"/>
  <outline>
    <contour>
      <point x="60" y="150" type="line"/>
      <point x="77" y="47"/>
      <point x="166" y="-10"/>
      <point x="308" y="-10" type="curve" smooth="yes"/>
      <point x="424" y="-10"/>
      <point x="498" y="48"/>
      <point x="498" y="140" type="curve" smooth="yes"/>
      <point x="498" y="195"/>
      <point x="461" y="234"/>
      <point x="398" y="246" type="curve"/>
      <point x="398" y="243" type="line"/>
      <point x="454" y="256"/>
      <point x="484" y="289"/>
      <point x="484" y="338" type="curve" smooth="yes"/>
      <point x="484" y="416"/>
      <point x="396" y="470"/>
      <point x="270" y="470" type="curve" smooth="yes"/>
      <point x="162" y="470"/>
      <point x="78" y="409"/>
      <point x="63" y="320" type="curve"/>
      <point x="83" y="320" type="line"/>
      <point x="103" y="405"/>
      <point x="170" y="452"/>
      <point x="270" y="452" type="curve" smooth="yes"/>
      <point x="385" y="452"/>
      <point x="464" y="403"/>
      <point x="464" y="331" type="curve" smooth="yes"/>
      <point x="464" y="285"/>
      <point x="412" y="252"/>
      <point x="338" y="252" type="curve" smooth="yes"/>
      <point x="216" y="252" type="line"/>
      <point x="216" y="234" type="line"/>
      <point x="339" y="234" type="line" smooth="yes"/>
      <point x="428" y="234"/>
      <point x="478" y="199"/>
      <point x="478" y="138" type="curve" smooth="yes"/>
      <point x="478" y="60"/>
      <point x="410" y="8"/>
      <point x="308" y="8" type="curve" smooth="yes"/>
      <point x="181" y="8"/>
      <point x="94" y="62"/>
      <point x="80" y="150" type="curve"/>
    </contour>
  </outline>
</glyph>
<glyph name="uni0438" format="2">
  <advance width="641"/>
  <unicode hex="0438"/>
  <anchor x="321" y="530" name="top"/>
  <outline>
    <contour>
      <point x="90" y="0" type="line"/>
      <point x="110" y="0" type="line"/>
      <point x="471" y="373" type="line" smooth="yes"/>
      <point x="492" y="394"/>
      <point x="513" y="417"/>
      <point x="532" y="440" type="curve"/>
      <point x="527" y="438" type="line"/>
      <point x="537" y="438" type="line"/>
      <point x="533" y="440" type="line"/>
      <point x="531" y="418"/>
      <point x="531" y="388"/>
      <point x="531" y="366" type="curve" smooth="yes"/>
      <point x="531" y="0" type="line"/>
      <point x="551" y="0" type="line"/>
      <point x="551" y="460" type="line"/>
      <point x="531" y="460" type="line"/>
      <point x="168" y="86" type="line" smooth="yes"/>
      <point x="148" y="65"/>
      <point x="125" y="40"/>
      <point x="109" y="19" type="curve"/>
      <point x="114" y="21" type="line"/>
      <point x="104" y="21" type="line"/>
      <point x="108" y="19" type="line"/>
      <point x="110" y="41"/>
      <point x="110" y="66"/>
      <point x="110" y="88" type="curve" smooth="yes"/>
      <point x="110" y="460" type="line"/>
      <point x="90" y="460" type="line"/>
    </contour>
  </outline>
  <guideline angle="90" x="100" y="0"/>
  <guideline angle="90" x="542" y="0"/>
</glyph>
<glyph name="uni043A" format="2">
  <advance width="522"/>
  <unicode hex="043A"/>
  <outline>
    <contour>
      <point x="106" y="197" type="line"/>
      <point x="470" y="460" type="line"/>
      <point x="435" y="460" type="line"/>
      <point x="106" y="221" type="line"/>
    </contour>
    <contour>
      <point x="186" y="264" type="line"/>
      <point x="463" y="0" type="line"/>
      <point x="492" y="0" type="line"/>
      <point x="202" y="276" type="line"/>
    </contour>
    <contour>
      <point x="90" y="0" type="line"/>
      <point x="110" y="0" type="line"/>
      <point x="110" y="460" type="line"/>
      <point x="90" y="460" type="line"/>
    </contour>
  </outline>
</glyph>
<glyph name="uni043B" format="2">
  <advance width="574"/>
  <unicode hex="043B"/>
  <outline>
    <contour>
      <point x="24" y="-10" type="line"/>
      <point x="28" y="-10" type="line" smooth="yes"/>
      <point x="102" y="-10"/>
      <point x="135" y="58"/>
      <point x="142" y="229" type="curve" smooth="yes"/>
      <point x="152" y="460" type="line"/>
      <point x="132" y="460" type="line"/>
      <point x="121" y="209" type="line" smooth="yes"/>
      <point x="113" y="43"/>
      <point x="81" y="8"/>
      <point x="24" y="8" type="curve"/>
    </contour>
    <contour>
      <point x="144" y="442" type="line"/>
      <point x="472" y="442" type="line"/>
      <point x="472" y="460" type="line"/>
      <point x="144" y="460" type="line"/>
    </contour>
    <contour>
      <point x="464" y="0" type="line"/>
      <point x="484" y="0" type="line"/>
      <point x="484" y="460" type="line"/>
      <point x="464" y="460" type="line"/>
    </contour>
  </outline>
</glyph>
<glyph name="uni043C" format="2">
  <advance width="750"/>
  <unicode hex="043C"/>
  <outline>
    <contour>
      <point x="90" y="0" type="line"/>
      <point x="110" y="0" type="line"/>
      <point x="110" y="332" type="line" smooth="yes"/>
      <point x="110" y="360"/>
      <point x="109" y="404"/>
      <point x="108" y="423" type="curve"/>
      <point x="100" y="420" type="line"/>
      <point x="118" y="420" type="line"/>
      <point x="109" y="423" type="line"/>
      <point x="118" y="407"/>
      <point x="143" y="365"/>
      <point x="153" y="349" type="curve" smooth="yes"/>
      <point x="365" y="0" type="line"/>
      <point x="385" y="0" type="line"/>
      <point x="600" y="353" type="line" smooth="yes"/>
      <point x="621" y="387"/>
      <point x="629" y="401"/>
      <point x="641" y="423" type="curve"/>
      <point x="636" y="420" type="line"/>
      <point x="646" y="420" type="line"/>
      <point x="642" y="423" type="line"/>
      <point x="641" y="406"/>
      <point x="640" y="358"/>
      <point x="640" y="332" type="curve" smooth="yes"/>
      <point x="640" y="0" type="line"/>
      <point x="660" y="0" type="line"/>
      <point x="660" y="460" type="line"/>
      <point x="640" y="460" type="line"/>
      <point x="417" y="90" type="line" smooth="yes"/>
      <point x="401" y="64"/>
      <point x="382" y="32"/>
      <point x="375" y="16" type="curve"/>
      <point x="382" y="19" type="line"/>
      <point x="367" y="19" type="line"/>
      <point x="375" y="16" type="line"/>
      <point x="367" y="32"/>
      <point x="348" y="64"/>
      <point x="333" y="89" type="curve" smooth="yes"/>
      <point x="110" y="460" type="line"/>
      <point x="90" y="460" type="line"/>
    </contour>
  </outline>
  <guideline angle="90" x="375" y="0"/>
  <guideline angle="0" x="0" y="423"/>
  <guideline angle="0" x="0" y="420"/>
</glyph>
<glyph name="uni043F" format="2">
  <advance width="600"/>
  <unicode hex="043F"/>
  <outline>
    <contour>
      <point x="102" y="442" type="line"/>
      <point x="499" y="442" type="line"/>
      <point x="499" y="460" type="line"/>
      <point x="102" y="460" type="line"/>
    </contour>
    <contour>
      <point x="90" y="0" type="line"/>
      <point x="110" y="0" type="line"/>
      <point x="110" y="460" type="line"/>
      <point x="90" y="460" type="line"/>
    </contour>
    <contour>
      <point x="490" y="0" type="line"/>
      <point x="510" y="0" type="line"/>
      <point x="510" y="460" type="line"/>
      <point x="490" y="460" type="line"/>
    </contour>
  </outline>
</glyph>
<glyph name="uni0442" format="2">
  <advance width="519"/>
  <unicode hex="0442"/>
  <outline>
    <contour>
      <point x="250" y="0" type="line"/>
      <point x="270" y="0" type="line"/>
      <point x="270" y="450" type="line"/>
      <point x="250" y="450" type="line"/>
    </contour>
    <contour>
      <point x="37" y="442" type="line"/>
      <point x="482" y="442" type="line"/>
      <point x="482" y="460" type="line"/>
      <point x="37" y="460" type="line"/>
    </contour>
  </outline>
</glyph>
<glyph name="uni0444" format="2">
  <advance width="780"/>
  <unicode hex="0444"/>
  <outline>
    <contour>
      <point x="381" y="-200" type="line"/>
      <point x="401" y="-200" type="line"/>
      <point x="401" y="-4" type="line"/>
      <point x="400" y="6" type="line"/>
      <point x="400" y="454" type="line"/>
      <point x="401" y="463" type="line"/>
      <point x="401" y="700" type="line"/>
      <point x="381" y="700" type="line"/>
      <point x="381" y="463" type="line"/>
      <point x="382" y="454" type="line"/>
      <point x="382" y="6" type="line"/>
      <point x="381" y="-4" type="line"/>
    </contour>
    <contour>
      <point x="394" y="-8" type="line"/>
      <point x="609" y="-1"/>
      <point x="720" y="80"/>
      <point x="720" y="230" type="curve" smooth="yes"/>
      <point x="720" y="377"/>
      <point x="605" y="461"/>
      <point x="394" y="468" type="curve"/>
      <point x="394" y="450" type="line"/>
      <point x="592" y="443"/>
      <point x="700" y="366"/>
      <point x="700" y="230" type="curve" smooth="yes"/>
      <point x="700" y="93"/>
      <point x="594" y="17"/>
      <point x="394" y="10" type="curve"/>
    </contour>
    <contour>
      <point x="60" y="230" type="curve" smooth="yes"/>
      <point x="60" y="79"/>
      <point x="171" y="-1"/>
      <point x="389" y="-8" type="curve"/>
      <point x="389" y="10" type="line"/>
      <point x="183" y="17"/>
      <point x="80" y="91"/>
      <point x="80" y="230" type="curve" smooth="yes"/>
      <point x="80" y="366"/>
      <point x="188" y="443"/>
      <point x="389" y="450" type="curve"/>
      <point x="389" y="468" type="line"/>
      <point x="175" y="461"/>
      <point x="60" y="378"/>
    </contour>
  </outline>
</glyph>
<glyph name="uni0446" format="2">
  <advance width="579"/>
  <unicode hex="0446"/>
  <outline>
    <contour>
      <point x="90" y="0" type="line"/>
      <point x="110" y="0" type="line"/>
      <point x="110" y="460" type="line"/>
      <point x="90" y="460" type="line"/>
    </contour>
    <contour>
      <point x="455" y="0" type="line"/>
      <point x="475" y="0" type="line"/>
      <point x="475" y="460" type="line"/>
      <point x="455" y="460" type="line"/>
    </contour>
    <contour>
      <point x="104" y="0" type="line"/>
      <point x="461" y="0" type="line"/>
      <point x="461" y="18" type="line"/>
      <point x="104" y="18" type="line"/>
    </contour>
    <contour>
      <point x="469" y="0" type="line"/>
      <point x="546" y="0" type="line"/>
      <point x="546" y="-140" type="line"/>
      <point x="564" y="-140" type="line"/>
      <point x="564" y="18" type="line"/>
      <point x="469" y="18" type="line"/>
    </contour>
  </outline>
</glyph>
<glyph name="uni0447" format="2">
  <advance width="562"/>
  <unicode hex="0447"/>
  <outline>
    <contour>
      <point x="90" y="288" type="line" smooth="yes"/>
      <point x="90" y="217"/>
      <point x="156" y="170"/>
      <point x="268" y="170" type="curve" smooth="yes"/>
      <point x="350" y="170"/>
      <point x="421" y="191"/>
      <point x="460" y="208" type="curve"/>
      <point x="453" y="222" type="line"/>
      <point x="435" y="213"/>
      <point x="360" y="190"/>
      <point x="270" y="190" type="curve" smooth="yes"/>
      <point x="153" y="190"/>
      <point x="110" y="230"/>
      <point x="110" y="299" type="curve" smooth="yes"/>
      <point x="110" y="460" type="line"/>
      <point x="90" y="460" type="line"/>
    </contour>
    <contour>
      <point x="452" y="0" type="line"/>
      <point x="472" y="0" type="line"/>
      <point x="472" y="460" type="line"/>
      <point x="452" y="460" type="line"/>
    </contour>
  </outline>
</glyph>
<glyph name="uni0448" format="2">
  <advance width="848"/>
  <unicode hex="0448"/>
  <outline>
    <contour>
      <point x="90" y="0" type="line"/>
      <point x="110" y="0" type="line"/>
      <point x="110" y="460" type="line"/>
      <point x="90" y="460" type="line"/>
    </contour>
    <contour>
      <point x="102" y="0" type="line"/>
      <point x="747" y="0" type="line"/>
      <point x="747" y="18" type="line"/>
      <point x="102" y="18" type="line"/>
    </contour>
    <contour>
      <point x="414" y="0" type="line"/>
      <point x="434" y="0" type="line"/>
      <point x="434" y="460" type="line"/>
      <point x="414" y="460" type="line"/>
    </contour>
    <contour>
      <point x="738" y="0" type="line"/>
      <point x="758" y="0" type="line"/>
      <point x="758" y="460" type="line"/>
      <point x="738" y="460" type="line"/>
    </contour>
  </outline>
</glyph>
<glyph name="uni0449" format="2">
  <advance width="940"/>
  <unicode hex="0449"/>
  <outline>
    <contour>
      <point x="102" y="0" type="line"/>
      <point x="747" y="0" type="line"/>
      <point x="747" y="18" type="line"/>
      <point x="102" y="18" type="line"/>
    </contour>
    <contour>
      <point x="751" y="0" type="line"/>
      <point x="830" y="0" type="line"/>
      <point x="830" y="-140" type="line"/>
      <point x="850" y="-140" type="line"/>
      <point x="850" y="18" type="line"/>
      <point x="751" y="18" type="line"/>
    </contour>
    <contour>
      <point x="90" y="0" type="line"/>
      <point x="110" y="0" type="line"/>
      <point x="110" y="460" type="line"/>
      <point x="90" y="460" type="line"/>
    </contour>
    <contour>
      <point x="414" y="0" type="line"/>
      <point x="434" y="0" type="line"/>
      <point x="434" y="460" type="line"/>
      <point x="414" y="460" type="line"/>
    </contour>
    <contour>
      <point x="738" y="0" type="line"/>
      <point x="758" y="0" type="line"/>
      <point x="758" y="460" type="line"/>
      <point x="738" y="460" type="line"/>
    </contour>
  </outline>
</glyph>
<glyph name="uni044A" format="2">
  <advance width="667"/>
  <unicode hex="044A"/>
  <outline>
    <contour>
      <point x="37" y="442" type="line"/>
      <point x="237" y="442" type="line"/>
      <point x="237" y="460" type="line"/>
      <point x="37" y="460" type="line"/>
    </contour>
    <contour>
      <point x="224" y="0" type="line"/>
      <point x="244" y="0" type="line"/>
      <point x="244" y="460" type="line"/>
      <point x="224" y="460" type="line"/>
    </contour>
    <contour>
      <point x="237" y="0" type="line"/>
      <point x="393" y="0" type="line" smooth="yes"/>
      <point x="558" y="0"/>
      <point x="607" y="65"/>
      <point x="607" y="140" type="curve" smooth="yes"/>
      <point x="607" y="215"/>
      <point x="558" y="290"/>
      <point x="393" y="290" type="curve" smooth="yes"/>
      <point x="237" y="290" type="line"/>
      <point x="237" y="272" type="line"/>
      <point x="393" y="272" type="line" smooth="yes"/>
      <point x="531" y="272"/>
      <point x="587" y="229"/>
      <point x="587" y="140" type="curve" smooth="yes"/>
      <point x="587" y="61"/>
      <point x="524" y="18"/>
      <point x="393" y="18" type="curve" smooth="yes"/>
      <point x="237" y="18" type="line"/>
    </contour>
  </outline>
</glyph>
<glyph name="uni044B" format="2">
  <advance width="679"/>
  <unicode hex="044B"/>
  <anchor x="345" y="540" name="top"/>
  <outline>
    <contour>
      <point x="90" y="0" type="line"/>
      <point x="110" y="0" type="line"/>
      <point x="110" y="460" type="line"/>
      <point x="90" y="460" type="line"/>
    </contour>
    <contour>
      <point x="100" y="0" type="line"/>
      <point x="320" y="0" type="line" smooth="yes"/>
      <point x="424" y="0"/>
      <point x="474" y="56"/>
      <point x="474" y="140" type="curve" smooth="yes"/>
      <point x="474" y="230"/>
      <point x="424" y="290"/>
      <point x="320" y="290" type="curve" smooth="yes"/>
      <point x="100" y="290" type="line"/>
      <point x="100" y="272" type="line"/>
      <point x="320" y="272" type="line" smooth="yes"/>
      <point x="412" y="272"/>
      <point x="454" y="219"/>
      <point x="454" y="140" type="curve" smooth="yes"/>
      <point x="454" y="67"/>
      <point x="412" y="18"/>
      <point x="320" y="18" type="curve" smooth="yes"/>
      <point x="100" y="18" type="line"/>
    </contour>
    <contour>
      <point x="569" y="0" type="line"/>
      <point x="589" y="0" type="line"/>
      <point x="589" y="460" type="line"/>
      <point x="569" y="460" type="line"/>
    </contour>
  </outline>
</glyph>
<glyph name="uni044C" format="2">
  <advance width="532"/>
  <unicode hex="044C"/>
  <outline>
    <contour>
      <point x="90" y="0" type="line"/>
      <point x="110" y="0" type="line"/>
      <point x="110" y="460" type="line"/>
      <point x="90" y="460" type="line"/>
    </contour>
    <contour>
      <point x="102" y="0" type="line"/>
      <point x="259" y="0" type="line" smooth="yes"/>
      <point x="424" y="0"/>
      <point x="472" y="65"/>
      <point x="472" y="140" type="curve" smooth="yes"/>
      <point x="472" y="215"/>
      <point x="424" y="290"/>
      <point x="259" y="290" type="curve" smooth="yes"/>
      <point x="102" y="290" type="line"/>
      <point x="102" y="272" type="line"/>
      <point x="259" y="272" type="line" smooth="yes"/>
      <point x="396" y="272"/>
      <point x="452" y="229"/>
      <point x="452" y="140" type="curve" smooth="yes"/>
      <point x="452" y="61"/>
      <point x="390" y="18"/>
      <point x="259" y="18" type="curve" smooth="yes"/>
      <point x="102" y="18" type="line"/>
    </contour>
  </outline>
</glyph>
<glyph name="uni044D" format="2">
  <advance width="562"/>
  <unicode hex="044D"/>
  <outline>
    <contour>
      <point x="60" y="130" type="line"/>
      <point x="87" y="45"/>
      <point x="169" y="-10"/>
      <point x="278" y="-10" type="curve" smooth="yes"/>
      <point x="422" y="-10"/>
      <point x="502" y="95"/>
      <point x="502" y="250" type="curve" smooth="yes"/>
      <point x="502" y="379"/>
      <point x="405" y="470"/>
      <point x="264" y="470" type="curve" smooth="yes"/>
      <point x="162" y="470"/>
      <point x="93" y="412"/>
      <point x="60" y="320" type="curve"/>
      <point x="78" y="320" type="line"/>
      <point x="107" y="401"/>
      <point x="181" y="452"/>
      <point x="264" y="452" type="curve" smooth="yes"/>
      <point x="402" y="452"/>
      <point x="482" y="368"/>
      <point x="482" y="243" type="curve" smooth="yes"/>
      <point x="482" y="99"/>
      <point x="409" y="8"/>
      <point x="278" y="8" type="curve" smooth="yes"/>
      <point x="184" y="8"/>
      <point x="99" y="60"/>
      <point x="78" y="130" type="curve"/>
    </contour>
    <contour>
      <point x="263" y="234" type="line"/>
      <point x="492" y="234" type="line"/>
      <point x="492" y="252" type="line"/>
      <point x="263" y="252" type="line"/>
    </contour>
  </outline>
</glyph>
<glyph name="uni044E" format="2">
  <advance width="789"/>
  <unicode hex="044E"/>
  <outline>
    <contour>
      <point x="90" y="0" type="line"/>
      <point x="110" y="0" type="line"/>
      <point x="110" y="221" type="line"/>
      <point x="231" y="221" type="line"/>
      <point x="231" y="239" type="line"/>
      <point x="110" y="239" type="line"/>
      <point x="110" y="460" type="line"/>
      <point x="90" y="460" type="line"/>
    </contour>
    <contour>
      <point x="224" y="231" type="curve" smooth="yes"/>
      <point x="224" y="108"/>
      <point x="306" y="-10"/>
      <point x="470" y="-10" type="curve" smooth="yes"/>
      <point x="634" y="-10"/>
      <point x="729" y="116"/>
      <point x="729" y="230" type="curve" smooth="yes"/>
      <point x="729" y="350"/>
      <point x="641" y="470"/>
      <point x="470" y="470" type="curve" smooth="yes"/>
      <point x="310" y="470"/>
      <point x="224" y="353"/>
    </contour>
    <contour>
      <point x="244" y="230" type="curve" smooth="yes"/>
      <point x="244" y="356"/>
      <point x="336" y="452"/>
      <point x="470" y="452" type="curve" smooth="yes"/>
      <point x="617" y="452"/>
      <point x="709" y="362"/>
      <point x="709" y="230" type="curve" smooth="yes"/>
      <point x="709" y="107"/>
      <point x="607" y="8"/>
      <point x="470" y="8" type="curve" smooth="yes"/>
      <point x="339" y="8"/>
      <point x="244" y="107"/>
    </contour>
  </outline>
</glyph>
<glyph name="uni044F" format="2">
  <advance width="537"/>
  <unicode hex="044F"/>
  <outline>
    <contour>
      <point x="79" y="332" type="curve" smooth="yes"/>
      <point x="79" y="258"/>
      <point x="159" y="208"/>
      <point x="267" y="208" type="curve" smooth="yes"/>
      <point x="434" y="208" type="line"/>
      <point x="434" y="226" type="line"/>
      <point x="271" y="226" type="line" smooth="yes"/>
      <point x="159" y="226"/>
      <point x="99" y="271"/>
      <point x="99" y="332" type="curve" smooth="yes"/>
      <point x="99" y="409"/>
      <point x="139" y="442"/>
      <point x="261" y="442" type="curve" smooth="yes"/>
      <point x="434" y="442" type="line"/>
      <point x="434" y="460" type="line"/>
      <point x="246" y="460" type="line" smooth="yes"/>
      <point x="139" y="460"/>
      <point x="79" y="417"/>
    </contour>
    <contour>
      <point x="84" y="0" type="line"/>
      <point x="109" y="0" type="line"/>
      <point x="250" y="218" type="line"/>
      <point x="227" y="219" type="line"/>
    </contour>
    <contour>
      <point x="427" y="0" type="line"/>
      <point x="447" y="0" type="line"/>
      <point x="447" y="460" type="line"/>
      <point x="427" y="460" type="line"/>
    </contour>
  </outline>
</glyph>
<glyph name="uni0452" format="2">
  <advance width="618"/>
  <unicode hex="0452"/>
  <anchor x="389" y="540" name="top"/>
  <outline>
    <component base="uni045B"/>
    <contour>
      <point x="334" y="-90" type="line"/>
      <point x="334" y="-166"/>
      <point x="379" y="-200"/>
      <point x="433" y="-200" type="curve" smooth="yes"/>
      <point x="504" y="-200"/>
      <point x="528" y="-167"/>
      <point x="528" y="-66" type="curve" smooth="yes"/>
      <point x="528" y="50" type="line"/>
      <point x="508" y="50" type="line"/>
      <point x="508" y="-84" type="line" smooth="yes"/>
      <point x="508" y="-148"/>
      <point x="488" y="-182"/>
      <point x="438" y="-182" type="curve" smooth="yes"/>
      <point x="389" y="-182"/>
      <point x="354" y="-157"/>
      <point x="354" y="-90" type="curve"/>
    </contour>
  </outline>
</glyph>
<glyph name="uni0454" format="2">
  <advance width="451"/>
  <unicode hex="0454"/>
  <outline>
    <contour>
      <point x="35" y="230" type="curve" smooth="yes"/>
      <point x="35" y="85"/>
      <point x="114" y="-8"/>
      <point x="240" y="-8" type="curve"/>
      <point x="240" y="10" type="line"/>
      <point x="126" y="10"/>
      <point x="55" y="97"/>
      <point x="55" y="230" type="curve" smooth="yes"/>
      <point x="55" y="362"/>
      <point x="127" y="450"/>
      <point x="240" y="450" type="curve"/>
      <point x="240" y="468" type="line"/>
      <point x="114" y="468"/>
      <point x="35" y="376"/>
    </contour>
    <contour>
      <point x="50" y="210" type="line"/>
      <point x="248" y="210" type="line"/>
      <point x="248" y="228" type="line"/>
      <point x="50" y="228" type="line"/>
    </contour>
    <contour>
      <point x="240" y="-10" type="line"/>
      <point x="368" y="-10"/>
      <point x="421" y="79"/>
      <point x="441" y="150" type="curve"/>
      <point x="421" y="150" type="line"/>
      <point x="391" y="57"/>
      <point x="328" y="8"/>
      <point x="240" y="8" type="curve"/>
    </contour>
    <contour>
      <point x="240" y="452" type="line"/>
      <point x="333" y="452"/>
      <point x="398" y="404"/>
      <point x="420" y="320" type="curve"/>
      <point x="440" y="320" type="line"/>
      <point x="418" y="405"/>
      <point x="359" y="470"/>
      <point x="240" y="470" type="curve"/>
    </contour>
  </outline>
</glyph>
<glyph name="uni045F" format="2">
  <advance width="600"/>
  <unicode hex="045F"/>
  <outline>
    <contour>
      <point x="90" y="0" type="line"/>
      <point x="110" y="0" type="line"/>
      <point x="110" y="460" type="line"/>
      <point x="90" y="460" type="line"/>
    </contour>
    <contour>
      <point x="490" y="0" type="line"/>
      <point x="510" y="0" type="line"/>
      <point x="510" y="460" type="line"/>
      <point x="490" y="460" type="line"/>
    </contour>
    <contour>
      <point x="104" y="0" type="line"/>
      <point x="495" y="0" type="line"/>
      <point x="495" y="18" type="line"/>
      <point x="104" y="18" type="line"/>
    </contour>
    <contour>
      <point x="290" y="18" type="line"/>
      <point x="290" y="-140" type="line"/>
      <point x="310" y="-140" type="line"/>
      <point x="310" y="18" type="line"/>
    </contour>
  </outline>
  <guideline angle="90" x="300" y="0"/>
</glyph>
<glyph name="Yatcyr" format="2">
  <advance width="686"/>
  <unicode hex="0462"/>
  <outline>
    <component base="uni042C"/>
    <contour>
      <point x="0" y="562" type="line"/>
      <point x="380" y="562" type="line"/>
      <point x="380" y="580" type="line"/>
      <point x="0" y="580" type="line"/>
    </contour>
  </outline>
</glyph>
<glyph name="uni0467" format="2">
  <advance width="568"/>
  <unicode hex="0467"/>
  <anchor x="284" y="740" name="top"/>
  <anchor x="284" y="-50" name="bottom"/>
  <outline>
    <contour>
      <point x="87" y="110" type="line"/>
      <point x="480" y="110" type="line"/>
      <point x="472" y="128" type="line"/>
      <point x="95" y="128" type="line"/>
    </contour>
    <contour>
      <point x="10" y="0" type="line"/>
      <point x="34" y="0" type="line"/>
      <point x="266" y="400" type="line" smooth="yes"/>
      <point x="275" y="415"/>
      <point x="280" y="422"/>
      <point x="283" y="428" type="curve"/>
      <point x="280" y="426" type="line"/>
      <point x="288" y="426" type="line"/>
      <point x="285" y="428" type="line"/>
      <point x="288" y="422"/>
      <point x="293" y="415"/>
      <point x="302" y="400" type="curve" smooth="yes"/>
      <point x="534" y="0" type="line"/>
      <point x="558" y="0" type="line"/>
      <point x="295" y="460" type="line"/>
      <point x="273" y="460" type="line"/>
    </contour>
    <contour>
      <point x="273" y="0" type="line"/>
      <point x="295" y="0" type="line"/>
      <point x="295" y="120" type="line"/>
      <point x="273" y="120" type="line"/>
    </contour>
  </outline>
</glyph>
